v -0.022483849898 -0.0385764576495 0.0754838511348
v -0.0208190754056 -0.0404051952064 0.0738190710545
v 0.0264106467366 -0.0332270860672 0.0265893545002
v 0.0310855079442 -0.0238247774541 0.0219144932926
v 0.0320616662502 -0.0210875403136 0.0209383349866
v -0.024777026847 -0.0356541574001 0.0777770280838
v 0.0295619610697 -0.0274208337069 0.0234380401671
v -0.0289598703384 -0.0286740195006 0.0819598659873
v -0.0272776763886 -0.0317969657481 0.0802776739001
v 0.0234997980297 0.0373443737626 0.0295002013445
v -0.0256380233914 -0.034415345639 0.0786380246282
v -0.022483849898 0.0385764576495 0.0754838511348
v -0.0236130841076 0.0372010618448 0.0766130834818
v -0.0316523425281 -0.0222867764533 0.0846523419023
v 0.0183776821941 -0.0427135713398 0.0346223153174
v 0.0197617616504 -0.0414559096098 0.0332382395864
v 0.0272776763886 -0.0317969657481 0.0257223248482
v 0.022483849898 0.0385764576495 0.0305161513388
v 0.0193946678191 0.0418020784855 0.0336053334177
v 0.0168466623873 0.0439615473151 0.0361533388495
v 0.0149167468771 0.0453383475542 0.0380832515657
v 0.0137563785538 0.0460681542754 0.039243619889
v -0.0194609500468 0.0417402647436 0.0724609494209
v -0.0351726599038 0.00510916300118 0.0881726592779
v -0.0353267490864 0.00202719005756 0.0883267521858
v -0.0310855079442 -0.0238247774541 0.084085509181
v -0.0197617616504 -0.0414559096098 0.0727617591619
v 0.00870385766029 -0.0484708510339 0.0442961417139
v 0.0105087421834 -0.0477505140007 0.0424912571907
v 0.0226468034089 -0.0383850857615 0.0303531978279
v 0.0249950978905 -0.0353484079242 0.0280049033463
v 0.0325751043856 -0.0194544568658 0.0204248968512
v 0.0338739231229 -0.0143560133874 0.0191260781139
v 0.0346365086734 -0.0100714359432 0.0183634925634
v 0.0349765717983 -0.00733786774799 0.0180234275758
v 0.0353553406894 -1.84314369323e-18 0.0176446605474
v 0.0351845473051 0.00494100851938 0.017815452069
v 0.029313756153 0.0279473513365 0.0236862450838
v 0.0271463915706 0.0320205800235 0.0258536096662
v 0.0249950978905 0.0353484079242 0.0280049033463
v 0.0136956907809 -0.0461043864489 0.0393043085933
v 0.0168466623873 -0.0439615473151 0.0361533388495
v 0.0101571278647 0.0479024611413 0.0428428687155
v 0.00712158065289 0.0489834211767 0.0458784177899
v 0.00519484328106 0.0494630523026 0.0478051565588
v -0.00712158065289 0.0489834211767 0.0601215809584
v -0.00994454603642 0.0479915700853 0.0629445463419
v -0.0105087421834 0.0477505140007 0.0635087415576
v -0.0347458086908 0.00928462855518 0.0877458080649
v 0.0351726599038 0.00510916300118 0.0178273394704
v 0.0342756211758 0.0123004401103 0.018724380061
v 0.0337647125125 0.0148616051301 0.0192352868617
v -8.67361737988e-18 0.0500000007451 0.0529999993742
v -0.00478411233053 0.049545250833 0.0577841103077
v -0.0148702012375 0.0453689955175 0.0678701996803
v -0.0168466623873 0.0439615473151 0.0698466598988
v -0.0254399273545 0.0347080118954 0.0784399285913
v -0.0272776763886 0.0317969657481 0.0802776739001
v -0.0325751043856 0.0194544568658 0.0855751037598
v -0.0287611167878 0.0290704593062 0.0817611142993
v -0.0314437188208 0.0228681433946 0.084443718195
v -0.0164555907249 -0.0442576557398 0.0694555938244
v -0.0137563785538 -0.0460681542754 0.066756375134
v 0.00712158065289 -0.0489834211767 0.0458784177899
v -0.011781129986 -0.0471523590386 0.0647811293602
v 0.00350015354343 -0.0497575849295 0.0494998469949
v -0.00687942048535 -0.0490523204207 0.0598794184625
v -0.00173543044366 -0.0499406941235 0.054735429585
v 0.032603174448 0.019360397011 0.0203968267888
v 0.0302063431591 0.0259823463857 0.0227936562151
v -0.0334470458329 0.0162339489907 0.086447045207
v -0.0353521481156 -0.000677901029121 0.0883521512151
v -0.0351726599038 -0.00510916300118 0.0881726592779
v -0.0348868183792 -0.00815262366086 0.0878868177533
v -0.0336441546679 -0.0153985098004 0.0866441503167
v -0.0325751043856 -0.0194544568658 0.0855751037598
v 0.0220802482218 0.0439615473151 0.0112883346155
v 0.0238237455487 0.0439594052732 0.00300000002608
v 0.0194511972368 0.0460613816977 0.00300000002608
v 0.0216941870749 -0.0450484417379 0.00300000002608
v 0.0238235574216 -0.043959505856 0.00300000002608
v 0.0203357189894 -0.0439615473151 0.019576670602
v 0.0148581601679 -0.0477413348854 0.00300000002608
v 0.0194518174976 -0.0460611209273 0.00300000002608
v 0.0166054181755 -0.0460681542754 0.0211218111217
v 0.0424571558833 -0.00510916300118 0.0104136699811
v 0.0418099649251 -0.0100714359432 0.0106817455962
v 0.0487463958561 -0.0111260470003 0.00300000002608
v 0.0487463958561 -0.0111260470003 0.00300000002608
v 0.0418099649251 -0.0100714359432 0.0106817455962
v 0.0477412045002 -0.0148585801944 0.00300000002608
v 0.0477412045002 -0.0148585801944 0.00300000002608
v 0.0418099649251 -0.0100714359432 0.0106817455962
v 0.0407576151192 -0.0148616051301 0.0111176427454
v 0.0477412045002 -0.0148585801944 0.00300000002608
v 0.0407576151192 -0.0148616051301 0.0111176427454
v 0.0459763891995 -0.0196512509137 0.00300000002608
v 0.0393216274679 -0.0194544568658 0.0117124477401
v 0.0375235266984 -0.0238247774541 0.0124572459608
v 0.0407425351441 -0.0238247774541 0.00772862322628
v 0.0407425351441 -0.0238247774541 0.00772862322628
v 0.0375235266984 -0.0238247774541 0.0124572459608
v 0.0353848338127 -0.0279473513365 0.0133431218565
v 0.0407425351441 -0.0238247774541 0.00772862322628
v 0.0353848338127 -0.0279473513365 0.0133431218565
v 0.0384203717113 -0.0279473513365 0.00817156117409
v 0.0384203717113 -0.0279473513365 0.00817156117409
v 0.0353848338127 -0.0279473513365 0.0133431218565
v 0.0329270660877 -0.0317969657481 0.0143611617386
v 0.0384203717113 -0.0279473513365 0.00817156117409
v 0.0329270660877 -0.0317969657481 0.0143611617386
v 0.0357517637312 -0.0317969657481 0.00868058111519
v 0.0357517637312 -0.0317969657481 0.00868058111519
v 0.0329270660877 -0.0317969657481 0.0143611617386
v 0.030171751976 -0.0353484079242 0.0155024509877
v 0.0357517637312 -0.0317969657481 0.00868058111519
v 0.030171751976 -0.0353484079242 0.0155024509877
v 0.0327600799501 -0.0353484079242 0.00925122573972
v 0.0327600799501 -0.0353484079242 0.00925122573972
v 0.030171751976 -0.0353484079242 0.0155024509877
v 0.0271404087543 -0.0385764576495 0.016758074984
v 0.0327600799501 -0.0353484079242 0.00925122573972
v 0.0271404087543 -0.0385764576495 0.016758074984
v 0.0294686872512 -0.0385764576495 0.00987903773785
v 0.0238545555621 -0.0414559096098 0.0181191191077
v 0.0203357189894 -0.0439615473151 0.019576670602
v 0.0259009543806 -0.0414559096098 0.0105595597997
v 0.0259009543806 -0.0414559096098 0.0105595597997
v 0.0203357189894 -0.0439615473151 0.019576670602
v 0.0238235574216 -0.043959505856 0.00300000002608
v 0.0259009543806 -0.0414559096098 0.0105595597997
v 0.0238235574216 -0.043959505856 0.00300000002608
v 0.0279491655529 -0.0414589457214 0.00300000002608
v 0.0279491655529 -0.0414589457214 0.00300000002608
v 0.0293892621994 -0.040450848639 0.00300000002608
v 0.0259009543806 -0.0414559096098 0.0105595597997
v 0.0259009543806 -0.0414559096098 0.0105595597997
v 0.0293892621994 -0.040450848639 0.00300000002608
v 0.0294686872512 -0.0385764576495 0.00987903773785
v 0.0259009543806 -0.0414559096098 0.0105595597997
v 0.0294686872512 -0.0385764576495 0.00987903773785
v 0.0238545555621 -0.0414559096098 0.0181191191077
v 0.0238545555621 -0.0414559096098 0.0181191191077
v 0.0294686872512 -0.0385764576495 0.00987903773785
v 0.0271404087543 -0.0385764576495 0.016758074984
v 0.0407576151192 -0.0148616051301 0.0111176427454
v 0.0393216274679 -0.0194544568658 0.0117124477401
v 0.0459763891995 -0.0196512509137 0.00300000002608
v 0.0459763891995 -0.0196512509137 0.00300000002608
v 0.0393216274679 -0.0194544568658 0.0117124477401
v 0.0407425351441 -0.0238247774541 0.00772862322628
v 0.0459763891995 -0.0196512509137 0.00300000002608
v 0.0407425351441 -0.0238247774541 0.00772862322628
v 0.043959453702 -0.0238236505538 0.00300000002608
v 0.043959453702 -0.0238236505538 0.00300000002608
v 0.0407425351441 -0.0238247774541 0.00772862322628
v 0.0384203717113 -0.0279473513365 0.00817156117409
v 0.043959453702 -0.0238236505538 0.00300000002608
v 0.0384203717113 -0.0279473513365 0.00817156117409
v 0.0417286641896 -0.0275448486209 0.00300000002608
v 0.0417286641896 -0.0275448486209 0.00300000002608
v 0.0384203717113 -0.0279473513365 0.00817156117409
v 0.0357517637312 -0.0317969657481 0.00868058111519
v 0.0417286641896 -0.0275448486209 0.00300000002608
v 0.0357517637312 -0.0317969657481 0.00868058111519
v 0.038582790643 -0.0318020172417 0.00300000002608
v 0.038582790643 -0.0318020172417 0.00300000002608
v 0.0357517637312 -0.0317969657481 0.00868058111519
v 0.0327600799501 -0.0353484079242 0.00925122573972
v 0.038582790643 -0.0318020172417 0.00300000002608
v 0.0327600799501 -0.0353484079242 0.00925122573972
v 0.03613974154 -0.0345531329513 0.00300000002608
v 0.03613974154 -0.0345531329513 0.00300000002608
v 0.0327600799501 -0.0353484079242 0.00925122573972
v 0.0294686872512 -0.0385764576495 0.00987903773785
v 0.03613974154 -0.0345531329513 0.00300000002608
v 0.0294686872512 -0.0385764576495 0.00987903773785
v 0.0318022966385 -0.038582559675 0.00300000002608
v 0.0318022966385 -0.038582559675 0.00300000002608
v 0.0294686872512 -0.0385764576495 0.00987903773785
v 0.0293892621994 -0.040450848639 0.00300000002608
v -0.0203357189894 -0.0439615473151 0.0364233292639
v -0.0216941870749 -0.0450484417379 0.00300000002608
v -0.0166054181755 -0.0460681542754 0.0348781868815
v -0.0166054181755 -0.0460681542754 0.0348781868815
v -0.0216941870749 -0.0450484417379 0.00300000002608
v -0.0194518174976 -0.0460611209273 0.00300000002608
v -0.0166054181755 -0.0460681542754 0.0348781868815
v -0.0194518174976 -0.0460611209273 0.00300000002608
v -0.0126851741225 -0.0477505140007 0.0332543700933
v -0.0126851741225 -0.0477505140007 0.0332543700933
v -0.0194518174976 -0.0460611209273 0.00300000002608
v -0.0133018419147 -0.0481981448829 0.00300000002608
v -0.0126851741225 -0.0477505140007 0.0332543700933
v -0.0133018419147 -0.0481981448829 0.00300000002608
v -0.00859650876373 -0.0489834211767 0.0315607897937
v 0.0100699914619 -0.048975456506 0.00300000002608
v 0.00859650876373 -0.0489834211767 0.0244392100722
v 0.00448196567595 -0.0497987158597 0.00300000002608
v 0.00448196567595 -0.0497987158597 0.00300000002608
v 0.00859650876373 -0.0489834211767 0.0244392100722
v 0.00436094356701 -0.0497416518629 0.0261936392635
v 0.00448196567595 -0.0497987158597 0.00300000002608
v 0.00436094356701 -0.0497416518629 0.0261936392635
v -6.12323384934e-18 -0.0500000007451 0.00300000002608
v -6.12323384934e-18 -0.0500000007451 0.00300000002608
v 0.00436094356701 -0.0497416518629 0.0261936392635
v -2.38524477947e-18 -0.0500000007451 0.0280000008643
v -6.12323384934e-18 -0.0500000007451 0.00300000002608
v -2.38524477947e-18 -0.0500000007451 0.0280000008643
v -0.00448196567595 -0.0497987158597 0.00300000002608
v -0.00448196567595 -0.0497987158597 0.00300000002608
v -2.38524477947e-18 -0.0500000007451 0.0280000008643
v -0.00436094356701 -0.0497416518629 0.029806362465
v -0.00448196567595 -0.0497987158597 0.00300000002608
v -0.00436094356701 -0.0497416518629 0.029806362465
v -0.0100699914619 -0.048975456506 0.00300000002608
v -0.0126851741225 0.0477505140007 0.0332543700933
v -0.0175687409937 0.0468117445707 0.00300000002608
v -0.0166054181755 0.0460681542754 0.0348781868815
v -0.0166054181755 0.0460681542754 0.0348781868815
v -0.0175687409937 0.0468117445707 0.00300000002608
v -0.0194511972368 0.0460613816977 0.00300000002608
v -0.0166054181755 0.0460681542754 0.0348781868815
v -0.0194511972368 0.0460613816977 0.00300000002608
v -0.0203357189894 0.0439615473151 0.0364233292639
v -0.0194511972368 0.0460613816977 0.00300000002608
v -0.0238237455487 0.0439594052732 0.00300000002608
v -0.0203357189894 0.0439615473151 0.0364233292639
v -0.0203357189894 0.0439615473151 0.0364233292639
v -0.0238237455487 0.0439594052732 0.00300000002608
v -0.0256449636072 0.0429224409163 0.00300000002608
v -0.0203357189894 0.0439615473151 0.0364233292639
v -0.0256449636072 0.0429224409163 0.00300000002608
v -0.0238545555621 0.0414559096098 0.0378808788955
v -0.0238545555621 0.0414559096098 0.0378808788955
v -0.0256449636072 0.0429224409163 0.00300000002608
v -0.0279494281858 0.0414587669075 0.00300000002608
v -0.0238545555621 0.0414559096098 0.0378808788955
v -0.0279494281858 0.0414587669075 0.00300000002608
v -0.0271404087543 0.0385764576495 0.0392419248819
v -0.0271404087543 0.0385764576495 0.0392419248819
v -0.0279494281858 0.0414587669075 0.00300000002608
v -0.0328969359398 0.0376535728574 0.00300000002608
v -0.0271404087543 0.0385764576495 0.0392419248819
v -0.0328969359398 0.0376535728574 0.00300000002608
v -0.030171751976 0.0353484079242 0.0404975488782
v -0.030171751976 0.0353484079242 0.0404975488782
v -0.0328969359398 0.0376535728574 0.00300000002608
v -0.0353554934263 0.0353551842272 0.00300000002608
v -0.030171751976 0.0353484079242 0.0404975488782
v -0.0353554934263 0.0353551842272 0.00300000002608
v -0.0329270660877 0.0317969657481 0.0416388362646
v -0.0329270660877 0.0317969657481 0.0416388362646
v -0.0353554934263 0.0353551842272 0.00300000002608
v -0.0390915758908 0.0311744902283 0.00300000002608
v -0.0329270660877 0.0317969657481 0.0416388362646
v -0.0390915758908 0.0311744902283 0.00300000002608
v -0.0353848338127 0.0279473513365 0.0426568761468
v -0.0353848338127 0.0279473513365 0.0426568761468
v -0.0390915758908 0.0311744902283 0.00300000002608
v -0.0414588563144 0.027949295938 0.00300000002608
v -0.0353848338127 0.0279473513365 0.0426568761468
v -0.0414588563144 0.027949295938 0.00300000002608
v -0.0375235266984 0.0238247774541 0.0435427539051
v -0.0375235266984 0.0238247774541 0.0435427539051
v -0.0414588563144 0.027949295938 0.00300000002608
v -0.0440297760069 0.0236934330314 0.00300000002608
v -0.0375235266984 0.0238247774541 0.0435427539051
v -0.0440297760069 0.0236934330314 0.00300000002608
v -0.0393216274679 0.0194544568658 0.0442875511944
v -0.0393216274679 0.0194544568658 0.0442875511944
v -0.0440297760069 0.0236934330314 0.00300000002608
v -0.0460612513125 0.0194515082985 0.00300000002608
v -0.0393216274679 0.0194544568658 0.0442875511944
v -0.0460612513125 0.0194515082985 0.00300000002608
v -0.0407576151192 0.0148616051301 0.0448823533952
v -0.0407576151192 0.0148616051301 0.0448823533952
v -0.0460612513125 0.0194515082985 0.00300000002608
v -0.0475528240204 0.0154508501291 0.00300000002608
v -0.0407576151192 0.0148616051301 0.0448823533952
v -0.0475528240204 0.0154508501291 0.00300000002608
v -0.0418099649251 0.0100714359432 0.0453182533383
v -0.0418099649251 0.0100714359432 0.0453182533383
v -0.0475528240204 0.0154508501291 0.00300000002608
v -0.0489755272865 0.0100696356967 0.00300000002608
v -0.0418099649251 0.0100714359432 0.0453182533383
v -0.0489755272865 0.0100696356967 0.00300000002608
v -0.0424571558833 0.00510916300118 0.0455863289535
v -0.0424571558833 0.00510916300118 0.0455863289535
v -0.0489755272865 0.0100696356967 0.00300000002608
v -0.0495474897325 0.00671166321263 0.00300000002608
v -0.0424571558833 0.00510916300118 0.0455863289535
v -0.0495474897325 0.00671166321263 0.00300000002608
v -0.0426776707172 1.08420217249e-18 0.0456776693463
v 0.0238237455487 0.0439594052732 0.00300000002608
v 0.0220802482218 0.0439615473151 0.0112883346155
v 0.0256449636072 0.0429224409163 0.00300000002608
v 0.0256449636072 0.0429224409163 0.00300000002608
v 0.0220802482218 0.0439615473151 0.0112883346155
v 0.0259009543806 0.0414559096098 0.0105595597997
v 0.0256449636072 0.0429224409163 0.00300000002608
v 0.0259009543806 0.0414559096098 0.0105595597997
v 0.0279494281858 0.0414587669075 0.00300000002608
v 0.0279494281858 0.0414587669075 0.00300000002608
v 0.0259009543806 0.0414559096098 0.0105595597997
v 0.0294686872512 0.0385764576495 0.00987903773785
v 0.0279494281858 0.0414587669075 0.00300000002608
v 0.0294686872512 0.0385764576495 0.00987903773785
v 0.0318017341197 0.038583021611 0.00300000002608
v 0.0337647125125 0.0148616051301 0.0192352868617
v 0.0342756211758 0.0123004401103 0.018724380061
v 0.0418099649251 0.0100714359432 0.0106817455962
v 0.0418099649251 0.0100714359432 0.0106817455962
v 0.0342756211758 0.0123004401103 0.018724380061
v 0.0424571558833 0.00510916300118 0.0104136699811
v 0.0418099649251 0.0100714359432 0.0106817455962
v 0.0424571558833 0.00510916300118 0.0104136699811
v 0.0495474897325 0.00671166321263 0.00300000002608
v 0.0489755272865 0.0100696356967 0.00300000002608
v 0.0475528240204 0.0154508501291 0.00300000002608
v 0.0407576151192 0.0148616051301 0.0111176427454
v 0.0318017341197 0.038583021611 0.00300000002608
v 0.0294686872512 0.0385764576495 0.00987903773785
v 0.0328969359398 0.0376535728574 0.00300000002608
v 0.0328969359398 0.0376535728574 0.00300000002608
v 0.0294686872512 0.0385764576495 0.00987903773785
v 0.0327600799501 0.0353484079242 0.00925122573972
v 0.0328969359398 0.0376535728574 0.00300000002608
v 0.0327600799501 0.0353484079242 0.00925122573972
v 0.0353554934263 0.0353551842272 0.00300000002608
v 0.0353554934263 0.0353551842272 0.00300000002608
v 0.0327600799501 0.0353484079242 0.00925122573972
v 0.0357517637312 0.0317969657481 0.00868058111519
v 0.0353554934263 0.0353551842272 0.00300000002608
v 0.0357517637312 0.0317969657481 0.00868058111519
v 0.0390915758908 0.0311744902283 0.00300000002608
v 0.0390915758908 0.0311744902283 0.00300000002608
v 0.0357517637312 0.0317969657481 0.00868058111519
v 0.0384203717113 0.0279473513365 0.00817156117409
v 0.0390915758908 0.0311744902283 0.00300000002608
v 0.0384203717113 0.0279473513365 0.00817156117409
v 0.0414588563144 0.027949295938 0.00300000002608
v 0.0414588563144 0.027949295938 0.00300000002608
v 0.0384203717113 0.0279473513365 0.00817156117409
v 0.0407425351441 0.0238247774541 0.00772862322628
v 0.0414588563144 0.027949295938 0.00300000002608
v 0.0407425351441 0.0238247774541 0.00772862322628
v 0.0440297760069 0.0236934330314 0.00300000002608
v 0.0440297760069 0.0236934330314 0.00300000002608
v 0.0407425351441 0.0238247774541 0.00772862322628
v 0.042694889009 0.0194544568658 0.00735622411594
v 0.0440297760069 0.0236934330314 0.00300000002608
v 0.042694889009 0.0194544568658 0.00735622411594
v 0.0460612513125 0.0194515082985 0.00300000002608
v 0.0475528240204 0.0154508501291 0.00300000002608
v 0.0460612513125 0.0194515082985 0.00300000002608
v 0.0407576151192 0.0148616051301 0.0111176427454
v 0.0407576151192 0.0148616051301 0.0111176427454
v 0.0460612513125 0.0194515082985 0.00300000002608
v 0.042694889009 0.0194544568658 0.00735622411594
v 0.0407576151192 0.0148616051301 0.0111176427454
v 0.042694889009 0.0194544568658 0.00735622411594
v 0.0393216274679 0.0194544568658 0.0117124477401
v 0.0393216274679 0.0194544568658 0.0117124477401
v 0.042694889009 0.0194544568658 0.00735622411594
v 0.0407425351441 0.0238247774541 0.00772862322628
v 0.0393216274679 0.0194544568658 0.0117124477401
v 0.0407425351441 0.0238247774541 0.00772862322628
v 0.0375235266984 0.0238247774541 0.0124572459608
v 0.0375235266984 0.0238247774541 0.0124572459608
v 0.0407425351441 0.0238247774541 0.00772862322628
v 0.0384203717113 0.0279473513365 0.00817156117409
v 0.0375235266984 0.0238247774541 0.0124572459608
v 0.0384203717113 0.0279473513365 0.00817156117409
v 0.0353848338127 0.0279473513365 0.0133431218565
v 0.0353848338127 0.0279473513365 0.0133431218565
v 0.0384203717113 0.0279473513365 0.00817156117409
v 0.0357517637312 0.0317969657481 0.00868058111519
v 0.0353848338127 0.0279473513365 0.0133431218565
v 0.0357517637312 0.0317969657481 0.00868058111519
v 0.0329270660877 0.0317969657481 0.0143611617386
v 0.0329270660877 0.0317969657481 0.0143611617386
v 0.0357517637312 0.0317969657481 0.00868058111519
v 0.0327600799501 0.0353484079242 0.00925122573972
v 0.0329270660877 0.0317969657481 0.0143611617386
v 0.0327600799501 0.0353484079242 0.00925122573972
v 0.030171751976 0.0353484079242 0.0155024509877
v 0.030171751976 0.0353484079242 0.0155024509877
v 0.0327600799501 0.0353484079242 0.00925122573972
v 0.0294686872512 0.0385764576495 0.00987903773785
v 0.030171751976 0.0353484079242 0.0155024509877
v 0.0294686872512 0.0385764576495 0.00987903773785
v 0.0271404087543 0.0385764576495 0.016758074984
v 0.0271404087543 0.0385764576495 0.016758074984
v 0.0294686872512 0.0385764576495 0.00987903773785
v 0.0259009543806 0.0414559096098 0.0105595597997
v 0.0271404087543 0.0385764576495 0.016758074984
v 0.0259009543806 0.0414559096098 0.0105595597997
v 0.0238545555621 0.0414559096098 0.0181191191077
v 0.0238545555621 0.0414559096098 0.0181191191077
v 0.0259009543806 0.0414559096098 0.0105595597997
v 0.0220802482218 0.0439615473151 0.0112883346155
v 0.0238545555621 0.0414559096098 0.0181191191077
v 0.0220802482218 0.0439615473151 0.0112883346155
v 0.0203357189894 0.0439615473151 0.019576670602
v 0.0203357189894 0.0439615473151 0.019576670602
v 0.0220802482218 0.0439615473151 0.0112883346155
v 0.0194511972368 0.0460613816977 0.00300000002608
v 0.0203357189894 0.0439615473151 0.019576670602
v 0.0194511972368 0.0460613816977 0.00300000002608
v 0.0166054181755 0.0460681542754 0.0211218111217
v 0.0166054181755 0.0460681542754 0.0211218111217
v 0.0194511972368 0.0460613816977 0.00300000002608
v 0.0175687409937 0.0468117445707 0.00300000002608
v 0.0166054181755 0.0460681542754 0.0211218111217
v 0.0175687409937 0.0468117445707 0.00300000002608
v 0.0126851741225 0.0477505140007 0.0227456297725
v 0.0126851741225 0.0477505140007 0.0227456297725
v 0.0175687409937 0.0468117445707 0.00300000002608
v 0.0148590002209 0.047741074115 0.00300000002608
v 0.0126851741225 0.0477505140007 0.0227456297725
v 0.0148590002209 0.047741074115 0.00300000002608
v 0.00859650876373 0.0489834211767 0.0244392100722
v 0.00859650876373 0.0489834211767 0.0244392100722
v 0.0148590002209 0.047741074115 0.00300000002608
v 0.00892784446478 0.0491964779794 0.00300000002608
v 0.00859650876373 0.0489834211767 0.0244392100722
v 0.00892784446478 0.0491964779794 0.00300000002608
v 0.00436094356701 0.0497416518629 0.0261936392635
v 0.00436094356701 0.0497416518629 0.0261936392635
v 0.00892784446478 0.0491964779794 0.00300000002608
v 0.00510886218399 0.0497383102775 0.00300000002608
v 0.00436094356701 0.0497416518629 0.0261936392635
v 0.00510886218399 0.0497383102775 0.00300000002608
v 3.68628738645e-18 0.0500000007451 0.0280000008643
v 3.68628738645e-18 0.0500000007451 0.0280000008643
v 0.00510886218399 0.0497383102775 0.00300000002608
v 1.22464676987e-17 0.0500000007451 0.00300000002608
v 3.68628738645e-18 0.0500000007451 0.0280000008643
v 1.22464676987e-17 0.0500000007451 0.00300000002608
v -0.00436094356701 0.0497416518629 0.029806362465
v -0.00436094356701 0.0497416518629 0.029806362465
v 1.22464676987e-17 0.0500000007451 0.00300000002608
v -0.00510886218399 0.0497383102775 0.00300000002608
v -0.00436094356701 0.0497416518629 0.029806362465
v -0.00510886218399 0.0497383102775 0.00300000002608
v -0.00859650876373 0.0489834211767 0.0315607897937
v -0.00859650876373 0.0489834211767 0.0315607897937
v -0.00510886218399 0.0497383102775 0.00300000002608
v -0.00892784446478 0.0491964779794 0.00300000002608
v -0.00859650876373 0.0489834211767 0.0315607897937
v -0.00892784446478 0.0491964779794 0.00300000002608
v -0.0126851741225 0.0477505140007 0.0332543700933
v -0.0126851741225 0.0477505140007 0.0332543700933
v -0.00892784446478 0.0491964779794 0.00300000002608
v -0.0148590002209 0.047741074115 0.00300000002608
v -0.0126851741225 0.0477505140007 0.0332543700933
v -0.0148590002209 0.047741074115 0.00300000002608
v -0.0175687409937 0.0468117445707 0.00300000002608
v -0.030171751976 0.0353484079242 0.0404975488782
v -0.0236130841076 0.0372010618448 0.0766130834818
v -0.0271404087543 0.0385764576495 0.0392419248819
v -0.0271404087543 0.0385764576495 0.0392419248819
v -0.0236130841076 0.0372010618448 0.0766130834818
v -0.022483849898 0.0385764576495 0.0754838511348
v -0.0271404087543 0.0385764576495 0.0392419248819
v -0.022483849898 0.0385764576495 0.0754838511348
v -0.0238545555621 0.0414559096098 0.0378808788955
v -0.0238545555621 0.0414559096098 0.0378808788955
v -0.022483849898 0.0385764576495 0.0754838511348
v -0.0194609500468 0.0417402647436 0.0724609494209
v -0.0238545555621 0.0414559096098 0.0378808788955
v -0.0194609500468 0.0417402647436 0.0724609494209
v -0.0203357189894 0.0439615473151 0.0364233292639
v -0.0203357189894 0.0439615473151 0.0364233292639
v -0.0194609500468 0.0417402647436 0.0724609494209
v -0.0168466623873 0.0439615473151 0.0698466598988
v -0.0203357189894 0.0439615473151 0.0364233292639
v -0.0168466623873 0.0439615473151 0.0698466598988
v -0.0166054181755 0.0460681542754 0.0348781868815
v -0.0166054181755 0.0460681542754 0.0348781868815
v -0.0168466623873 0.0439615473151 0.0698466598988
v -0.0148702012375 0.0453689955175 0.0678701996803
v -0.0166054181755 0.0460681542754 0.0348781868815
v -0.0148702012375 0.0453689955175 0.0678701996803
v -0.0126851741225 0.0477505140007 0.0332543700933
v -0.0426776707172 1.08420217249e-18 0.0456776693463
v -0.0353267490864 0.00202719005756 0.0883267521858
v -0.0424571558833 0.00510916300118 0.0455863289535
v -0.0424571558833 0.00510916300118 0.0455863289535
v -0.0353267490864 0.00202719005756 0.0883267521858
v -0.0351726599038 0.00510916300118 0.0881726592779
v -0.0424571558833 0.00510916300118 0.0455863289535
v -0.0351726599038 0.00510916300118 0.0881726592779
v -0.0418099649251 0.0100714359432 0.0453182533383
v -0.0418099649251 0.0100714359432 0.0453182533383
v -0.0351726599038 0.00510916300118 0.0881726592779
v -0.0347458086908 0.00928462855518 0.0877458080649
v -0.0418099649251 0.0100714359432 0.0453182533383
v -0.0347458086908 0.00928462855518 0.0877458080649
v -0.0407576151192 0.0148616051301 0.0448823533952
v -0.0407576151192 0.0148616051301 0.0448823533952
v -0.0347458086908 0.00928462855518 0.0877458080649
v -0.0334470458329 0.0162339489907 0.086447045207
v -0.0407576151192 0.0148616051301 0.0448823533952
v -0.0334470458329 0.0162339489907 0.086447045207
v -0.0393216274679 0.0194544568658 0.0442875511944
v -0.0393216274679 0.0194544568658 0.0442875511944
v -0.0334470458329 0.0162339489907 0.086447045207
v -0.0325751043856 0.0194544568658 0.0855751037598
v -0.0393216274679 0.0194544568658 0.0442875511944
v -0.0325751043856 0.0194544568658 0.0855751037598
v -0.0375235266984 0.0238247774541 0.0435427539051
v -0.0375235266984 0.0238247774541 0.0435427539051
v -0.0325751043856 0.0194544568658 0.0855751037598
v -0.0314437188208 0.0228681433946 0.084443718195
v -0.0375235266984 0.0238247774541 0.0435427539051
v -0.0314437188208 0.0228681433946 0.084443718195
v -0.0353848338127 0.0279473513365 0.0426568761468
v -0.0353848338127 0.0279473513365 0.0426568761468
v -0.0314437188208 0.0228681433946 0.084443718195
v -0.0287611167878 0.0290704593062 0.0817611142993
v -0.0353848338127 0.0279473513365 0.0426568761468
v -0.0287611167878 0.0290704593062 0.0817611142993
v -0.0329270660877 0.0317969657481 0.0416388362646
v -0.0329270660877 0.0317969657481 0.0416388362646
v -0.0287611167878 0.0290704593062 0.0817611142993
v -0.0272776763886 0.0317969657481 0.0802776739001
v -0.0329270660877 0.0317969657481 0.0416388362646
v -0.0272776763886 0.0317969657481 0.0802776739001
v -0.030171751976 0.0353484079242 0.0404975488782
v -0.030171751976 0.0353484079242 0.0404975488782
v -0.0272776763886 0.0317969657481 0.0802776739001
v -0.0254399273545 0.0347080118954 0.0784399285913
v -0.030171751976 0.0353484079242 0.0404975488782
v -0.0254399273545 0.0347080118954 0.0784399285913
v -0.0236130841076 0.0372010618448 0.0766130834818
v 0.015180897899 0.0460681542754 0.030182717368
v 0.0137563785538 0.0460681542754 0.039243619889
v 0.0149167468771 0.0453383475542 0.0380832515657
v 0.015180897899 0.0460681542754 0.030182717368
v 0.0149167468771 0.0453383475542 0.0380832515657
v 0.018591189757 0.0439615473151 0.0278650037944
v 0.0149167468771 0.0453383475542 0.0380832515657
v 0.0168466623873 0.0439615473151 0.0361533388495
v 0.018591189757 0.0439615473151 0.0278650037944
v 0.018591189757 0.0439615473151 0.0278650037944
v 0.0168466623873 0.0439615473151 0.0361533388495
v 0.0193946678191 0.0418020784855 0.0336053334177
v 0.018591189757 0.0439615473151 0.0278650037944
v 0.0193946678191 0.0418020784855 0.0336053334177
v 0.0218081586063 0.0414559096098 0.025678679347
v 0.0218081586063 0.0414559096098 0.025678679347
v 0.0193946678191 0.0418020784855 0.0336053334177
v 0.022483849898 0.0385764576495 0.0305161513388
v 0.0218081586063 0.0414559096098 0.025678679347
v 0.022483849898 0.0385764576495 0.0305161513388
v 0.0248121283948 0.0385764576495 0.0236371122301
v 0.0248121283948 0.0385764576495 0.0236371122301
v 0.022483849898 0.0385764576495 0.0305161513388
v 0.0234997980297 0.0373443737626 0.0295002013445
v 0.0248121283948 0.0385764576495 0.0236371122301
v 0.0234997980297 0.0373443737626 0.0295002013445
v 0.0275834258646 0.0353484079242 0.0217536762357
v 0.0337647125125 0.0148616051301 0.0192352868617
v 0.0359483659267 0.0194544568658 0.0160686727613
v 0.032603174448 0.019360397011 0.0203968267888
v 0.032603174448 0.019360397011 0.0203968267888
v 0.0359483659267 0.0194544568658 0.0160686727613
v 0.0343045182526 0.0238247774541 0.0171858686954
v 0.032603174448 0.019360397011 0.0203968267888
v 0.0343045182526 0.0238247774541 0.0171858686954
v 0.0302063431591 0.0259823463857 0.0227936562151
v 0.0302063431591 0.0259823463857 0.0227936562151
v 0.0343045182526 0.0238247774541 0.0171858686954
v 0.0323492959142 0.0279473513365 0.0185146834701
v 0.0302063431591 0.0259823463857 0.0227936562151
v 0.0323492959142 0.0279473513365 0.0185146834701
v 0.029313756153 0.0279473513365 0.0236862450838
v 0.029313756153 0.0279473513365 0.0236862450838
v 0.0323492959142 0.0279473513365 0.0185146834701
v 0.0301023721695 0.0317969657481 0.0200417432934
v 0.029313756153 0.0279473513365 0.0236862450838
v 0.0301023721695 0.0317969657481 0.0200417432934
v 0.0271463915706 0.0320205800235 0.0258536096662
v 0.0271463915706 0.0320205800235 0.0258536096662
v 0.0301023721695 0.0317969657481 0.0200417432934
v 0.0275834258646 0.0353484079242 0.0217536762357
v 0.0271463915706 0.0320205800235 0.0258536096662
v 0.0275834258646 0.0353484079242 0.0217536762357
v 0.0249950978905 0.0353484079242 0.0280049033463
v 0.0249950978905 0.0353484079242 0.0280049033463
v 0.0275834258646 0.0353484079242 0.0217536762357
v 0.0234997980297 0.0373443737626 0.0295002013445
v 0.0495474897325 0.00671166321263 0.00300000002608
v 0.0489755272865 0.0100696356967 0.00300000002608
v 0.0418099649251 0.0100714359432 0.0106817455962
v 0.0418099649251 0.0100714359432 0.0106817455962
v 0.0489755272865 0.0100696356967 0.00300000002608
v 0.0407576151192 0.0148616051301 0.0111176427454
v 0.0418099649251 0.0100714359432 0.0106817455962
v 0.0407576151192 0.0148616051301 0.0111176427454
v 0.0337647125125 0.0148616051301 0.0192352868617
v 0.0337647125125 0.0148616051301 0.0192352868617
v 0.0407576151192 0.0148616051301 0.0111176427454
v 0.0393216274679 0.0194544568658 0.0117124477401
v 0.0337647125125 0.0148616051301 0.0192352868617
v 0.0393216274679 0.0194544568658 0.0117124477401
v 0.0359483659267 0.0194544568658 0.0160686727613
v 0.0359483659267 0.0194544568658 0.0160686727613
v 0.0393216274679 0.0194544568658 0.0117124477401
v 0.0375235266984 0.0238247774541 0.0124572459608
v 0.0359483659267 0.0194544568658 0.0160686727613
v 0.0375235266984 0.0238247774541 0.0124572459608
v 0.0343045182526 0.0238247774541 0.0171858686954
v 0.0343045182526 0.0238247774541 0.0171858686954
v 0.0375235266984 0.0238247774541 0.0124572459608
v 0.0353848338127 0.0279473513365 0.0133431218565
v 0.0343045182526 0.0238247774541 0.0171858686954
v 0.0353848338127 0.0279473513365 0.0133431218565
v 0.0323492959142 0.0279473513365 0.0185146834701
v 0.0323492959142 0.0279473513365 0.0185146834701
v 0.0353848338127 0.0279473513365 0.0133431218565
v 0.0329270660877 0.0317969657481 0.0143611617386
v 0.0323492959142 0.0279473513365 0.0185146834701
v 0.0329270660877 0.0317969657481 0.0143611617386
v 0.0301023721695 0.0317969657481 0.0200417432934
v 0.0301023721695 0.0317969657481 0.0200417432934
v 0.0329270660877 0.0317969657481 0.0143611617386
v 0.030171751976 0.0353484079242 0.0155024509877
v 0.0301023721695 0.0317969657481 0.0200417432934
v 0.030171751976 0.0353484079242 0.0155024509877
v 0.0275834258646 0.0353484079242 0.0217536762357
v 0.0275834258646 0.0353484079242 0.0217536762357
v 0.030171751976 0.0353484079242 0.0155024509877
v 0.0271404087543 0.0385764576495 0.016758074984
v 0.0275834258646 0.0353484079242 0.0217536762357
v 0.0271404087543 0.0385764576495 0.016758074984
v 0.0248121283948 0.0385764576495 0.0236371122301
v 0.0248121283948 0.0385764576495 0.0236371122301
v 0.0271404087543 0.0385764576495 0.016758074984
v 0.0238545555621 0.0414559096098 0.0181191191077
v 0.0248121283948 0.0385764576495 0.0236371122301
v 0.0238545555621 0.0414559096098 0.0181191191077
v 0.0218081586063 0.0414559096098 0.025678679347
v 0.0218081586063 0.0414559096098 0.025678679347
v 0.0238545555621 0.0414559096098 0.0181191191077
v 0.0203357189894 0.0439615473151 0.019576670602
v 0.0218081586063 0.0414559096098 0.025678679347
v 0.0203357189894 0.0439615473151 0.019576670602
v 0.018591189757 0.0439615473151 0.0278650037944
v 0.018591189757 0.0439615473151 0.0278650037944
v 0.0203357189894 0.0439615473151 0.019576670602
v 0.0166054181755 0.0460681542754 0.0211218111217
v 0.018591189757 0.0439615473151 0.0278650037944
v 0.0166054181755 0.0460681542754 0.0211218111217
v 0.015180897899 0.0460681542754 0.030182717368
v 0.015180897899 0.0460681542754 0.030182717368
v 0.0166054181755 0.0460681542754 0.0211218111217
v 0.0126851741225 0.0477505140007 0.0227456297725
v 0.0137563785538 0.0460681542754 0.039243619889
v -0.0148702012375 0.0453689955175 0.0678701996803
v -0.0105087421834 0.0477505140007 0.0635087415576
v -0.0126851741225 0.0477505140007 0.0332543700933
v -0.0126851741225 0.0477505140007 0.0332543700933
v -0.0105087421834 0.0477505140007 0.0635087415576
v -0.00994454603642 0.0479915700853 0.0629445463419
v -0.0126851741225 0.0477505140007 0.0332543700933
v -0.00994454603642 0.0479915700853 0.0629445463419
v -0.00859650876373 0.0489834211767 0.0315607897937
v -0.00859650876373 0.0489834211767 0.0315607897937
v -0.00994454603642 0.0479915700853 0.0629445463419
v -0.00712158065289 0.0489834211767 0.0601215809584
v -0.00859650876373 0.0489834211767 0.0315607897937
v -0.00712158065289 0.0489834211767 0.0601215809584
v -0.00436094356701 0.0497416518629 0.029806362465
v -0.00436094356701 0.0497416518629 0.029806362465
v -0.00712158065289 0.0489834211767 0.0601215809584
v -0.00478411233053 0.049545250833 0.0577841103077
v -0.00436094356701 0.0497416518629 0.029806362465
v -0.00478411233053 0.049545250833 0.0577841103077
v 3.68628738645e-18 0.0500000007451 0.0280000008643
v 3.68628738645e-18 0.0500000007451 0.0280000008643
v -0.00478411233053 0.049545250833 0.0577841103077
v -8.67361737988e-18 0.0500000007451 0.0529999993742
v 3.68628738645e-18 0.0500000007451 0.0280000008643
v -8.67361737988e-18 0.0500000007451 0.0529999993742
v 0.00436094356701 0.0497416518629 0.0261936392635
v 0.00436094356701 0.0497416518629 0.0261936392635
v -8.67361737988e-18 0.0500000007451 0.0529999993742
v 0.00519484328106 0.0494630523026 0.0478051565588
v 0.00436094356701 0.0497416518629 0.0261936392635
v 0.00519484328106 0.0494630523026 0.0478051565588
v 0.00859650876373 0.0489834211767 0.0244392100722
v 0.00859650876373 0.0489834211767 0.0244392100722
v 0.00519484328106 0.0494630523026 0.0478051565588
v 0.00712158065289 0.0489834211767 0.0458784177899
v 0.00859650876373 0.0489834211767 0.0244392100722
v 0.00712158065289 0.0489834211767 0.0458784177899
v 0.0126851741225 0.0477505140007 0.0227456297725
v 0.0126851741225 0.0477505140007 0.0227456297725
v 0.00712158065289 0.0489834211767 0.0458784177899
v 0.0101571278647 0.0479024611413 0.0428428687155
v 0.0126851741225 0.0477505140007 0.0227456297725
v 0.0101571278647 0.0479024611413 0.0428428687155
v 0.0137563785538 0.0460681542754 0.039243619889
v 0.0272776763886 -0.0317969657481 0.0257223248482
v 0.0323492959142 -0.0279473513365 0.0185146834701
v 0.0295619610697 -0.0274208337069 0.0234380401671
v 0.0295619610697 -0.0274208337069 0.0234380401671
v 0.0323492959142 -0.0279473513365 0.0185146834701
v 0.0343045182526 -0.0238247774541 0.0171858686954
v 0.0295619610697 -0.0274208337069 0.0234380401671
v 0.0343045182526 -0.0238247774541 0.0171858686954
v 0.0310855079442 -0.0238247774541 0.0219144932926
v 0.0264106467366 -0.0332270860672 0.0265893545002
v 0.0275834258646 -0.0353484079242 0.0217536762357
v 0.0272776763886 -0.0317969657481 0.0257223248482
v 0.0272776763886 -0.0317969657481 0.0257223248482
v 0.0275834258646 -0.0353484079242 0.0217536762357
v 0.0301023721695 -0.0317969657481 0.0200417432934
v 0.0272776763886 -0.0317969657481 0.0257223248482
v 0.0301023721695 -0.0317969657481 0.0200417432934
v 0.0323492959142 -0.0279473513365 0.0185146834701
v 0.0197617616504 -0.0414559096098 0.0332382395864
v 0.0248121283948 -0.0385764576495 0.0236371122301
v 0.0226468034089 -0.0383850857615 0.0303531978279
v 0.0226468034089 -0.0383850857615 0.0303531978279
v 0.0248121283948 -0.0385764576495 0.0236371122301
v 0.0275834258646 -0.0353484079242 0.0217536762357
v 0.0226468034089 -0.0383850857615 0.0303531978279
v 0.0275834258646 -0.0353484079242 0.0217536762357
v 0.0249950978905 -0.0353484079242 0.0280049033463
v 0.0249950978905 -0.0353484079242 0.0280049033463
v 0.0275834258646 -0.0353484079242 0.0217536762357
v 0.0264106467366 -0.0332270860672 0.0265893545002
v 0.0183776821941 -0.0427135713398 0.0346223153174
v 0.018591189757 -0.0439615473151 0.0278650037944
v 0.0197617616504 -0.0414559096098 0.0332382395864
v 0.0197617616504 -0.0414559096098 0.0332382395864
v 0.018591189757 -0.0439615473151 0.0278650037944
v 0.0218081586063 -0.0414559096098 0.025678679347
v 0.0197617616504 -0.0414559096098 0.0332382395864
v 0.0218081586063 -0.0414559096098 0.025678679347
v 0.0248121283948 -0.0385764576495 0.0236371122301
v 0.0136956907809 -0.0461043864489 0.0393043085933
v 0.0105087421834 -0.0477505140007 0.0424912571907
v 0.0126851741225 -0.0477505140007 0.0227456297725
v 0.0126851741225 -0.0477505140007 0.0227456297725
v 0.0105087421834 -0.0477505140007 0.0424912571907
v 0.00859650876373 -0.0489834211767 0.0244392100722
v 0.0126851741225 -0.0477505140007 0.0227456297725
v 0.00859650876373 -0.0489834211767 0.0244392100722
v 0.0133018419147 -0.0481981448829 0.00300000002608
v 0.0133018419147 -0.0481981448829 0.00300000002608
v 0.00859650876373 -0.0489834211767 0.0244392100722
v 0.0100699914619 -0.048975456506 0.00300000002608
v 0.0133018419147 -0.0481981448829 0.00300000002608
v 0.0148581601679 -0.0477413348854 0.00300000002608
v 0.0126851741225 -0.0477505140007 0.0227456297725
v 0.0126851741225 -0.0477505140007 0.0227456297725
v 0.0148581601679 -0.0477413348854 0.00300000002608
v 0.0166054181755 -0.0460681542754 0.0211218111217
v 0.0126851741225 -0.0477505140007 0.0227456297725
v 0.0166054181755 -0.0460681542754 0.0211218111217
v 0.0136956907809 -0.0461043864489 0.0393043085933
v 0.0136956907809 -0.0461043864489 0.0393043085933
v 0.0166054181755 -0.0460681542754 0.0211218111217
v 0.018591189757 -0.0439615473151 0.0278650037944
v 0.0136956907809 -0.0461043864489 0.0393043085933
v 0.018591189757 -0.0439615473151 0.0278650037944
v 0.0168466623873 -0.0439615473151 0.0361533388495
v 0.0168466623873 -0.0439615473151 0.0361533388495
v 0.018591189757 -0.0439615473151 0.0278650037944
v 0.0183776821941 -0.0427135713398 0.0346223153174
v 0.0343045182526 -0.0238247774541 0.0171858686954
v 0.0375235266984 -0.0238247774541 0.0124572459608
v 0.0343045182526 -0.0238247774541 0.0171858686954
v 0.0323492959142 -0.0279473513365 0.0185146834701
v 0.0375235266984 -0.0238247774541 0.0124572459608
v 0.0323492959142 -0.0279473513365 0.0185146834701
v 0.0353848338127 -0.0279473513365 0.0133431218565
v 0.0353848338127 -0.0279473513365 0.0133431218565
v 0.0323492959142 -0.0279473513365 0.0185146834701
v 0.0301023721695 -0.0317969657481 0.0200417432934
v 0.0353848338127 -0.0279473513365 0.0133431218565
v 0.0301023721695 -0.0317969657481 0.0200417432934
v 0.0329270660877 -0.0317969657481 0.0143611617386
v 0.0329270660877 -0.0317969657481 0.0143611617386
v 0.0329270660877 -0.0317969657481 0.0143611617386
v 0.0275834258646 -0.0353484079242 0.0217536762357
v 0.030171751976 -0.0353484079242 0.0155024509877
v 0.030171751976 -0.0353484079242 0.0155024509877
v 0.0275834258646 -0.0353484079242 0.0217536762357
v 0.0248121283948 -0.0385764576495 0.0236371122301
v 0.030171751976 -0.0353484079242 0.0155024509877
v 0.0248121283948 -0.0385764576495 0.0236371122301
v 0.0271404087543 -0.0385764576495 0.016758074984
v 0.0271404087543 -0.0385764576495 0.016758074984
v 0.0248121283948 -0.0385764576495 0.0236371122301
v 0.0218081586063 -0.0414559096098 0.025678679347
v 0.0271404087543 -0.0385764576495 0.016758074984
v 0.0218081586063 -0.0414559096098 0.025678679347
v 0.0238545555621 -0.0414559096098 0.0181191191077
v 0.0238545555621 -0.0414559096098 0.0181191191077
v 0.0238545555621 -0.0414559096098 0.0181191191077
v 0.018591189757 -0.0439615473151 0.0278650037944
v 0.0203357189894 -0.0439615473151 0.019576670602
v 0.0203357189894 -0.0439615473151 0.019576670602
v 0.018591189757 -0.0439615473151 0.0278650037944
v 0.0166054181755 -0.0460681542754 0.0211218111217
v 0.0203357189894 -0.0439615473151 0.019576670602
v 0.0166054181755 -0.0460681542754 0.0211218111217
v 0.0216941870749 -0.0450484417379 0.00300000002608
v 0.0216941870749 -0.0450484417379 0.00300000002608
v 0.0166054181755 -0.0460681542754 0.0211218111217
v 0.0194518174976 -0.0460611209273 0.00300000002608
v -0.0271404087543 -0.0385764576495 0.0392419248819
v -0.0238545555621 -0.0414559096098 0.0378808788955
v -0.0197617616504 -0.0414559096098 0.0727617591619
v -0.0197617616504 -0.0414559096098 0.0727617591619
v -0.0238545555621 -0.0414559096098 0.0378808788955
v -0.0164555907249 -0.0442576557398 0.0694555938244
v -0.0164555907249 -0.0442576557398 0.0694555938244
v -0.0238545555621 -0.0414559096098 0.0378808788955
v -0.0203357189894 -0.0439615473151 0.0364233292639
v -0.0164555907249 -0.0442576557398 0.0694555938244
v -0.0203357189894 -0.0439615473151 0.0364233292639
v -0.0137563785538 -0.0460681542754 0.066756375134
v -0.0137563785538 -0.0460681542754 0.066756375134
v -0.0203357189894 -0.0439615473151 0.0364233292639
v -0.0166054181755 -0.0460681542754 0.0348781868815
v -0.0137563785538 -0.0460681542754 0.066756375134
v -0.0166054181755 -0.0460681542754 0.0348781868815
v -0.011781129986 -0.0471523590386 0.0647811293602
v -0.011781129986 -0.0471523590386 0.0647811293602
v -0.0166054181755 -0.0460681542754 0.0348781868815
v -0.0126851741225 -0.0477505140007 0.0332543700933
v -0.011781129986 -0.0471523590386 0.0647811293602
v -0.0126851741225 -0.0477505140007 0.0332543700933
v -0.00687942048535 -0.0490523204207 0.0598794184625
v -0.00687942048535 -0.0490523204207 0.0598794184625
v -0.0126851741225 -0.0477505140007 0.0332543700933
v -0.00859650876373 -0.0489834211767 0.0315607897937
v -0.00687942048535 -0.0490523204207 0.0598794184625
v -0.00859650876373 -0.0489834211767 0.0315607897937
v -0.00173543044366 -0.0499406941235 0.054735429585
v -0.030171751976 -0.0353484079242 0.0404975488782
v -0.0256380233914 -0.034415345639 0.0786380246282
v -0.0329270660877 -0.0317969657481 0.0416388362646
v -0.0329270660877 -0.0317969657481 0.0416388362646
v -0.0256380233914 -0.034415345639 0.0786380246282
v -0.0272776763886 -0.0317969657481 0.0802776739001
v -0.0329270660877 -0.0317969657481 0.0416388362646
v -0.0272776763886 -0.0317969657481 0.0802776739001
v -0.0353848338127 -0.0279473513365 0.0426568761468
v -0.0353848338127 -0.0279473513365 0.0426568761468
v -0.0272776763886 -0.0317969657481 0.0802776739001
v -0.0289598703384 -0.0286740195006 0.0819598659873
v -0.0353848338127 -0.0279473513365 0.0426568761468
v -0.0289598703384 -0.0286740195006 0.0819598659873
v -0.0375235266984 -0.0238247774541 0.0435427539051
v -0.0197617616504 -0.0414559096098 0.0727617591619
v -0.0208190754056 -0.0404051952064 0.0738190710545
v -0.0271404087543 -0.0385764576495 0.0392419248819
v -0.0271404087543 -0.0385764576495 0.0392419248819
v -0.0208190754056 -0.0404051952064 0.0738190710545
v -0.022483849898 -0.0385764576495 0.0754838511348
v -0.0271404087543 -0.0385764576495 0.0392419248819
v -0.022483849898 -0.0385764576495 0.0754838511348
v -0.030171751976 -0.0353484079242 0.0404975488782
v -0.030171751976 -0.0353484079242 0.0404975488782
v -0.022483849898 -0.0385764576495 0.0754838511348
v -0.024777026847 -0.0356541574001 0.0777770280838
v -0.030171751976 -0.0353484079242 0.0404975488782
v -0.024777026847 -0.0356541574001 0.0777770280838
v -0.0256380233914 -0.034415345639 0.0786380246282
v -0.0133018419147 -0.0481981448829 0.00300000002608
v -0.0100699914619 -0.048975456506 0.00300000002608
v -0.00859650876373 -0.0489834211767 0.0315607897937
v -0.00859650876373 -0.0489834211767 0.0315607897937
v -0.0100699914619 -0.048975456506 0.00300000002608
v -0.00436094356701 -0.0497416518629 0.029806362465
v -0.00859650876373 -0.0489834211767 0.0315607897937
v -0.00436094356701 -0.0497416518629 0.029806362465
v -0.00173543044366 -0.0499406941235 0.054735429585
v -0.00173543044366 -0.0499406941235 0.054735429585
v -0.00436094356701 -0.0497416518629 0.029806362465
v -2.38524477947e-18 -0.0500000007451 0.0280000008643
v -0.00173543044366 -0.0499406941235 0.054735429585
v -2.38524477947e-18 -0.0500000007451 0.0280000008643
v 0.00350015354343 -0.0497575849295 0.0494998469949
v 0.00350015354343 -0.0497575849295 0.0494998469949
v -2.38524477947e-18 -0.0500000007451 0.0280000008643
v 0.00436094356701 -0.0497416518629 0.0261936392635
v 0.00350015354343 -0.0497575849295 0.0494998469949
v 0.00436094356701 -0.0497416518629 0.0261936392635
v 0.00712158065289 -0.0489834211767 0.0458784177899
v 0.00712158065289 -0.0489834211767 0.0458784177899
v 0.00436094356701 -0.0497416518629 0.0261936392635
v 0.00859650876373 -0.0489834211767 0.0244392100722
v 0.00712158065289 -0.0489834211767 0.0458784177899
v 0.00859650876373 -0.0489834211767 0.0244392100722
v 0.00870385766029 -0.0484708510339 0.0442961417139
v 0.00870385766029 -0.0484708510339 0.0442961417139
v 0.00859650876373 -0.0489834211767 0.0244392100722
v 0.0105087421834 -0.0477505140007 0.0424912571907
v 0.0487463958561 -0.0111260470003 0.00300000002608
v 0.0497383251786 -0.00510871224105 0.00300000002608
v 0.0424571558833 -0.00510916300118 0.0104136699811
v 0.0424571558833 -0.00510916300118 0.0104136699811
v 0.0497383251786 -0.00510871224105 0.00300000002608
v 0.0499496534467 -0.00224324152805 0.00300000002608
v 0.0424571558833 -0.00510916300118 0.0104136699811
v 0.0499496534467 -0.00224324152805 0.00300000002608
v 0.0426776707172 -8.55164463548e-18 0.0103223305196
v 0.0426776707172 -8.55164463548e-18 0.0103223305196
v 0.0499496534467 -0.00224324152805 0.00300000002608
v 0.0500000007451 -9.18485139439e-18 0.00300000002608
v 0.0426776707172 -8.55164463548e-18 0.0103223305196
v 0.0500000007451 -9.18485139439e-18 0.00300000002608
v 0.0424571558833 0.00510916300118 0.0104136699811
v 0.0424571558833 0.00510916300118 0.0104136699811
v 0.0500000007451 -9.18485139439e-18 0.00300000002608
v 0.0497382953763 0.00510901212692 0.00300000002608
v 0.0424571558833 0.00510916300118 0.0104136699811
v 0.0497382953763 0.00510901212692 0.00300000002608
v 0.0495474897325 0.00671166321263 0.00300000002608
v -0.0495474897325 0.00671166321263 0.00300000002608
v -0.0500000007451 1.53080856573e-17 0.00300000002608
v -0.0426776707172 1.08420217249e-18 0.0456776693463
v -0.0426776707172 1.08420217249e-18 0.0456776693463
v -0.0500000007451 1.53080856573e-17 0.00300000002608
v -0.0499496534467 -0.00224324152805 0.00300000002608
v -0.0426776707172 1.08420217249e-18 0.0456776693463
v -0.0499496534467 -0.00224324152805 0.00300000002608
v -0.0424571558833 -0.00510916300118 0.0455863289535
v -0.0424571558833 -0.00510916300118 0.0455863289535
v -0.0499496534467 -0.00224324152805 0.00300000002608
v -0.0497383251786 -0.00510871224105 0.00300000002608
v -0.0424571558833 -0.00510916300118 0.0455863289535
v -0.0497383251786 -0.00510871224105 0.00300000002608
v -0.0418099649251 -0.0100714359432 0.0453182533383
v -0.0418099649251 -0.0100714359432 0.0453182533383
v -0.0497383251786 -0.00510871224105 0.00300000002608
v -0.0487463958561 -0.0111260470003 0.00300000002608
v -0.0418099649251 -0.0100714359432 0.0453182533383
v -0.0487463958561 -0.0111260470003 0.00300000002608
v -0.0407576151192 -0.0148616051301 0.0448823533952
v -0.0407576151192 -0.0148616051301 0.0448823533952
v -0.0487463958561 -0.0111260470003 0.00300000002608
v -0.0477412045002 -0.0148585801944 0.00300000002608
v -0.0407576151192 -0.0148616051301 0.0448823533952
v -0.0477412045002 -0.0148585801944 0.00300000002608
v -0.0393216274679 -0.0194544568658 0.0442875511944
v -0.0393216274679 -0.0194544568658 0.0442875511944
v -0.0477412045002 -0.0148585801944 0.00300000002608
v -0.0459763891995 -0.0196512509137 0.00300000002608
v -0.0393216274679 -0.0194544568658 0.0442875511944
v -0.0459763891995 -0.0196512509137 0.00300000002608
v -0.0375235266984 -0.0238247774541 0.0435427539051
v -0.0375235266984 -0.0238247774541 0.0435427539051
v -0.0459763891995 -0.0196512509137 0.00300000002608
v -0.043959453702 -0.0238236505538 0.00300000002608
v -0.0375235266984 -0.0238247774541 0.0435427539051
v -0.043959453702 -0.0238236505538 0.00300000002608
v -0.0353848338127 -0.0279473513365 0.0426568761468
v -0.0353848338127 -0.0279473513365 0.0426568761468
v -0.043959453702 -0.0238236505538 0.00300000002608
v -0.0417286641896 -0.0275448486209 0.00300000002608
v -0.0353848338127 -0.0279473513365 0.0426568761468
v -0.0417286641896 -0.0275448486209 0.00300000002608
v -0.0329270660877 -0.0317969657481 0.0416388362646
v -0.0329270660877 -0.0317969657481 0.0416388362646
v -0.0417286641896 -0.0275448486209 0.00300000002608
v -0.038582790643 -0.0318020172417 0.00300000002608
v -0.0329270660877 -0.0317969657481 0.0416388362646
v -0.038582790643 -0.0318020172417 0.00300000002608
v -0.030171751976 -0.0353484079242 0.0404975488782
v -0.030171751976 -0.0353484079242 0.0404975488782
v -0.038582790643 -0.0318020172417 0.00300000002608
v -0.03613974154 -0.0345531329513 0.00300000002608
v -0.030171751976 -0.0353484079242 0.0404975488782
v -0.03613974154 -0.0345531329513 0.00300000002608
v -0.0271404087543 -0.0385764576495 0.0392419248819
v -0.0271404087543 -0.0385764576495 0.0392419248819
v -0.03613974154 -0.0345531329513 0.00300000002608
v -0.0318022966385 -0.038582559675 0.00300000002608
v -0.0271404087543 -0.0385764576495 0.0392419248819
v -0.0318022966385 -0.038582559675 0.00300000002608
v -0.0238545555621 -0.0414559096098 0.0378808788955
v -0.0238545555621 -0.0414559096098 0.0378808788955
v -0.0318022966385 -0.038582559675 0.00300000002608
v -0.0293892621994 -0.040450848639 0.00300000002608
v -0.0238545555621 -0.0414559096098 0.0378808788955
v -0.0293892621994 -0.040450848639 0.00300000002608
v -0.0203357189894 -0.0439615473151 0.0364233292639
v -0.0203357189894 -0.0439615473151 0.0364233292639
v -0.0293892621994 -0.040450848639 0.00300000002608
v -0.0238235574216 -0.043959505856 0.00300000002608
v -0.0203357189894 -0.0439615473151 0.0364233292639
v -0.0238235574216 -0.043959505856 0.00300000002608
v -0.0216941870749 -0.0450484417379 0.00300000002608
v 0.0342756211758 0.0123004401103 0.018724380061
v 0.0351726599038 0.00510916300118 0.0178273394704
v 0.0424571558833 0.00510916300118 0.0104136699811
v 0.0424571558833 0.00510916300118 0.0104136699811
v 0.0351726599038 0.00510916300118 0.0178273394704
v 0.0351845473051 0.00494100851938 0.017815452069
v 0.0424571558833 0.00510916300118 0.0104136699811
v 0.0351845473051 0.00494100851938 0.017815452069
v 0.0426776707172 -8.55164463548e-18 0.0103223305196
v 0.0426776707172 -8.55164463548e-18 0.0103223305196
v 0.0426776707172 -8.55164463548e-18 0.0103223305196
v 0.0353553406894 -1.84314369323e-18 0.0176446605474
v 0.0424571558833 -0.00510916300118 0.0104136699811
v 0.0424571558833 -0.00510916300118 0.0104136699811
v 0.0353553406894 -1.84314369323e-18 0.0176446605474
v 0.0349765717983 -0.00733786774799 0.0180234275758
v 0.0424571558833 -0.00510916300118 0.0104136699811
v 0.0349765717983 -0.00733786774799 0.0180234275758
v 0.0418099649251 -0.0100714359432 0.0106817455962
v 0.0418099649251 -0.0100714359432 0.0106817455962
v 0.0349765717983 -0.00733786774799 0.0180234275758
v 0.0346365086734 -0.0100714359432 0.0183634925634
v 0.0418099649251 -0.0100714359432 0.0106817455962
v 0.0346365086734 -0.0100714359432 0.0183634925634
v 0.0407576151192 -0.0148616051301 0.0111176427454
v 0.0407576151192 -0.0148616051301 0.0111176427454
v 0.0346365086734 -0.0100714359432 0.0183634925634
v 0.0338739231229 -0.0143560133874 0.0191260781139
v 0.0407576151192 -0.0148616051301 0.0111176427454
v 0.0338739231229 -0.0143560133874 0.0191260781139
v 0.0393216274679 -0.0194544568658 0.0117124477401
v 0.0393216274679 -0.0194544568658 0.0117124477401
v 0.0338739231229 -0.0143560133874 0.0191260781139
v 0.0325751043856 -0.0194544568658 0.0204248968512
v 0.0393216274679 -0.0194544568658 0.0117124477401
v 0.0325751043856 -0.0194544568658 0.0204248968512
v 0.0343045182526 -0.0238247774541 0.0171858686954
v 0.0343045182526 -0.0238247774541 0.0171858686954
v 0.0325751043856 -0.0194544568658 0.0204248968512
v 0.0320616662502 -0.0210875403136 0.0209383349866
v 0.0343045182526 -0.0238247774541 0.0171858686954
v 0.0320616662502 -0.0210875403136 0.0209383349866
v 0.0310855079442 -0.0238247774541 0.0219144932926
v -0.0289598703384 -0.0286740195006 0.0819598659873
v -0.0310855079442 -0.0238247774541 0.084085509181
v -0.0375235266984 -0.0238247774541 0.0435427539051
v -0.0375235266984 -0.0238247774541 0.0435427539051
v -0.0310855079442 -0.0238247774541 0.084085509181
v -0.0316523425281 -0.0222867764533 0.0846523419023
v -0.0375235266984 -0.0238247774541 0.0435427539051
v -0.0316523425281 -0.0222867764533 0.0846523419023
v -0.0393216274679 -0.0194544568658 0.0442875511944
v -0.0393216274679 -0.0194544568658 0.0442875511944
v -0.0316523425281 -0.0222867764533 0.0846523419023
v -0.0325751043856 -0.0194544568658 0.0855751037598
v -0.0393216274679 -0.0194544568658 0.0442875511944
v -0.0325751043856 -0.0194544568658 0.0855751037598
v -0.0407576151192 -0.0148616051301 0.0448823533952
v -0.0407576151192 -0.0148616051301 0.0448823533952
v -0.0325751043856 -0.0194544568658 0.0855751037598
v -0.0336441546679 -0.0153985098004 0.0866441503167
v -0.0407576151192 -0.0148616051301 0.0448823533952
v -0.0336441546679 -0.0153985098004 0.0866441503167
v -0.0418099649251 -0.0100714359432 0.0453182533383
v -0.0418099649251 -0.0100714359432 0.0453182533383
v -0.0336441546679 -0.0153985098004 0.0866441503167
v -0.0348868183792 -0.00815262366086 0.0878868177533
v -0.0418099649251 -0.0100714359432 0.0453182533383
v -0.0348868183792 -0.00815262366086 0.0878868177533
v -0.0424571558833 -0.00510916300118 0.0455863289535
v -0.0424571558833 -0.00510916300118 0.0455863289535
v -0.0348868183792 -0.00815262366086 0.0878868177533
v -0.0351726599038 -0.00510916300118 0.0881726592779
v -0.0424571558833 -0.00510916300118 0.0455863289535
v -0.0351726599038 -0.00510916300118 0.0881726592779
v -0.0426776707172 1.08420217249e-18 0.0456776693463
v -0.0426776707172 1.08420217249e-18 0.0456776693463
v -0.0351726599038 -0.00510916300118 0.0881726592779
v -0.0353521481156 -0.000677901029121 0.0883521512151
v -0.0426776707172 1.08420217249e-18 0.0456776693463
v -0.0353521481156 -0.000677901029121 0.0883521512151
v -0.0353267490864 0.00202719005756 0.0883267521858
v 0.00892784446478 0.0491964779794 -2.60770328941e-11
v 0.00892784446478 0.0491964779794 0.00300000002608
v 0.0175687409937 0.0468117445707 -2.60770328941e-11
v 0.0175687409937 0.0468117445707 -2.60770328941e-11
v 0.00892784446478 0.0491964779794 0.00300000002608
v 0.0148590002209 0.047741074115 0.00300000002608
v 0.0148590002209 0.047741074115 0.00300000002608
v 0.0175687409937 0.0468117445707 0.00300000002608
v 0.0175687409937 0.0468117445707 -2.60770328941e-11
v 0.0175687409937 0.0468117445707 -2.60770328941e-11
v 0.0175687409937 0.0468117445707 0.00300000002608
v 0.0194511972368 0.0460613816977 0.00300000002608
v 0.0175687409937 0.0468117445707 -2.60770328941e-11
v 0.0194511972368 0.0460613816977 0.00300000002608
v 0.0256449636072 0.0429224409163 -2.60770328941e-11
v 0.0256449636072 0.0429224409163 -2.60770328941e-11
v 0.0194511972368 0.0460613816977 0.00300000002608
v 0.0238237455487 0.0439594052732 0.00300000002608
v 0.0238237455487 0.0439594052732 0.00300000002608
v 0.0256449636072 0.0429224409163 0.00300000002608
v 0.0256449636072 0.0429224409163 -2.60770328941e-11
v 0.0256449636072 0.0429224409163 -2.60770328941e-11
v 0.0256449636072 0.0429224409163 0.00300000002608
v 0.0279494281858 0.0414587669075 0.00300000002608
v 0.0256449636072 0.0429224409163 -2.60770328941e-11
v 0.0279494281858 0.0414587669075 0.00300000002608
v 0.0328969359398 0.0376535728574 -2.60770328941e-11
v 0.0328969359398 0.0376535728574 -2.60770328941e-11
v 0.0279494281858 0.0414587669075 0.00300000002608
v 0.0318017341197 0.038583021611 0.00300000002608
v 0.0318017341197 0.038583021611 0.00300000002608
v 0.0328969359398 0.0376535728574 0.00300000002608
v 0.0328969359398 0.0376535728574 -2.60770328941e-11
v 0.0328969359398 0.0376535728574 -2.60770328941e-11
v 0.0328969359398 0.0376535728574 0.00300000002608
v 0.0353554934263 0.0353551842272 0.00300000002608
v 0.0328969359398 0.0376535728574 -2.60770328941e-11
v 0.0353554934263 0.0353551842272 0.00300000002608
v 0.0390915758908 0.0311744902283 -2.60770328941e-11
v 0.0353554934263 0.0353551842272 0.00300000002608
v 0.0390915758908 0.0311744902283 0.00300000002608
v 0.0390915758908 0.0311744902283 -2.60770328941e-11
v 0.0390915758908 0.0311744902283 -2.60770328941e-11
v 0.0390915758908 0.0311744902283 0.00300000002608
v 0.0414588563144 0.027949295938 0.00300000002608
v 0.0390915758908 0.0311744902283 -2.60770328941e-11
v 0.0414588563144 0.027949295938 0.00300000002608
v 0.0440297760069 0.0236934330314 -2.60770328941e-11
v 0.0440297760069 0.0236934330314 -2.60770328941e-11
v 0.0414588563144 0.027949295938 0.00300000002608
v 0.0440297760069 0.0236934330314 0.00300000002608
v 0.0440297760069 0.0236934330314 -2.60770328941e-11
v 0.0440297760069 0.0236934330314 0.00300000002608
v 0.0475528240204 0.0154508501291 -2.60770328941e-11
v 0.0440297760069 0.0236934330314 0.00300000002608
v 0.0460612513125 0.0194515082985 0.00300000002608
v 0.0475528240204 0.0154508501291 -2.60770328941e-11
v 0.0475528240204 0.0154508501291 -2.60770328941e-11
v 0.0460612513125 0.0194515082985 0.00300000002608
v 0.0475528240204 0.0154508501291 0.00300000002608
v 0.0475528240204 0.0154508501291 -2.60770328941e-11
v 0.0475528240204 0.0154508501291 0.00300000002608
v 0.0495474897325 0.00671166321263 -2.60770328941e-11
v 0.0495474897325 0.00671166321263 -2.60770328941e-11
v 0.0475528240204 0.0154508501291 0.00300000002608
v 0.0489755272865 0.0100696356967 0.00300000002608
v 0.0489755272865 0.0100696356967 0.00300000002608
v 0.0495474897325 0.00671166321263 0.00300000002608
v 0.0495474897325 0.00671166321263 -2.60770328941e-11
v 0.0495474897325 0.00671166321263 -2.60770328941e-11
v 0.0495474897325 0.00671166321263 0.00300000002608
v 0.0497382953763 0.00510901212692 0.00300000002608
v 0.0495474897325 0.00671166321263 -2.60770328941e-11
v 0.0497382953763 0.00510901212692 0.00300000002608
v 0.0499496534467 -0.00224324152805 -2.60770328941e-11
v 0.0499496534467 -0.00224324152805 -2.60770328941e-11
v 0.0497382953763 0.00510901212692 0.00300000002608
v 0.0500000007451 -9.18485139439e-18 0.00300000002608
v 0.0500000007451 -9.18485139439e-18 0.00300000002608
v 0.0499496534467 -0.00224324152805 0.00300000002608
v 0.0499496534467 -0.00224324152805 -2.60770328941e-11
v 0.0499496534467 -0.00224324152805 -2.60770328941e-11
v 0.0499496534467 -0.00224324152805 0.00300000002608
v 0.0497383251786 -0.00510871224105 0.00300000002608
v 0.0499496534467 -0.00224324152805 -2.60770328941e-11
v 0.0497383251786 -0.00510871224105 0.00300000002608
v 0.0487463958561 -0.0111260470003 -2.60770328941e-11
v 0.0497383251786 -0.00510871224105 0.00300000002608
v 0.0487463958561 -0.0111260470003 0.00300000002608
v 0.0487463958561 -0.0111260470003 -2.60770328941e-11
v 0.0487463958561 -0.0111260470003 -2.60770328941e-11
v 0.0487463958561 -0.0111260470003 0.00300000002608
v 0.0477412045002 -0.0148585801944 0.00300000002608
v 0.0487463958561 -0.0111260470003 -2.60770328941e-11
v 0.0477412045002 -0.0148585801944 0.00300000002608
v 0.0459763891995 -0.0196512509137 -2.60770328941e-11
v 0.0459763891995 -0.0196512509137 -2.60770328941e-11
v 0.0477412045002 -0.0148585801944 0.00300000002608
v 0.0459763891995 -0.0196512509137 0.00300000002608
v 0.0459763891995 -0.0196512509137 -2.60770328941e-11
v 0.0459763891995 -0.0196512509137 0.00300000002608
v 0.0417286641896 -0.0275448486209 -2.60770328941e-11
v 0.0459763891995 -0.0196512509137 0.00300000002608
v 0.043959453702 -0.0238236505538 0.00300000002608
v 0.0417286641896 -0.0275448486209 -2.60770328941e-11
v 0.0417286641896 -0.0275448486209 -2.60770328941e-11
v 0.043959453702 -0.0238236505538 0.00300000002608
v 0.0417286641896 -0.0275448486209 0.00300000002608
v 0.0417286641896 -0.0275448486209 -2.60770328941e-11
v 0.0417286641896 -0.0275448486209 0.00300000002608
v 0.03613974154 -0.0345531329513 -2.60770328941e-11
v 0.0417286641896 -0.0275448486209 0.00300000002608
v 0.038582790643 -0.0318020172417 0.00300000002608
v 0.03613974154 -0.0345531329513 -2.60770328941e-11
v 0.03613974154 -0.0345531329513 -2.60770328941e-11
v 0.038582790643 -0.0318020172417 0.00300000002608
v 0.03613974154 -0.0345531329513 0.00300000002608
v 0.03613974154 -0.0345531329513 -2.60770328941e-11
v 0.03613974154 -0.0345531329513 0.00300000002608
v 0.0293892621994 -0.040450848639 -2.60770328941e-11
v 0.0293892621994 -0.040450848639 -2.60770328941e-11
v 0.03613974154 -0.0345531329513 0.00300000002608
v 0.0318022966385 -0.038582559675 0.00300000002608
v 0.0318022966385 -0.038582559675 0.00300000002608
v 0.0293892621994 -0.040450848639 0.00300000002608
v 0.0293892621994 -0.040450848639 -2.60770328941e-11
v 0.0293892621994 -0.040450848639 -2.60770328941e-11
v 0.0293892621994 -0.040450848639 0.00300000002608
v 0.0279491655529 -0.0414589457214 0.00300000002608
v 0.0293892621994 -0.040450848639 -2.60770328941e-11
v 0.0279491655529 -0.0414589457214 0.00300000002608
v 0.0216941870749 -0.0450484417379 -2.60770328941e-11
v 0.0216941870749 -0.0450484417379 -2.60770328941e-11
v 0.0279491655529 -0.0414589457214 0.00300000002608
v 0.0238235574216 -0.043959505856 0.00300000002608
v 0.0238235574216 -0.043959505856 0.00300000002608
v 0.0216941870749 -0.0450484417379 0.00300000002608
v 0.0216941870749 -0.0450484417379 -2.60770328941e-11
v 0.0216941870749 -0.0450484417379 -2.60770328941e-11
v 0.0216941870749 -0.0450484417379 0.00300000002608
v 0.0194518174976 -0.0460611209273 0.00300000002608
v 0.0216941870749 -0.0450484417379 -2.60770328941e-11
v 0.0194518174976 -0.0460611209273 0.00300000002608
v 0.0133018419147 -0.0481981448829 -2.60770328941e-11
v 0.0133018419147 -0.0481981448829 -2.60770328941e-11
v 0.0194518174976 -0.0460611209273 0.00300000002608
v 0.0148581601679 -0.0477413348854 0.00300000002608
v 0.0148581601679 -0.0477413348854 0.00300000002608
v 0.0133018419147 -0.0481981448829 0.00300000002608
v 0.0133018419147 -0.0481981448829 -2.60770328941e-11
v 0.0133018419147 -0.0481981448829 -2.60770328941e-11
v 0.0133018419147 -0.0481981448829 0.00300000002608
v 0.0100699914619 -0.048975456506 0.00300000002608
v 0.0133018419147 -0.0481981448829 -2.60770328941e-11
v 0.0100699914619 -0.048975456506 0.00300000002608
v 0.00448196567595 -0.0497987158597 -2.60770328941e-11
v 0.00448196567595 -0.0497987158597 -2.60770328941e-11
v 0.0100699914619 -0.048975456506 0.00300000002608
v 0.00448196567595 -0.0497987158597 0.00300000002608
v 0.00448196567595 -0.0497987158597 -2.60770328941e-11
v 0.00448196567595 -0.0497987158597 0.00300000002608
v -1.83697027888e-17 -0.0500000007451 -2.60770328941e-11
v -6.12323384934e-18 -0.0500000007451 0.00300000002608
v -1.83697027888e-17 -0.0500000007451 -2.60770328941e-11
v -0.00448196567595 -0.0497987158597 -2.60770328941e-11
v -0.00448196567595 -0.0497987158597 -2.60770328941e-11
v -0.00448196567595 -0.0497987158597 0.00300000002608
v -0.0133018419147 -0.0481981448829 -2.60770328941e-11
v -0.00448196567595 -0.0497987158597 0.00300000002608
v -0.0100699914619 -0.048975456506 0.00300000002608
v -0.0133018419147 -0.0481981448829 -2.60770328941e-11
v -0.0133018419147 -0.0481981448829 -2.60770328941e-11
v -0.0100699914619 -0.048975456506 0.00300000002608
v -0.0133018419147 -0.0481981448829 0.00300000002608
v -0.0133018419147 -0.0481981448829 -2.60770328941e-11
v -0.0133018419147 -0.0481981448829 0.00300000002608
v -0.0216941870749 -0.0450484417379 -2.60770328941e-11
v -0.0216941870749 -0.0450484417379 -2.60770328941e-11
v -0.0133018419147 -0.0481981448829 0.00300000002608
v -0.0194518174976 -0.0460611209273 0.00300000002608
v -0.0194518174976 -0.0460611209273 0.00300000002608
v -0.0216941870749 -0.0450484417379 0.00300000002608
v -0.0216941870749 -0.0450484417379 -2.60770328941e-11
v -0.0216941870749 -0.0450484417379 -2.60770328941e-11
v -0.0216941870749 -0.0450484417379 0.00300000002608
v -0.0238235574216 -0.043959505856 0.00300000002608
v -0.0216941870749 -0.0450484417379 -2.60770328941e-11
v -0.0238235574216 -0.043959505856 0.00300000002608
v -0.0293892621994 -0.040450848639 -2.60770328941e-11
v -0.0238235574216 -0.043959505856 0.00300000002608
v -0.0293892621994 -0.040450848639 0.00300000002608
v -0.0293892621994 -0.040450848639 -2.60770328941e-11
v -0.0293892621994 -0.040450848639 -2.60770328941e-11
v -0.0293892621994 -0.040450848639 0.00300000002608
v -0.0318022966385 -0.038582559675 0.00300000002608
v -0.0293892621994 -0.040450848639 -2.60770328941e-11
v -0.0318022966385 -0.038582559675 0.00300000002608
v -0.03613974154 -0.0345531329513 -2.60770328941e-11
v -0.0318022966385 -0.038582559675 0.00300000002608
v -0.03613974154 -0.0345531329513 0.00300000002608
v -0.03613974154 -0.0345531329513 -2.60770328941e-11
v -0.03613974154 -0.0345531329513 -2.60770328941e-11
v -0.03613974154 -0.0345531329513 0.00300000002608
v -0.038582790643 -0.0318020172417 0.00300000002608
v -0.03613974154 -0.0345531329513 -2.60770328941e-11
v -0.038582790643 -0.0318020172417 0.00300000002608
v -0.0417286641896 -0.0275448486209 -2.60770328941e-11
v -0.038582790643 -0.0318020172417 0.00300000002608
v -0.0417286641896 -0.0275448486209 0.00300000002608
v -0.0417286641896 -0.0275448486209 -2.60770328941e-11
v -0.0417286641896 -0.0275448486209 -2.60770328941e-11
v -0.0417286641896 -0.0275448486209 0.00300000002608
v -0.043959453702 -0.0238236505538 0.00300000002608
v -0.0417286641896 -0.0275448486209 -2.60770328941e-11
v -0.043959453702 -0.0238236505538 0.00300000002608
v -0.0459763891995 -0.0196512509137 -2.60770328941e-11
v -0.0459763891995 -0.0196512509137 -2.60770328941e-11
v -0.043959453702 -0.0238236505538 0.00300000002608
v -0.0459763891995 -0.0196512509137 0.00300000002608
v -0.0459763891995 -0.0196512509137 -2.60770328941e-11
v -0.0459763891995 -0.0196512509137 0.00300000002608
v -0.0487463958561 -0.0111260470003 -2.60770328941e-11
v -0.0459763891995 -0.0196512509137 0.00300000002608
v -0.0477412045002 -0.0148585801944 0.00300000002608
v -0.0487463958561 -0.0111260470003 -2.60770328941e-11
v -0.0487463958561 -0.0111260470003 -2.60770328941e-11
v -0.0477412045002 -0.0148585801944 0.00300000002608
v -0.0487463958561 -0.0111260470003 0.00300000002608
v -0.0487463958561 -0.0111260470003 -2.60770328941e-11
v -0.0487463958561 -0.0111260470003 0.00300000002608
v -0.0499496534467 -0.00224324152805 -2.60770328941e-11
v -0.0499496534467 -0.00224324152805 -2.60770328941e-11
v -0.0487463958561 -0.0111260470003 0.00300000002608
v -0.0497383251786 -0.00510871224105 0.00300000002608
v -0.0497383251786 -0.00510871224105 0.00300000002608
v -0.0499496534467 -0.00224324152805 0.00300000002608
v -0.0499496534467 -0.00224324152805 -2.60770328941e-11
v -0.0499496534467 -0.00224324152805 -2.60770328941e-11
v -0.0499496534467 -0.00224324152805 0.00300000002608
v -0.0500000007451 1.53080856573e-17 0.00300000002608
v -0.0499496534467 -0.00224324152805 -2.60770328941e-11
v -0.0500000007451 1.53080856573e-17 0.00300000002608
v -0.0495474897325 0.00671166321263 -2.60770328941e-11
v -0.0500000007451 1.53080856573e-17 0.00300000002608
v -0.0495474897325 0.00671166321263 0.00300000002608
v -0.0495474897325 0.00671166321263 -2.60770328941e-11
v -0.0495474897325 0.00671166321263 -2.60770328941e-11
v -0.0495474897325 0.00671166321263 0.00300000002608
v -0.0489755272865 0.0100696356967 0.00300000002608
v -0.0495474897325 0.00671166321263 -2.60770328941e-11
v -0.0489755272865 0.0100696356967 0.00300000002608
v -0.0475528240204 0.0154508501291 -2.60770328941e-11
v -0.0489755272865 0.0100696356967 0.00300000002608
v -0.0475528240204 0.0154508501291 0.00300000002608
v -0.0475528240204 0.0154508501291 -2.60770328941e-11
v -0.0475528240204 0.0154508501291 -2.60770328941e-11
v -0.0475528240204 0.0154508501291 0.00300000002608
v -0.0460612513125 0.0194515082985 0.00300000002608
v -0.0475528240204 0.0154508501291 -2.60770328941e-11
v -0.0460612513125 0.0194515082985 0.00300000002608
v -0.0440297760069 0.0236934330314 -2.60770328941e-11
v -0.0440297760069 0.0236934330314 -2.60770328941e-11
v -0.0460612513125 0.0194515082985 0.00300000002608
v -0.0440297760069 0.0236934330314 0.00300000002608
v -0.0440297760069 0.0236934330314 -2.60770328941e-11
v -0.0440297760069 0.0236934330314 0.00300000002608
v -0.0390915758908 0.0311744902283 -2.60770328941e-11
v -0.0440297760069 0.0236934330314 0.00300000002608
v -0.0414588563144 0.027949295938 0.00300000002608
v -0.0390915758908 0.0311744902283 -2.60770328941e-11
v -0.0390915758908 0.0311744902283 -2.60770328941e-11
v -0.0414588563144 0.027949295938 0.00300000002608
v -0.0390915758908 0.0311744902283 0.00300000002608
v -0.0390915758908 0.0311744902283 -2.60770328941e-11
v -0.0390915758908 0.0311744902283 0.00300000002608
v -0.0328969359398 0.0376535728574 -2.60770328941e-11
v -0.0390915758908 0.0311744902283 0.00300000002608
v -0.0353554934263 0.0353551842272 0.00300000002608
v -0.0328969359398 0.0376535728574 -2.60770328941e-11
v -0.0328969359398 0.0376535728574 -2.60770328941e-11
v -0.0353554934263 0.0353551842272 0.00300000002608
v -0.0328969359398 0.0376535728574 0.00300000002608
v -0.0328969359398 0.0376535728574 -2.60770328941e-11
v -0.0328969359398 0.0376535728574 0.00300000002608
v -0.0256449636072 0.0429224409163 -2.60770328941e-11
v -0.0256449636072 0.0429224409163 -2.60770328941e-11
v -0.0328969359398 0.0376535728574 0.00300000002608
v -0.0279494281858 0.0414587669075 0.00300000002608
v -0.0279494281858 0.0414587669075 0.00300000002608
v -0.0256449636072 0.0429224409163 0.00300000002608
v -0.0256449636072 0.0429224409163 -2.60770328941e-11
v -0.0256449636072 0.0429224409163 -2.60770328941e-11
v -0.0256449636072 0.0429224409163 0.00300000002608
v -0.0238237455487 0.0439594052732 0.00300000002608
v -0.0256449636072 0.0429224409163 -2.60770328941e-11
v -0.0238237455487 0.0439594052732 0.00300000002608
v -0.0175687409937 0.0468117445707 -2.60770328941e-11
v -0.0175687409937 0.0468117445707 -2.60770328941e-11
v -0.0238237455487 0.0439594052732 0.00300000002608
v -0.0194511972368 0.0460613816977 0.00300000002608
v -0.0194511972368 0.0460613816977 0.00300000002608
v -0.0175687409937 0.0468117445707 0.00300000002608
v -0.0175687409937 0.0468117445707 -2.60770328941e-11
v -0.0175687409937 0.0468117445707 -2.60770328941e-11
v -0.0175687409937 0.0468117445707 0.00300000002608
v -0.0148590002209 0.047741074115 0.00300000002608
v -0.0175687409937 0.0468117445707 -2.60770328941e-11
v -0.0148590002209 0.047741074115 0.00300000002608
v -0.00892784446478 0.0491964779794 -2.60770328941e-11
v -0.0148590002209 0.047741074115 0.00300000002608
v -0.00892784446478 0.0491964779794 0.00300000002608
v -0.00892784446478 0.0491964779794 -2.60770328941e-11
v -0.00892784446478 0.0491964779794 -2.60770328941e-11
v -0.00892784446478 0.0491964779794 0.00300000002608
v -0.00510886218399 0.0497383102775 0.00300000002608
v -0.00892784446478 0.0491964779794 -2.60770328941e-11
v -0.00510886218399 0.0497383102775 0.00300000002608
v 0 0.0500000007451 -2.60770328941e-11
v 0 0.0500000007451 -2.60770328941e-11
v -0.00510886218399 0.0497383102775 0.00300000002608
v 1.22464676987e-17 0.0500000007451 0.00300000002608
v 0 0.0500000007451 -2.60770328941e-11
v 1.22464676987e-17 0.0500000007451 0.00300000002608
v 0.00892784446478 0.0491964779794 -2.60770328941e-11
v 0.00892784446478 0.0491964779794 -2.60770328941e-11
v 1.22464676987e-17 0.0500000007451 0.00300000002608
v 0.00510886218399 0.0497383102775 0.00300000002608
v 0.00892784446478 0.0491964779794 -2.60770328941e-11
v 0.00510886218399 0.0497383102775 0.00300000002608
v 0.00892784446478 0.0491964779794 0.00300000002608
v 0.0133018419147 -0.0481981448829 -2.60770328941e-11
v 0.00448196567595 -0.0497987158597 -2.60770328941e-11
v 0 0 -2.60770328941e-11
v -1.83697027888e-17 -0.0500000007451 -2.60770328941e-11
v -0.00448196567595 -0.0497987158597 -2.60770328941e-11
v 0.03613974154 -0.0345531329513 -2.60770328941e-11
v 0.0293892621994 -0.040450848639 -2.60770328941e-11
v 0.0216941870749 -0.0450484417379 -2.60770328941e-11
v 0.0487463958561 -0.0111260470003 -2.60770328941e-11
v 0.0459763891995 -0.0196512509137 -2.60770328941e-11
v 0.0417286641896 -0.0275448486209 -2.60770328941e-11
v 0.0475528240204 0.0154508501291 -2.60770328941e-11
v 0.0495474897325 0.00671166321263 -2.60770328941e-11
v 0.0499496534467 -0.00224324152805 -2.60770328941e-11
v 0.0328969359398 0.0376535728574 -2.60770328941e-11
v 0.0390915758908 0.0311744902283 -2.60770328941e-11
v 0.0440297760069 0.0236934330314 -2.60770328941e-11
v 0.00892784446478 0.0491964779794 -2.60770328941e-11
v 0.0175687409937 0.0468117445707 -2.60770328941e-11
v 0.0256449636072 0.0429224409163 -2.60770328941e-11
v -0.0175687409937 0.0468117445707 -2.60770328941e-11
v -0.00892784446478 0.0491964779794 -2.60770328941e-11
v 0 0.0500000007451 -2.60770328941e-11
v -0.0390915758908 0.0311744902283 -2.60770328941e-11
v -0.0328969359398 0.0376535728574 -2.60770328941e-11
v -0.0256449636072 0.0429224409163 -2.60770328941e-11
v -0.0495474897325 0.00671166321263 -2.60770328941e-11
v -0.0475528240204 0.0154508501291 -2.60770328941e-11
v -0.0440297760069 0.0236934330314 -2.60770328941e-11
v -0.0459763891995 -0.0196512509137 -2.60770328941e-11
v -0.0487463958561 -0.0111260470003 -2.60770328941e-11
v -0.0499496534467 -0.00224324152805 -2.60770328941e-11
v -0.0293892621994 -0.040450848639 -2.60770328941e-11
v -0.03613974154 -0.0345531329513 -2.60770328941e-11
v -0.0417286641896 -0.0275448486209 -2.60770328941e-11
v -0.0133018419147 -0.0481981448829 -2.60770328941e-11
v -0.0216941870749 -0.0450484417379 -2.60770328941e-11
f 1 2 3
f 4 5 6
f 4 6 7
f 8 9 10
f 10 9 11
f 10 11 6
f 12 13 14
f 2 15 16
f 1 3 6
f 6 3 17
f 6 17 7
f 14 18 19
f 19 20 14
f 14 20 21
f 14 21 22
f 12 14 23
f 24 25 13
f 18 14 10
f 10 14 26
f 10 26 8
f 27 28 2
f 2 28 29
f 16 30 2
f 2 30 31
f 2 31 3
f 5 32 6
f 6 32 33
f 6 33 34
f 34 35 6
f 6 35 36
f 6 36 37
f 38 39 6
f 6 39 40
f 6 40 10
f 29 41 2
f 2 41 42
f 2 42 15
f 22 43 14
f 14 43 44
f 14 44 45
f 46 47 14
f 14 47 48
f 24 13 49
f 37 50 6
f 6 50 51
f 6 51 52
f 45 53 14
f 14 53 54
f 14 54 46
f 48 55 14
f 14 55 56
f 14 56 23
f 57 58 59
f 59 58 60
f 59 60 61
f 27 62 28
f 28 62 63
f 28 63 64
f 64 63 65
f 64 65 66
f 66 65 67
f 66 67 68
f 52 69 6
f 6 69 70
f 6 70 38
f 57 59 13
f 13 59 71
f 13 71 49
f 25 72 13
f 13 72 73
f 13 73 74
f 74 75 13
f 13 75 76
f 13 76 14
f 77 78 79
f 80 81 82
f 83 84 85
f 86 87 88
f 89 90 91
f 92 93 94
f 95 96 97
f 98 99 100
f 101 102 103
f 104 105 106
f 107 108 109
f 110 111 112
f 113 114 115
f 116 117 118
f 119 120 121
f 122 123 124
f 125 126 127
f 128 129 130
f 131 132 133
f 134 135 136
f 137 138 139
f 140 141 142
f 143 144 145
f 146 147 148
f 149 150 151
f 152 153 154
f 155 156 157
f 158 159 160
f 161 162 163
f 164 165 166
f 167 168 169
f 170 171 172
f 173 174 175
f 176 177 178
f 179 180 181
f 182 183 184
f 185 186 187
f 188 189 190
f 191 192 193
f 194 195 196
f 197 198 199
f 200 201 202
f 203 204 205
f 206 207 208
f 209 210 211
f 212 213 214
f 215 216 217
f 218 219 220
f 221 222 223
f 224 225 226
f 227 228 229
f 230 231 232
f 233 234 235
f 236 237 238
f 239 240 241
f 242 243 244
f 245 246 247
f 248 249 250
f 251 252 253
f 254 255 256
f 257 258 259
f 260 261 262
f 263 264 265
f 266 267 268
f 269 270 271
f 272 273 274
f 275 276 277
f 278 279 280
f 281 282 283
f 284 285 286
f 287 288 289
f 290 291 292
f 293 294 295
f 296 297 298
f 299 300 301
f 302 303 304
f 305 306 307
f 308 309 310
f 311 312 313
f 314 315 316
f 317 318 319
f 320 321 322
f 323 324 325
f 326 327 328
f 329 330 331
f 332 333 334
f 335 336 337
f 338 339 340
f 341 342 343
f 344 345 346
f 347 348 349
f 350 351 352
f 353 354 355
f 356 357 358
f 359 360 361
f 362 363 364
f 365 366 367
f 368 369 370
f 371 372 373
f 374 375 376
f 377 378 379
f 380 381 382
f 383 384 385
f 386 387 388
f 389 390 391
f 392 393 394
f 395 396 397
f 398 399 400
f 401 402 403
f 404 405 406
f 407 408 409
f 410 411 412
f 413 414 415
f 416 417 418
f 419 420 421
f 422 423 424
f 425 426 427
f 428 429 430
f 431 432 433
f 434 435 436
f 437 438 439
f 440 441 442
f 443 444 445
f 446 447 448
f 449 450 451
f 452 453 454
f 455 456 457
f 458 459 460
f 461 462 463
f 464 465 466
f 467 468 469
f 470 471 472
f 473 474 475
f 476 477 478
f 479 480 481
f 482 483 484
f 485 486 487
f 488 489 490
f 491 492 493
f 494 495 496
f 497 498 499
f 500 501 502
f 503 504 505
f 506 507 508
f 509 510 511
f 512 513 514
f 515 516 517
f 518 519 520
f 521 522 523
f 524 525 526
f 527 528 529
f 530 531 532
f 533 534 535
f 536 537 538
f 539 540 541
f 542 543 544
f 545 546 547
f 548 549 550
f 551 552 553
f 554 555 556
f 557 558 559
f 560 561 562
f 563 564 565
f 566 567 568
f 569 570 571
f 572 573 574
f 575 576 577
f 578 579 580
f 581 582 583
f 584 585 586
f 587 588 589
f 590 591 592
f 593 594 595
f 596 597 598
f 599 600 601
f 602 603 604
f 605 606 607
f 608 609 610
f 611 612 613
f 614 615 616
f 617 618 619
f 620 621 622
f 623 624 625
f 626 627 628
f 629 630 631
f 632 633 634
f 635 636 637
f 638 639 640
f 641 642 643
f 644 645 646
f 647 648 649
f 650 651 652
f 653 654 655
f 656 657 658
f 659 660 661
f 659 661 662
f 663 664 665
f 666 667 668
f 669 670 671
f 672 673 674
f 675 676 677
f 678 679 680
f 681 682 683
f 684 685 686
f 687 688 689
f 690 691 692
f 693 694 695
f 696 697 698
f 699 700 701
f 702 703 704
f 705 706 707
f 708 709 710
f 711 712 713
f 714 715 716
f 717 718 719
f 720 721 722
f 723 724 725
f 726 727 728
f 729 730 731
f 732 733 734
f 735 736 737
f 738 739 740
f 741 742 743
f 744 745 746
f 747 748 749
f 750 751 752
f 753 754 755
f 756 757 758
f 759 760 761
f 762 763 764
f 765 766 767
f 768 769 770
f 771 772 773
f 774 775 776
f 98 777 99
f 778 779 780
f 781 782 783
f 784 785 786
f 787 788 789
f 790 722 721
f 791 792 793
f 794 795 796
f 797 798 799
f 800 801 802
f 803 804 805
f 806 743 742
f 807 808 809
f 810 811 812
f 813 814 815
f 816 817 818
f 819 820 821
f 822 823 824
f 825 826 827
f 828 829 830
f 831 832 833
f 834 835 836
f 837 838 839
f 840 841 842
f 843 844 845
f 846 847 848
f 849 850 851
f 852 853 854
f 855 856 857
f 858 859 860
f 861 862 863
f 864 865 866
f 867 868 869
f 870 871 872
f 873 874 875
f 876 877 878
f 879 880 881
f 882 883 884
f 885 886 887
f 888 889 890
f 891 892 893
f 894 895 896
f 897 898 899
f 900 901 902
f 903 904 905
f 906 907 908
f 909 910 911
f 912 913 914
f 915 916 917
f 918 919 920
f 921 922 923
f 924 925 926
f 927 928 929
f 930 931 932
f 933 934 935
f 936 937 938
f 939 940 941
f 942 943 944
f 945 946 947
f 948 949 950
f 951 952 953
f 954 955 956
f 957 958 959
f 960 961 962
f 963 964 965
f 966 967 968
f 969 970 971
f 972 973 974
f 975 976 977
f 978 979 980
f 981 982 983
f 984 985 986
f 987 988 989
f 990 991 992
f 993 994 995
f 996 997 998
f 999 1000 1001
f 1002 1003 1004
f 1005 1006 1007
f 1008 1009 1010
f 1011 1012 1013
f 1014 37 36
f 1015 1016 1017
f 1018 1019 1020
f 1021 1022 1023
f 1024 1025 1026
f 1027 1028 1029
f 1030 1031 1032
f 1033 1034 1035
f 1036 1037 1038
f 1039 1040 1041
f 1042 1043 1044
f 1045 1046 1047
f 1048 1049 1050
f 1051 1052 1053
f 1054 1055 1056
f 1057 1058 1059
f 1060 1061 1062
f 1063 1064 1065
f 1066 1067 1068
f 1069 1070 1071
f 1072 1073 1074
f 1075 1076 1077
f 1078 1079 1080
f 1081 1082 1083
f 1084 1085 1086
f 1087 1088 1089
f 1090 1091 1092
f 1093 1094 1095
f 1096 1097 1098
f 1099 1100 1101
f 1102 1103 1104
f 1105 1106 1107
f 1108 1109 1110
f 1111 1112 1113
f 1114 1115 1116
f 1117 1118 1119
f 1120 1121 1122
f 1123 1124 1125
f 1126 1127 1128
f 1129 1130 1131
f 1132 1133 1134
f 1135 1136 1137
f 1138 1139 1140
f 1141 1142 1143
f 1144 1145 1146
f 1147 1148 1149
f 1150 1151 1152
f 1153 1154 1155
f 1156 1157 1158
f 1159 1160 1161
f 1162 1163 1164
f 1165 1166 1167
f 1168 1169 1170
f 1171 1172 1173
f 1174 1175 1176
f 1177 1178 1179
f 1180 1181 1182
f 1183 1184 1185
f 1186 1187 1188
f 1189 1190 1191
f 1192 1193 1194
f 1195 1196 1197
f 1198 1199 1200
f 1201 1202 1203
f 1204 1205 1206
f 1207 1208 1209
f 1210 1211 1212
f 1213 1214 1215
f 1216 1217 1218
f 1219 1220 1221
f 1222 1223 1224
f 1225 1226 1227
f 1228 1229 1230
f 1231 1232 1233
f 1234 1235 1236
f 1237 1238 1239
f 1240 1241 1242
f 1243 1244 1245
f 1246 1247 1248
f 1248 1247 1249
f 1250 209 1251
f 1251 209 211
f 1252 1253 1254
f 1255 1256 1257
f 1258 1259 1260
f 1261 1262 1263
f 1264 1265 1266
f 1267 1268 1269
f 1270 1271 1272
f 1273 1274 1275
f 1276 1277 1278
f 1279 1280 1281
f 1282 1283 1284
f 1285 1286 1287
f 1288 1289 1290
f 1291 1292 1293
f 1294 1295 1296
f 1297 1298 1299
f 1300 1301 1302
f 1303 1304 1305
f 1306 1307 1308
f 1309 1310 1311
f 1312 1313 1314
f 1315 1316 1317
f 1318 1319 1320
f 1321 1322 1323
f 1324 1325 1326
f 1327 1328 1329
f 1330 1331 1332
f 1333 1334 1335
f 1336 1337 1338
f 1339 1340 1341
f 1342 1343 1344
f 1345 1346 1347
f 1348 1349 1350
f 1351 1352 1353
f 1354 1355 1356
f 1357 1358 1359
f 1360 1361 1362
f 1363 1364 1365
f 1366 1367 1368
f 1369 1370 1371
f 1372 1373 1374
f 1375 1376 1377
f 1378 1379 1380
f 1381 1382 1383
f 1384 1385 1386
f 1387 1388 1389
f 1390 1391 1392
f 1393 1394 1395
f 1396 1397 1398
f 1399 1400 1401
f 1402 1403 1404
f 1405 1406 1407
f 1408 1409 1410
f 1411 1412 1413
f 1414 1415 1416
f 1417 1418 1419
f 1419 1418 1420
f 1419 1420 1421
f 1422 1423 1419
f 1419 1423 1424
f 1419 1424 1417
f 1425 1426 1419
f 1419 1426 1427
f 1419 1427 1422
f 1428 1429 1419
f 1419 1429 1430
f 1419 1430 1425
f 1431 1432 1419
f 1419 1432 1433
f 1419 1433 1428
f 1434 1435 1419
f 1419 1435 1436
f 1419 1436 1431
f 1437 1438 1419
f 1419 1438 1439
f 1419 1439 1434
f 1440 1441 1419
f 1419 1441 1442
f 1419 1442 1437
f 1443 1444 1419
f 1419 1444 1445
f 1419 1445 1440
f 1446 1447 1419
f 1419 1447 1448
f 1419 1448 1443
f 1449 1450 1419
f 1419 1450 1451
f 1419 1451 1446
f 1421 1452 1419
f 1419 1452 1453
f 1419 1453 1449
