v -0.0224838487978 0.0385764576495 -0.0224838514055
v -0.0208190747832 0.0404051952064 -0.0208190718029
v 0.0264106460081 0.0332270860672 0.0264106452631
v 0.0310855085905 0.0238247774541 0.0310855078454
v 0.0320616664805 0.0210875403136 0.0320616657355
v -0.0247770272151 0.0356541574001 -0.0247770298228
v 0.0295619606029 0.0274208337069 0.0295619598579
v -0.0289598702819 0.0286740195006 -0.0289598673017
v -0.0272776753569 0.0317969657481 -0.0272776742393
v 0.0234997993262 -0.0373443737626 0.0234998004438
v -0.0256380241099 0.034415345639 -0.0256380267176
v -0.0224838487978 -0.0385764576495 -0.0224838514055
v -0.0236130849729 -0.0372010618448 -0.0236130857179
v -0.0316523434452 0.0222867764533 -0.0316523441903
v 0.0183776822899 0.0427135713398 0.0183776834075
v 0.0197617620188 0.0414559096098 0.0197617612737
v 0.0272776751706 0.0317969657481 0.0272776744256
v 0.0224838504741 -0.0385764576495 0.0224838497291
v 0.0193946682366 -0.0418020784855 0.0193946674915
v 0.0168466630019 -0.0439615473151 0.0168466603942
v 0.0149167468749 -0.0453383475542 0.0149167470612
v 0.013756378281 -0.0460681542754 0.0137563784672
v -0.0194609499963 -0.0417402647436 -0.0194609507413
v -0.0351726589671 -0.00510916300118 -0.0351726597122
v -0.0353267486168 -0.00202719005756 -0.0353267530872
v -0.0310855069141 0.0238247774541 -0.0310855095218
v -0.019761762205 0.0414559096098 -0.0197617610874
v 0.00870385735254 0.0484708510339 0.00870385660748
v 0.0105087421394 0.0477505140007 0.0105087413943
v 0.0226468033614 0.0383850857615 0.0226468026163
v 0.0249950966857 0.0353484079242 0.0249950959406
v 0.0325751046574 0.0194544568658 0.0325751039124
v 0.0338739230146 0.0143560133874 0.0338739222695
v 0.0346365096523 0.0100714359432 0.0346365089072
v 0.0349765710338 0.00733786774799 0.0349765712201
v 0.0353553404244 -1.47618971199e-17 0.035355338748
v 0.0351845468263 -0.00494100851938 0.0351845479439
v 0.0293137551779 -0.0279473513365 0.0293137544328
v 0.0271463903717 -0.0320205800235 0.0271463896266
v 0.0249950966857 -0.0353484079242 0.0249950959406
v 0.013695691236 0.0461043864489 0.013695690491
v 0.0168466630019 0.0439615473151 0.0168466603942
v 0.0101571280245 -0.0479024611413 0.0101571300734
v 0.00712158055862 -0.0489834211767 0.00712158074489
v 0.0051948433458 -0.0494630523026 0.00519484213508
v -0.00712158047211 -0.0489834211767 -0.00712158214849
v -0.00994454609232 -0.0479915700853 -0.0099445477687
v -0.0105087420529 -0.0477505140007 -0.0105087427979
v -0.0347458088563 -0.00928462855518 -0.0347458096013
v 0.0351726592465 -0.00510916300118 0.0351726594328
v 0.0342756219935 -0.0123004401103 0.0342756212485
v 0.0337647116962 -0.0148616051301 0.0337647128138
v -4.40127152131e-17 -0.0500000007451 -7.450580593e-10
v -0.00478411247876 -0.049545250833 -0.00478411182684
v -0.0148702011354 -0.0453689955175 -0.0148702009491
v -0.0168466622569 -0.0439615473151 -0.0168466611393
v -0.0254399286536 -0.0347080118954 -0.0254399312613
v -0.0272776753569 -0.0317969657481 -0.0272776742393
v -0.0325751039124 -0.0194544568658 -0.0325751046574
v -0.0287611179839 -0.0290704593062 -0.0287611168663
v -0.0314437191793 -0.0228681433946 -0.0314437199244
v -0.0164555907094 0.0442576557398 -0.0164555951797
v -0.0137563780815 0.0460681542754 -0.0137563760326
v 0.00712158055862 0.0489834211767 0.00712158074489
v -0.0117811303847 0.0471523590386 -0.0117811311298
v 0.00350015349 0.0497575849295 0.00350015158079
v -0.0068794203327 0.0490523204207 -0.00687941968077
v -0.00173543047564 0.0499406941235 -0.00173543098786
v 0.0326031744585 -0.019360397011 0.0326031737135
v 0.0302063428385 -0.0259823463857 0.0302063439561
v -0.0334470458169 -0.0162339489907 -0.033447046562
v -0.0353521473614 0.000677901029121 -0.0353521518317
v -0.0351726589671 0.00510916300118 -0.0351726597122
v -0.0348868190405 0.00815262366086 -0.0348868197856
v -0.0336441553191 0.0153985098004 -0.0336441523389
v -0.0325751039124 0.0194544568658 -0.0325751046574
v 0.0220802492461 -0.0439615473151 0.041711666495
v 0.023823745831 -0.0439594052732 0.0499999996711
v 0.0194511986417 -0.0460613816977 0.0500000009882
v 0.0216941867479 0.0450484417379 0.0499999996711
v 0.0238235561702 0.043959505856 0.0499999996711
v 0.0203357187463 0.0439615473151 0.0334233293675
v 0.0148581615315 0.0477413348854 0.0500000009882
v 0.0194518163565 0.0460611209273 0.0499999996711
v 0.016605417747 0.0460681542754 0.0318781883641
v 0.0424571550123 0.00510916300118 0.0425863291761
v 0.0418099644496 0.0100714359432 0.0423182535082
v 0.0487463975561 0.0111260470003 0.0500000017291
v 0.0487463975561 0.0111260470003 0.0500000017291
v 0.0418099644496 0.0100714359432 0.0423182535082
v 0.0477412060028 0.0148585801944 0.0500000014821
v 0.0477412060028 0.0148585801944 0.0500000014821
v 0.0418099644496 0.0100714359432 0.0423182535082
v 0.0407576144624 0.0148616051301 0.0418823561277
v 0.0477412060028 0.0148585801944 0.0500000014821
v 0.0407576144624 0.0148616051301 0.0418823561277
v 0.0459763908505 0.0196512509137 0.0500000016468
v 0.0393216265526 0.0194544568658 0.0412875508256
v 0.0375235259266 0.0238247774541 0.0405427529567
v 0.040742534287 0.0238247774541 0.04527137582
v 0.040742534287 0.0238247774541 0.04527137582
v 0.0375235259266 0.0238247774541 0.0405427529567
v 0.0353848333251 0.0279473513365 0.0396568770736
v 0.040742534287 0.0238247774541 0.04527137582
v 0.0353848333251 0.0279473513365 0.0396568770736
v 0.0384203703624 0.0279473513365 0.0448284377961
v 0.0384203703624 0.0279473513365 0.0448284377961
v 0.0353848333251 0.0279473513365 0.0396568770736
v 0.0329270650435 0.0317969657481 0.0386388369053
v 0.0384203703624 0.0279473513365 0.0448284377961
v 0.0329270650435 0.0317969657481 0.0386388369053
v 0.0357517639529 0.0317969657481 0.0443194194407
v 0.0357517639529 0.0317969657481 0.0443194194407
v 0.0329270650435 0.0317969657481 0.0386388369053
v 0.0301717513714 0.0353484079242 0.0374975479921
v 0.0357517639529 0.0317969657481 0.0443194194407
v 0.0301717513714 0.0353484079242 0.0374975479921
v 0.0327600792297 0.0353484079242 0.0437487735024
v 0.0327600792297 0.0353484079242 0.0437487735024
v 0.0301717513714 0.0353484079242 0.0374975479921
v 0.0271404084394 0.0385764576495 0.0362419242278
v 0.0327600792297 0.0353484079242 0.0437487735024
v 0.0271404084394 0.0385764576495 0.0362419242278
v 0.0294686866205 0.0385764576495 0.0431209622787
v 0.0238545561651 0.0414559096098 0.0348808809879
v 0.0203357187463 0.0439615473151 0.0334233293675
v 0.0259009539184 0.0414559096098 0.0424404401649
v 0.0259009539184 0.0414559096098 0.0424404401649
v 0.0203357187463 0.0439615473151 0.0334233293675
v 0.0238235561702 0.043959505856 0.0499999996711
v 0.0259009539184 0.0414559096098 0.0424404401649
v 0.0238235561702 0.043959505856 0.0499999996711
v 0.0279491643155 0.0414589457214 0.0499999990126
v 0.0279491643155 0.0414589457214 0.0499999990126
v 0.0293892628601 0.040450848639 0.0500000003297
v 0.0259009539184 0.0414559096098 0.0424404401649
v 0.0259009539184 0.0414559096098 0.0424404401649
v 0.0293892628601 0.040450848639 0.0500000003297
v 0.0294686866205 0.0385764576495 0.0431209622787
v 0.0259009539184 0.0414559096098 0.0424404401649
v 0.0294686866205 0.0385764576495 0.0431209622787
v 0.0238545561651 0.0414559096098 0.0348808809879
v 0.0238545561651 0.0414559096098 0.0348808809879
v 0.0294686866205 0.0385764576495 0.0431209622787
v 0.0271404084394 0.0385764576495 0.0362419242278
v 0.0407576144624 0.0148616051301 0.0418823561277
v 0.0393216265526 0.0194544568658 0.0412875508256
v 0.0459763908505 0.0196512509137 0.0500000016468
v 0.0459763908505 0.0196512509137 0.0500000016468
v 0.0393216265526 0.0194544568658 0.0412875508256
v 0.040742534287 0.0238247774541 0.04527137582
v 0.0459763908505 0.0196512509137 0.0500000016468
v 0.040742534287 0.0238247774541 0.04527137582
v 0.0439594544028 0.0238236505538 0.0500000006589
v 0.0439594544028 0.0238236505538 0.0500000006589
v 0.040742534287 0.0238247774541 0.04527137582
v 0.0384203703624 0.0279473513365 0.0448284377961
v 0.0439594544028 0.0238236505538 0.0500000006589
v 0.0384203703624 0.0279473513365 0.0448284377961
v 0.0417286645165 0.0275448486209 0.0500000000004
v 0.0417286645165 0.0275448486209 0.0500000000004
v 0.0384203703624 0.0279473513365 0.0448284377961
v 0.0357517639529 0.0317969657481 0.0443194194407
v 0.0417286645165 0.0275448486209 0.0500000000004
v 0.0357517639529 0.0317969657481 0.0443194194407
v 0.0385827911457 0.0318020172417 0.0500000009882
v 0.0385827911457 0.0318020172417 0.0500000009882
v 0.0357517639529 0.0317969657481 0.0443194194407
v 0.0327600792297 0.0353484079242 0.0437487735024
v 0.0385827911457 0.0318020172417 0.0500000009882
v 0.0327600792297 0.0353484079242 0.0437487735024
v 0.0361397405107 0.0345531329513 0.0499999990126
v 0.0361397405107 0.0345531329513 0.0499999990126
v 0.0327600792297 0.0353484079242 0.0437487735024
v 0.0294686866205 0.0385764576495 0.0431209622787
v 0.0361397405107 0.0345531329513 0.0499999990126
v 0.0294686866205 0.0385764576495 0.0431209622787
v 0.0318022963779 0.038582559675 0.0500000003297
v 0.0318022963779 0.038582559675 0.0500000003297
v 0.0294686866205 0.0385764576495 0.0431209622787
v 0.0293892628601 0.040450848639 0.0500000003297
v -0.0203357194049 0.0439615473151 0.0165766696451
v -0.0216941867479 0.0450484417379 0.0499999996711
v -0.0166054184056 0.0460681542754 0.0181218119656
v -0.0166054184056 0.0460681542754 0.0181218119656
v -0.0216941867479 0.0450484417379 0.0499999996711
v -0.0194518163565 0.0460611209273 0.0499999996711
v -0.0166054184056 0.0460681542754 0.0181218119656
v -0.0194518163565 0.0460611209273 0.0499999996711
v -0.0126851734138 0.0477505140007 0.0197456279643
v -0.0126851734138 0.0477505140007 0.0197456279643
v -0.0194518163565 0.0460611209273 0.0499999996711
v -0.0133018417351 0.0481981448829 0.0500000009882
v -0.0126851734138 0.0477505140007 0.0197456279643
v -0.0133018417351 0.0481981448829 0.0500000009882
v -0.0085965082983 0.0489834211767 0.0214392088511
v 0.0100699910982 0.048975456506 0.0499999996711
v 0.00859650895685 0.0489834211767 0.0285607901614
v 0.00448196699346 0.0497987158597 0.0499999996711
v 0.00448196699346 0.0497987158597 0.0499999996711
v 0.00859650895685 0.0489834211767 0.0285607901614
v 0.00436094363505 0.0497416518629 0.0268063610792
v 0.00448196699346 0.0497987158597 0.0499999996711
v 0.00436094363505 0.0497416518629 0.0268063610792
v 0 0.0500000007451 0.0500000023053
v 0 0.0500000007451 0.0500000023053
v 0.00436094363505 0.0497416518629 0.0268063610792
v 3.46944695195e-18 0.0500000007451 0.0249999985185
v 0 0.0500000007451 0.0500000023053
v 3.46944695195e-18 0.0500000007451 0.0249999985185
v -0.00448196699346 0.0497987158597 0.0499999996711
v -0.00448196699346 0.0497987158597 0.0499999996711
v 3.46944695195e-18 0.0500000007451 0.0249999985185
v -0.00436094363505 0.0497416518629 0.0231936385919
v -0.00448196699346 0.0497987158597 0.0499999996711
v -0.00436094363505 0.0497416518629 0.0231936385919
v -0.0100699910982 0.048975456506 0.0499999996711
v -0.0126851734138 -0.0477505140007 0.0197456279643
v -0.0175687412631 -0.0468117445707 0.0500000009882
v -0.0166054184056 -0.0460681542754 0.0181218119656
v -0.0166054184056 -0.0460681542754 0.0181218119656
v -0.0175687412631 -0.0468117445707 0.0500000009882
v -0.0194511986417 -0.0460613816977 0.0500000009882
v -0.0166054184056 -0.0460681542754 0.0181218119656
v -0.0194511986417 -0.0460613816977 0.0500000009882
v -0.0203357194049 -0.0439615473151 0.0165766696451
v -0.0194511986417 -0.0460613816977 0.0500000009882
v -0.023823745831 -0.0439594052732 0.0499999996711
v -0.0203357194049 -0.0439615473151 0.0165766696451
v -0.0203357194049 -0.0439615473151 0.0165766696451
v -0.023823745831 -0.0439594052732 0.0499999996711
v -0.0256449638387 -0.0429224409163 0.0499999996711
v -0.0203357194049 -0.0439615473151 0.0165766696451
v -0.0256449638387 -0.0429224409163 0.0499999996711
v -0.0238545555065 -0.0414559096098 0.0151191200003
v -0.0238545555065 -0.0414559096098 0.0151191200003
v -0.0256449638387 -0.0429224409163 0.0499999996711
v -0.0279494277333 -0.0414587669075 0.0499999990126
v -0.0238545555065 -0.0414559096098 0.0151191200003
v -0.0279494277333 -0.0414587669075 0.0499999990126
v -0.0271404090979 -0.0385764576495 0.0137580734677
v -0.0271404090979 -0.0385764576495 0.0137580734677
v -0.0279494277333 -0.0414587669075 0.0499999990126
v -0.0328969349859 -0.0376535728574 0.0499999996711
v -0.0271404090979 -0.0385764576495 0.0137580734677
v -0.0328969349859 -0.0376535728574 0.0499999996711
v -0.0301717513714 -0.0353484079242 0.0125024490448
v -0.0301717513714 -0.0353484079242 0.0125024490448
v -0.0328969349859 -0.0376535728574 0.0499999996711
v -0.035355493027 -0.0353551842272 0.0499999990126
v -0.0301717513714 -0.0353484079242 0.0125024490448
v -0.035355493027 -0.0353551842272 0.0499999990126
v -0.0329270666899 -0.0317969657481 0.0113611630951
v -0.0329270666899 -0.0317969657481 0.0113611630951
v -0.035355493027 -0.0353551842272 0.0499999990126
v -0.039091577035 -0.0311744902283 0.0500000013175
v -0.0329270666899 -0.0317969657481 0.0113611630951
v -0.039091577035 -0.0311744902283 0.0500000013175
v -0.0353848331605 -0.0279473513365 0.0103431224329
v -0.0353848331605 -0.0279473513365 0.0103431224329
v -0.039091577035 -0.0311744902283 0.0500000013175
v -0.0414588588316 -0.027949295938 0.0500000026346
v -0.0353848331605 -0.0279473513365 0.0103431224329
v -0.0414588588316 -0.027949295938 0.0500000026346
v -0.0375235262559 -0.0238247774541 0.00945724440948
v -0.0375235262559 -0.0238247774541 0.00945724440948
v -0.0414588588316 -0.027949295938 0.0500000026346
v -0.0440297764195 -0.0236934330314 0.0500000006589
v -0.0375235262559 -0.0238247774541 0.00945724440948
v -0.0440297764195 -0.0236934330314 0.0500000006589
v -0.0393216267172 -0.0194544568658 0.00871244637602
v -0.0393216267172 -0.0194544568658 0.00871244637602
v -0.0440297764195 -0.0236934330314 0.0500000006589
v -0.0460612532007 -0.0194515082985 0.050000001976
v -0.0393216267172 -0.0194544568658 0.00871244637602
v -0.0460612532007 -0.0194515082985 0.050000001976
v -0.0407576159441 -0.0148616051301 0.00811764502515
v -0.0407576159441 -0.0148616051301 0.00811764502515
v -0.0460612532007 -0.0194515082985 0.050000001976
v -0.0475528228432 -0.0154508501291 0.0499999987656
v -0.0407576159441 -0.0148616051301 0.00811764502515
v -0.0475528228432 -0.0154508501291 0.0499999987656
v -0.0418099661166 -0.0100714359432 0.00768174519569
v -0.0418099661166 -0.0100714359432 0.00768174519569
v -0.0475528228432 -0.0154508501291 0.0499999987656
v -0.0489755289392 -0.0100696356967 0.0500000016879
v -0.0418099661166 -0.0100714359432 0.00768174519569
v -0.0489755289392 -0.0100696356967 0.0500000016879
v -0.0424571573172 -0.00510916300118 0.00741367016574
v -0.0424571573172 -0.00510916300118 0.00741367016574
v -0.0489755289392 -0.0100696356967 0.0500000016879
v -0.0495474923576 -0.00671166321263 0.050000002614
v -0.0424571573172 -0.00510916300118 0.00741367016574
v -0.0495474923576 -0.00671166321263 0.050000002614
v -0.0426776722628 1.05264737348e-17 0.00732233004248
v 0.023823745831 -0.0439594052732 0.0499999996711
v 0.0220802492461 -0.0439615473151 0.041711666495
v 0.0256449638387 -0.0429224409163 0.0499999996711
v 0.0256449638387 -0.0429224409163 0.0499999996711
v 0.0220802492461 -0.0439615473151 0.041711666495
v 0.0259009539184 -0.0414559096098 0.0424404401649
v 0.0256449638387 -0.0429224409163 0.0499999996711
v 0.0259009539184 -0.0414559096098 0.0424404401649
v 0.0279494277333 -0.0414587669075 0.0499999990126
v 0.0279494277333 -0.0414587669075 0.0499999990126
v 0.0259009539184 -0.0414559096098 0.0424404401649
v 0.0294686866205 -0.0385764576495 0.0431209622787
v 0.0279494277333 -0.0414587669075 0.0499999990126
v 0.0294686866205 -0.0385764576495 0.0431209622787
v 0.0318017333223 -0.038583021611 0.0499999996711
v 0.0337647116962 -0.0148616051301 0.0337647128138
v 0.0342756219935 -0.0123004401103 0.0342756212485
v 0.0418099644496 -0.0100714359432 0.0423182535082
v 0.0418099644496 -0.0100714359432 0.0423182535082
v 0.0342756219935 -0.0123004401103 0.0342756212485
v 0.0424571550123 -0.00510916300118 0.0425863291761
v 0.0418099644496 -0.0100714359432 0.0423182535082
v 0.0424571550123 -0.00510916300118 0.0425863291761
v 0.0495474923576 -0.00671166321263 0.050000002614
v 0.0489755289392 -0.0100696356967 0.0500000016879
v 0.0475528228432 -0.0154508501291 0.0499999987656
v 0.0407576144624 -0.0148616051301 0.0418823561277
v 0.0318017333223 -0.038583021611 0.0499999996711
v 0.0294686866205 -0.0385764576495 0.0431209622787
v 0.0328969349859 -0.0376535728574 0.0499999996711
v 0.0328969349859 -0.0376535728574 0.0499999996711
v 0.0294686866205 -0.0385764576495 0.0431209622787
v 0.0327600792297 -0.0353484079242 0.0437487735024
v 0.0328969349859 -0.0376535728574 0.0499999996711
v 0.0327600792297 -0.0353484079242 0.0437487735024
v 0.035355493027 -0.0353551842272 0.0499999990126
v 0.035355493027 -0.0353551842272 0.0499999990126
v 0.0327600792297 -0.0353484079242 0.0437487735024
v 0.0357517639529 -0.0317969657481 0.0443194194407
v 0.035355493027 -0.0353551842272 0.0499999990126
v 0.0357517639529 -0.0317969657481 0.0443194194407
v 0.039091577035 -0.0311744902283 0.0500000013175
v 0.039091577035 -0.0311744902283 0.0500000013175
v 0.0357517639529 -0.0317969657481 0.0443194194407
v 0.0384203703624 -0.0279473513365 0.0448284377961
v 0.039091577035 -0.0311744902283 0.0500000013175
v 0.0384203703624 -0.0279473513365 0.0448284377961
v 0.0414588588316 -0.027949295938 0.0500000026346
v 0.0414588588316 -0.027949295938 0.0500000026346
v 0.0384203703624 -0.0279473513365 0.0448284377961
v 0.040742534287 -0.0238247774541 0.04527137582
v 0.0414588588316 -0.027949295938 0.0500000026346
v 0.040742534287 -0.0238247774541 0.04527137582
v 0.0440297764195 -0.0236934330314 0.0500000006589
v 0.0440297764195 -0.0236934330314 0.0500000006589
v 0.040742534287 -0.0238247774541 0.04527137582
v 0.0426948900736 -0.0194544568658 0.045643776977
v 0.0440297764195 -0.0236934330314 0.0500000006589
v 0.0426948900736 -0.0194544568658 0.045643776977
v 0.0460612532007 -0.0194515082985 0.050000001976
v 0.0475528228432 -0.0154508501291 0.0499999987656
v 0.0460612532007 -0.0194515082985 0.050000001976
v 0.0407576144624 -0.0148616051301 0.0418823561277
v 0.0407576144624 -0.0148616051301 0.0418823561277
v 0.0460612532007 -0.0194515082985 0.050000001976
v 0.0426948900736 -0.0194544568658 0.045643776977
v 0.0407576144624 -0.0148616051301 0.0418823561277
v 0.0426948900736 -0.0194544568658 0.045643776977
v 0.0393216265526 -0.0194544568658 0.0412875508256
v 0.0393216265526 -0.0194544568658 0.0412875508256
v 0.0426948900736 -0.0194544568658 0.045643776977
v 0.040742534287 -0.0238247774541 0.04527137582
v 0.0393216265526 -0.0194544568658 0.0412875508256
v 0.040742534287 -0.0238247774541 0.04527137582
v 0.0375235259266 -0.0238247774541 0.0405427529567
v 0.0375235259266 -0.0238247774541 0.0405427529567
v 0.040742534287 -0.0238247774541 0.04527137582
v 0.0384203703624 -0.0279473513365 0.0448284377961
v 0.0375235259266 -0.0238247774541 0.0405427529567
v 0.0384203703624 -0.0279473513365 0.0448284377961
v 0.0353848333251 -0.0279473513365 0.0396568770736
v 0.0353848333251 -0.0279473513365 0.0396568770736
v 0.0384203703624 -0.0279473513365 0.0448284377961
v 0.0357517639529 -0.0317969657481 0.0443194194407
v 0.0353848333251 -0.0279473513365 0.0396568770736
v 0.0357517639529 -0.0317969657481 0.0443194194407
v 0.0329270650435 -0.0317969657481 0.0386388369053
v 0.0329270650435 -0.0317969657481 0.0386388369053
v 0.0357517639529 -0.0317969657481 0.0443194194407
v 0.0327600792297 -0.0353484079242 0.0437487735024
v 0.0329270650435 -0.0317969657481 0.0386388369053
v 0.0327600792297 -0.0353484079242 0.0437487735024
v 0.0301717513714 -0.0353484079242 0.0374975479921
v 0.0301717513714 -0.0353484079242 0.0374975479921
v 0.0327600792297 -0.0353484079242 0.0437487735024
v 0.0294686866205 -0.0385764576495 0.0431209622787
v 0.0301717513714 -0.0353484079242 0.0374975479921
v 0.0294686866205 -0.0385764576495 0.0431209622787
v 0.0271404084394 -0.0385764576495 0.0362419242278
v 0.0271404084394 -0.0385764576495 0.0362419242278
v 0.0294686866205 -0.0385764576495 0.0431209622787
v 0.0259009539184 -0.0414559096098 0.0424404401649
v 0.0271404084394 -0.0385764576495 0.0362419242278
v 0.0259009539184 -0.0414559096098 0.0424404401649
v 0.0238545561651 -0.0414559096098 0.0348808809879
v 0.0238545561651 -0.0414559096098 0.0348808809879
v 0.0259009539184 -0.0414559096098 0.0424404401649
v 0.0220802492461 -0.0439615473151 0.041711666495
v 0.0238545561651 -0.0414559096098 0.0348808809879
v 0.0220802492461 -0.0439615473151 0.041711666495
v 0.0203357187463 -0.0439615473151 0.0334233293675
v 0.0203357187463 -0.0439615473151 0.0334233293675
v 0.0220802492461 -0.0439615473151 0.041711666495
v 0.0194511986417 -0.0460613816977 0.0500000009882
v 0.0203357187463 -0.0439615473151 0.0334233293675
v 0.0194511986417 -0.0460613816977 0.0500000009882
v 0.016605417747 -0.0460681542754 0.0318781883641
v 0.016605417747 -0.0460681542754 0.0318781883641
v 0.0194511986417 -0.0460613816977 0.0500000009882
v 0.0175687412631 -0.0468117445707 0.0500000009882
v 0.016605417747 -0.0460681542754 0.0318781883641
v 0.0175687412631 -0.0468117445707 0.0500000009882
v 0.0126851734138 -0.0477505140007 0.0302543703897
v 0.0126851734138 -0.0477505140007 0.0302543703897
v 0.0175687412631 -0.0468117445707 0.0500000009882
v 0.0148590005172 -0.047741074115 0.0499999996711
v 0.0126851734138 -0.0477505140007 0.0302543703897
v 0.0148590005172 -0.047741074115 0.0499999996711
v 0.00859650895685 -0.0489834211767 0.0285607901614
v 0.00859650895685 -0.0489834211767 0.0285607901614
v 0.0148590005172 -0.047741074115 0.0499999996711
v 0.0089278431137 -0.0491964779794 0.0499999996711
v 0.00859650895685 -0.0489834211767 0.0285607901614
v 0.0089278431137 -0.0491964779794 0.0499999996711
v 0.00436094363505 -0.0497416518629 0.0268063610792
v 0.00436094363505 -0.0497416518629 0.0268063610792
v 0.0089278431137 -0.0491964779794 0.0499999996711
v 0.00510886448656 -0.0497383102775 0.0499999996711
v 0.00436094363505 -0.0497416518629 0.0268063610792
v 0.00510886448656 -0.0497383102775 0.0499999996711
v -6.93889390391e-18 -0.0500000007451 0.0249999985185
v -6.93889390391e-18 -0.0500000007451 0.0249999985185
v 0.00510886448656 -0.0497383102775 0.0499999996711
v -6.93889390391e-18 -0.0500000007451 0.0500000023053
v -6.93889390391e-18 -0.0500000007451 0.0249999985185
v -6.93889390391e-18 -0.0500000007451 0.0500000023053
v -0.00436094363505 -0.0497416518629 0.0231936385919
v -0.00436094363505 -0.0497416518629 0.0231936385919
v -6.93889390391e-18 -0.0500000007451 0.0500000023053
v -0.00510886448656 -0.0497383102775 0.0499999996711
v -0.00436094363505 -0.0497416518629 0.0231936385919
v -0.00510886448656 -0.0497383102775 0.0499999996711
v -0.0085965082983 -0.0489834211767 0.0214392088511
v -0.0085965082983 -0.0489834211767 0.0214392088511
v -0.00510886448656 -0.0497383102775 0.0499999996711
v -0.0089278431137 -0.0491964779794 0.0499999996711
v -0.0085965082983 -0.0489834211767 0.0214392088511
v -0.0089278431137 -0.0491964779794 0.0499999996711
v -0.0126851734138 -0.0477505140007 0.0197456279643
v -0.0126851734138 -0.0477505140007 0.0197456279643
v -0.0089278431137 -0.0491964779794 0.0499999996711
v -0.0148590005172 -0.047741074115 0.0499999996711
v -0.0126851734138 -0.0477505140007 0.0197456279643
v -0.0148590005172 -0.047741074115 0.0499999996711
v -0.0175687412631 -0.0468117445707 0.0500000009882
v -0.0301717513714 -0.0353484079242 0.0125024490448
v -0.0236130849729 -0.0372010618448 -0.0236130857179
v -0.0271404090979 -0.0385764576495 0.0137580734677
v -0.0271404090979 -0.0385764576495 0.0137580734677
v -0.0236130849729 -0.0372010618448 -0.0236130857179
v -0.0224838487978 -0.0385764576495 -0.0224838514055
v -0.0271404090979 -0.0385764576495 0.0137580734677
v -0.0224838487978 -0.0385764576495 -0.0224838514055
v -0.0238545555065 -0.0414559096098 0.0151191200003
v -0.0238545555065 -0.0414559096098 0.0151191200003
v -0.0224838487978 -0.0385764576495 -0.0224838514055
v -0.0194609499963 -0.0417402647436 -0.0194609507413
v -0.0238545555065 -0.0414559096098 0.0151191200003
v -0.0194609499963 -0.0417402647436 -0.0194609507413
v -0.0203357194049 -0.0439615473151 0.0165766696451
v -0.0203357194049 -0.0439615473151 0.0165766696451
v -0.0194609499963 -0.0417402647436 -0.0194609507413
v -0.0168466622569 -0.0439615473151 -0.0168466611393
v -0.0203357194049 -0.0439615473151 0.0165766696451
v -0.0168466622569 -0.0439615473151 -0.0168466611393
v -0.0166054184056 -0.0460681542754 0.0181218119656
v -0.0166054184056 -0.0460681542754 0.0181218119656
v -0.0168466622569 -0.0439615473151 -0.0168466611393
v -0.0148702011354 -0.0453689955175 -0.0148702009491
v -0.0166054184056 -0.0460681542754 0.0181218119656
v -0.0148702011354 -0.0453689955175 -0.0148702009491
v -0.0126851734138 -0.0477505140007 0.0197456279643
v -0.0426776722628 1.05264737348e-17 0.00732233004248
v -0.0353267486168 -0.00202719005756 -0.0353267530872
v -0.0424571573172 -0.00510916300118 0.00741367016574
v -0.0424571573172 -0.00510916300118 0.00741367016574
v -0.0353267486168 -0.00202719005756 -0.0353267530872
v -0.0351726589671 -0.00510916300118 -0.0351726597122
v -0.0424571573172 -0.00510916300118 0.00741367016574
v -0.0351726589671 -0.00510916300118 -0.0351726597122
v -0.0418099661166 -0.0100714359432 0.00768174519569
v -0.0418099661166 -0.0100714359432 0.00768174519569
v -0.0351726589671 -0.00510916300118 -0.0351726597122
v -0.0347458088563 -0.00928462855518 -0.0347458096013
v -0.0418099661166 -0.0100714359432 0.00768174519569
v -0.0347458088563 -0.00928462855518 -0.0347458096013
v -0.0407576159441 -0.0148616051301 0.00811764502515
v -0.0407576159441 -0.0148616051301 0.00811764502515
v -0.0347458088563 -0.00928462855518 -0.0347458096013
v -0.0334470458169 -0.0162339489907 -0.033447046562
v -0.0407576159441 -0.0148616051301 0.00811764502515
v -0.0334470458169 -0.0162339489907 -0.033447046562
v -0.0393216267172 -0.0194544568658 0.00871244637602
v -0.0393216267172 -0.0194544568658 0.00871244637602
v -0.0334470458169 -0.0162339489907 -0.033447046562
v -0.0325751039124 -0.0194544568658 -0.0325751046574
v -0.0393216267172 -0.0194544568658 0.00871244637602
v -0.0325751039124 -0.0194544568658 -0.0325751046574
v -0.0375235262559 -0.0238247774541 0.00945724440948
v -0.0375235262559 -0.0238247774541 0.00945724440948
v -0.0325751039124 -0.0194544568658 -0.0325751046574
v -0.0314437191793 -0.0228681433946 -0.0314437199244
v -0.0375235262559 -0.0238247774541 0.00945724440948
v -0.0314437191793 -0.0228681433946 -0.0314437199244
v -0.0353848331605 -0.0279473513365 0.0103431224329
v -0.0353848331605 -0.0279473513365 0.0103431224329
v -0.0314437191793 -0.0228681433946 -0.0314437199244
v -0.0287611179839 -0.0290704593062 -0.0287611168663
v -0.0353848331605 -0.0279473513365 0.0103431224329
v -0.0287611179839 -0.0290704593062 -0.0287611168663
v -0.0329270666899 -0.0317969657481 0.0113611630951
v -0.0329270666899 -0.0317969657481 0.0113611630951
v -0.0287611179839 -0.0290704593062 -0.0287611168663
v -0.0272776753569 -0.0317969657481 -0.0272776742393
v -0.0329270666899 -0.0317969657481 0.0113611630951
v -0.0272776753569 -0.0317969657481 -0.0272776742393
v -0.0301717513714 -0.0353484079242 0.0125024490448
v -0.0301717513714 -0.0353484079242 0.0125024490448
v -0.0272776753569 -0.0317969657481 -0.0272776742393
v -0.0254399286536 -0.0347080118954 -0.0254399312613
v -0.0301717513714 -0.0353484079242 0.0125024490448
v -0.0254399286536 -0.0347080118954 -0.0254399312613
v -0.0236130849729 -0.0372010618448 -0.0236130857179
v 0.0151808980606 -0.0460681542754 0.0228172833691
v 0.013756378281 -0.0460681542754 0.0137563784672
v 0.0149167468749 -0.0453383475542 0.0149167470612
v 0.0151808980606 -0.0460681542754 0.0228172833691
v 0.0149167468749 -0.0453383475542 0.0149167470612
v 0.0185911895637 -0.0439615473151 0.0251349961913
v 0.0149167468749 -0.0453383475542 0.0149167470612
v 0.0168466630019 -0.0439615473151 0.0168466603942
v 0.0185911895637 -0.0439615473151 0.0251349961913
v 0.0185911895637 -0.0439615473151 0.0251349961913
v 0.0168466630019 -0.0439615473151 0.0168466603942
v 0.0193946682366 -0.0418020784855 0.0193946674915
v 0.0185911895637 -0.0439615473151 0.0251349961913
v 0.0193946682366 -0.0418020784855 0.0193946674915
v 0.0218081589056 -0.0414559096098 0.0273213213171
v 0.0218081589056 -0.0414559096098 0.0273213213171
v 0.0193946682366 -0.0418020784855 0.0193946674915
v 0.0224838504741 -0.0385764576495 0.0224838497291
v 0.0218081589056 -0.0414559096098 0.0273213213171
v 0.0224838504741 -0.0385764576495 0.0224838497291
v 0.0248121282827 -0.0385764576495 0.0293628881525
v 0.0248121282827 -0.0385764576495 0.0293628881525
v 0.0224838504741 -0.0385764576495 0.0224838497291
v 0.0234997993262 -0.0373443737626 0.0234998004438
v 0.0248121282827 -0.0385764576495 0.0293628881525
v 0.0234997993262 -0.0373443737626 0.0234998004438
v 0.0275834264764 -0.0353484079242 0.0312463247868
v 0.0337647116962 -0.0148616051301 0.0337647128138
v 0.0359483660361 -0.0194544568658 0.0369313269378
v 0.0326031744585 -0.019360397011 0.0326031737135
v 0.0326031744585 -0.019360397011 0.0326031737135
v 0.0359483660361 -0.0194544568658 0.0369313269378
v 0.0343045174839 -0.0238247774541 0.0358141301758
v 0.0326031744585 -0.019360397011 0.0326031737135
v 0.0343045174839 -0.0238247774541 0.0358141301758
v 0.0302063428385 -0.0259823463857 0.0302063439561
v 0.0302063428385 -0.0259823463857 0.0302063439561
v 0.0343045174839 -0.0238247774541 0.0358141301758
v 0.0323492957939 -0.0279473513365 0.034485316845
v 0.0302063428385 -0.0259823463857 0.0302063439561
v 0.0323492957939 -0.0279473513365 0.034485316845
v 0.0293137551779 -0.0279473513365 0.0293137544328
v 0.0293137551779 -0.0279473513365 0.0293137544328
v 0.0323492957939 -0.0279473513365 0.034485316845
v 0.0301023730489 -0.0317969657481 0.032958257992
v 0.0293137551779 -0.0279473513365 0.0293137544328
v 0.0301023730489 -0.0317969657481 0.032958257992
v 0.0271463903717 -0.0320205800235 0.0271463896266
v 0.0271463903717 -0.0320205800235 0.0271463896266
v 0.0301023730489 -0.0317969657481 0.032958257992
v 0.0275834264764 -0.0353484079242 0.0312463247868
v 0.0271463903717 -0.0320205800235 0.0271463896266
v 0.0275834264764 -0.0353484079242 0.0312463247868
v 0.0249950966857 -0.0353484079242 0.0249950959406
v 0.0249950966857 -0.0353484079242 0.0249950959406
v 0.0275834264764 -0.0353484079242 0.0312463247868
v 0.0234997993262 -0.0373443737626 0.0234998004438
v 0.0495474923576 -0.00671166321263 0.050000002614
v 0.0489755289392 -0.0100696356967 0.0500000016879
v 0.0418099644496 -0.0100714359432 0.0423182535082
v 0.0418099644496 -0.0100714359432 0.0423182535082
v 0.0489755289392 -0.0100696356967 0.0500000016879
v 0.0407576144624 -0.0148616051301 0.0418823561277
v 0.0418099644496 -0.0100714359432 0.0423182535082
v 0.0407576144624 -0.0148616051301 0.0418823561277
v 0.0337647116962 -0.0148616051301 0.0337647128138
v 0.0337647116962 -0.0148616051301 0.0337647128138
v 0.0407576144624 -0.0148616051301 0.0418823561277
v 0.0393216265526 -0.0194544568658 0.0412875508256
v 0.0337647116962 -0.0148616051301 0.0337647128138
v 0.0393216265526 -0.0194544568658 0.0412875508256
v 0.0359483660361 -0.0194544568658 0.0369313269378
v 0.0359483660361 -0.0194544568658 0.0369313269378
v 0.0393216265526 -0.0194544568658 0.0412875508256
v 0.0375235259266 -0.0238247774541 0.0405427529567
v 0.0359483660361 -0.0194544568658 0.0369313269378
v 0.0375235259266 -0.0238247774541 0.0405427529567
v 0.0343045174839 -0.0238247774541 0.0358141301758
v 0.0343045174839 -0.0238247774541 0.0358141301758
v 0.0375235259266 -0.0238247774541 0.0405427529567
v 0.0353848333251 -0.0279473513365 0.0396568770736
v 0.0343045174839 -0.0238247774541 0.0358141301758
v 0.0353848333251 -0.0279473513365 0.0396568770736
v 0.0323492957939 -0.0279473513365 0.034485316845
v 0.0323492957939 -0.0279473513365 0.034485316845
v 0.0353848333251 -0.0279473513365 0.0396568770736
v 0.0329270650435 -0.0317969657481 0.0386388369053
v 0.0323492957939 -0.0279473513365 0.034485316845
v 0.0329270650435 -0.0317969657481 0.0386388369053
v 0.0301023730489 -0.0317969657481 0.032958257992
v 0.0301023730489 -0.0317969657481 0.032958257992
v 0.0329270650435 -0.0317969657481 0.0386388369053
v 0.0301717513714 -0.0353484079242 0.0374975479921
v 0.0301023730489 -0.0317969657481 0.032958257992
v 0.0301717513714 -0.0353484079242 0.0374975479921
v 0.0275834264764 -0.0353484079242 0.0312463247868
v 0.0275834264764 -0.0353484079242 0.0312463247868
v 0.0301717513714 -0.0353484079242 0.0374975479921
v 0.0271404084394 -0.0385764576495 0.0362419242278
v 0.0275834264764 -0.0353484079242 0.0312463247868
v 0.0271404084394 -0.0385764576495 0.0362419242278
v 0.0248121282827 -0.0385764576495 0.0293628881525
v 0.0248121282827 -0.0385764576495 0.0293628881525
v 0.0271404084394 -0.0385764576495 0.0362419242278
v 0.0238545561651 -0.0414559096098 0.0348808809879
v 0.0248121282827 -0.0385764576495 0.0293628881525
v 0.0238545561651 -0.0414559096098 0.0348808809879
v 0.0218081589056 -0.0414559096098 0.0273213213171
v 0.0218081589056 -0.0414559096098 0.0273213213171
v 0.0238545561651 -0.0414559096098 0.0348808809879
v 0.0203357187463 -0.0439615473151 0.0334233293675
v 0.0218081589056 -0.0414559096098 0.0273213213171
v 0.0203357187463 -0.0439615473151 0.0334233293675
v 0.0185911895637 -0.0439615473151 0.0251349961913
v 0.0185911895637 -0.0439615473151 0.0251349961913
v 0.0203357187463 -0.0439615473151 0.0334233293675
v 0.016605417747 -0.0460681542754 0.0318781883641
v 0.0185911895637 -0.0439615473151 0.0251349961913
v 0.016605417747 -0.0460681542754 0.0318781883641
v 0.0151808980606 -0.0460681542754 0.0228172833691
v 0.0151808980606 -0.0460681542754 0.0228172833691
v 0.016605417747 -0.0460681542754 0.0318781883641
v 0.0126851734138 -0.0477505140007 0.0302543703897
v 0.013756378281 -0.0460681542754 0.0137563784672
v -0.0148702011354 -0.0453689955175 -0.0148702009491
v -0.0105087420529 -0.0477505140007 -0.0105087427979
v -0.0126851734138 -0.0477505140007 0.0197456279643
v -0.0126851734138 -0.0477505140007 0.0197456279643
v -0.0105087420529 -0.0477505140007 -0.0105087427979
v -0.00994454609232 -0.0479915700853 -0.0099445477687
v -0.0126851734138 -0.0477505140007 0.0197456279643
v -0.00994454609232 -0.0479915700853 -0.0099445477687
v -0.0085965082983 -0.0489834211767 0.0214392088511
v -0.0085965082983 -0.0489834211767 0.0214392088511
v -0.00994454609232 -0.0479915700853 -0.0099445477687
v -0.00712158047211 -0.0489834211767 -0.00712158214849
v -0.0085965082983 -0.0489834211767 0.0214392088511
v -0.00712158047211 -0.0489834211767 -0.00712158214849
v -0.00436094363505 -0.0497416518629 0.0231936385919
v -0.00436094363505 -0.0497416518629 0.0231936385919
v -0.00712158047211 -0.0489834211767 -0.00712158214849
v -0.00478411247876 -0.049545250833 -0.00478411182684
v -0.00436094363505 -0.0497416518629 0.0231936385919
v -0.00478411247876 -0.049545250833 -0.00478411182684
v -6.93889390391e-18 -0.0500000007451 0.0249999985185
v -6.93889390391e-18 -0.0500000007451 0.0249999985185
v -0.00478411247876 -0.049545250833 -0.00478411182684
v -4.40127152131e-17 -0.0500000007451 -7.450580593e-10
v -6.93889390391e-18 -0.0500000007451 0.0249999985185
v -4.40127152131e-17 -0.0500000007451 -7.450580593e-10
v 0.00436094363505 -0.0497416518629 0.0268063610792
v 0.00436094363505 -0.0497416518629 0.0268063610792
v -4.40127152131e-17 -0.0500000007451 -7.450580593e-10
v 0.0051948433458 -0.0494630523026 0.00519484213508
v 0.00436094363505 -0.0497416518629 0.0268063610792
v 0.0051948433458 -0.0494630523026 0.00519484213508
v 0.00859650895685 -0.0489834211767 0.0285607901614
v 0.00859650895685 -0.0489834211767 0.0285607901614
v 0.0051948433458 -0.0494630523026 0.00519484213508
v 0.00712158055862 -0.0489834211767 0.00712158074489
v 0.00859650895685 -0.0489834211767 0.0285607901614
v 0.00712158055862 -0.0489834211767 0.00712158074489
v 0.0126851734138 -0.0477505140007 0.0302543703897
v 0.0126851734138 -0.0477505140007 0.0302543703897
v 0.00712158055862 -0.0489834211767 0.00712158074489
v 0.0101571280245 -0.0479024611413 0.0101571300734
v 0.0126851734138 -0.0477505140007 0.0302543703897
v 0.0101571280245 -0.0479024611413 0.0101571300734
v 0.013756378281 -0.0460681542754 0.0137563784672
v 0.0272776751706 0.0317969657481 0.0272776744256
v 0.0323492957939 0.0279473513365 0.034485316845
v 0.0295619606029 0.0274208337069 0.0295619598579
v 0.0295619606029 0.0274208337069 0.0295619598579
v 0.0323492957939 0.0279473513365 0.034485316845
v 0.0343045174839 0.0238247774541 0.0358141301758
v 0.0295619606029 0.0274208337069 0.0295619598579
v 0.0343045174839 0.0238247774541 0.0358141301758
v 0.0310855085905 0.0238247774541 0.0310855078454
v 0.0264106460081 0.0332270860672 0.0264106452631
v 0.0275834264764 0.0353484079242 0.0312463247868
v 0.0272776751706 0.0317969657481 0.0272776744256
v 0.0272776751706 0.0317969657481 0.0272776744256
v 0.0275834264764 0.0353484079242 0.0312463247868
v 0.0301023730489 0.0317969657481 0.032958257992
v 0.0272776751706 0.0317969657481 0.0272776744256
v 0.0301023730489 0.0317969657481 0.032958257992
v 0.0323492957939 0.0279473513365 0.034485316845
v 0.0197617620188 0.0414559096098 0.0197617612737
v 0.0248121282827 0.0385764576495 0.0293628881525
v 0.0226468033614 0.0383850857615 0.0226468026163
v 0.0226468033614 0.0383850857615 0.0226468026163
v 0.0248121282827 0.0385764576495 0.0293628881525
v 0.0275834264764 0.0353484079242 0.0312463247868
v 0.0226468033614 0.0383850857615 0.0226468026163
v 0.0275834264764 0.0353484079242 0.0312463247868
v 0.0249950966857 0.0353484079242 0.0249950959406
v 0.0249950966857 0.0353484079242 0.0249950959406
v 0.0275834264764 0.0353484079242 0.0312463247868
v 0.0264106460081 0.0332270860672 0.0264106452631
v 0.0183776822899 0.0427135713398 0.0183776834075
v 0.0185911895637 0.0439615473151 0.0251349961913
v 0.0197617620188 0.0414559096098 0.0197617612737
v 0.0197617620188 0.0414559096098 0.0197617612737
v 0.0185911895637 0.0439615473151 0.0251349961913
v 0.0218081589056 0.0414559096098 0.0273213213171
v 0.0197617620188 0.0414559096098 0.0197617612737
v 0.0218081589056 0.0414559096098 0.0273213213171
v 0.0248121282827 0.0385764576495 0.0293628881525
v 0.013695691236 0.0461043864489 0.013695690491
v 0.0105087421394 0.0477505140007 0.0105087413943
v 0.0126851734138 0.0477505140007 0.0302543703897
v 0.0126851734138 0.0477505140007 0.0302543703897
v 0.0105087421394 0.0477505140007 0.0105087413943
v 0.00859650895685 0.0489834211767 0.0285607901614
v 0.0126851734138 0.0477505140007 0.0302543703897
v 0.00859650895685 0.0489834211767 0.0285607901614
v 0.0133018417351 0.0481981448829 0.0500000009882
v 0.0133018417351 0.0481981448829 0.0500000009882
v 0.00859650895685 0.0489834211767 0.0285607901614
v 0.0100699910982 0.048975456506 0.0499999996711
v 0.0133018417351 0.0481981448829 0.0500000009882
v 0.0148581615315 0.0477413348854 0.0500000009882
v 0.0126851734138 0.0477505140007 0.0302543703897
v 0.0126851734138 0.0477505140007 0.0302543703897
v 0.0148581615315 0.0477413348854 0.0500000009882
v 0.016605417747 0.0460681542754 0.0318781883641
v 0.0126851734138 0.0477505140007 0.0302543703897
v 0.016605417747 0.0460681542754 0.0318781883641
v 0.013695691236 0.0461043864489 0.013695690491
v 0.013695691236 0.0461043864489 0.013695690491
v 0.016605417747 0.0460681542754 0.0318781883641
v 0.0185911895637 0.0439615473151 0.0251349961913
v 0.013695691236 0.0461043864489 0.013695690491
v 0.0185911895637 0.0439615473151 0.0251349961913
v 0.0168466630019 0.0439615473151 0.0168466603942
v 0.0168466630019 0.0439615473151 0.0168466603942
v 0.0185911895637 0.0439615473151 0.0251349961913
v 0.0183776822899 0.0427135713398 0.0183776834075
v 0.0343045174839 0.0238247774541 0.0358141301758
v 0.0375235259266 0.0238247774541 0.0405427529567
v 0.0343045174839 0.0238247774541 0.0358141301758
v 0.0323492957939 0.0279473513365 0.034485316845
v 0.0375235259266 0.0238247774541 0.0405427529567
v 0.0323492957939 0.0279473513365 0.034485316845
v 0.0353848333251 0.0279473513365 0.0396568770736
v 0.0353848333251 0.0279473513365 0.0396568770736
v 0.0323492957939 0.0279473513365 0.034485316845
v 0.0301023730489 0.0317969657481 0.032958257992
v 0.0353848333251 0.0279473513365 0.0396568770736
v 0.0301023730489 0.0317969657481 0.032958257992
v 0.0329270650435 0.0317969657481 0.0386388369053
v 0.0329270650435 0.0317969657481 0.0386388369053
v 0.0329270650435 0.0317969657481 0.0386388369053
v 0.0275834264764 0.0353484079242 0.0312463247868
v 0.0301717513714 0.0353484079242 0.0374975479921
v 0.0301717513714 0.0353484079242 0.0374975479921
v 0.0275834264764 0.0353484079242 0.0312463247868
v 0.0248121282827 0.0385764576495 0.0293628881525
v 0.0301717513714 0.0353484079242 0.0374975479921
v 0.0248121282827 0.0385764576495 0.0293628881525
v 0.0271404084394 0.0385764576495 0.0362419242278
v 0.0271404084394 0.0385764576495 0.0362419242278
v 0.0248121282827 0.0385764576495 0.0293628881525
v 0.0218081589056 0.0414559096098 0.0273213213171
v 0.0271404084394 0.0385764576495 0.0362419242278
v 0.0218081589056 0.0414559096098 0.0273213213171
v 0.0238545561651 0.0414559096098 0.0348808809879
v 0.0238545561651 0.0414559096098 0.0348808809879
v 0.0238545561651 0.0414559096098 0.0348808809879
v 0.0185911895637 0.0439615473151 0.0251349961913
v 0.0203357187463 0.0439615473151 0.0334233293675
v 0.0203357187463 0.0439615473151 0.0334233293675
v 0.0185911895637 0.0439615473151 0.0251349961913
v 0.016605417747 0.0460681542754 0.0318781883641
v 0.0203357187463 0.0439615473151 0.0334233293675
v 0.016605417747 0.0460681542754 0.0318781883641
v 0.0216941867479 0.0450484417379 0.0499999996711
v 0.0216941867479 0.0450484417379 0.0499999996711
v 0.016605417747 0.0460681542754 0.0318781883641
v 0.0194518163565 0.0460611209273 0.0499999996711
v -0.0271404090979 0.0385764576495 0.0137580734677
v -0.0238545555065 0.0414559096098 0.0151191200003
v -0.019761762205 0.0414559096098 -0.0197617610874
v -0.019761762205 0.0414559096098 -0.0197617610874
v -0.0238545555065 0.0414559096098 0.0151191200003
v -0.0164555907094 0.0442576557398 -0.0164555951797
v -0.0164555907094 0.0442576557398 -0.0164555951797
v -0.0238545555065 0.0414559096098 0.0151191200003
v -0.0203357194049 0.0439615473151 0.0165766696451
v -0.0164555907094 0.0442576557398 -0.0164555951797
v -0.0203357194049 0.0439615473151 0.0165766696451
v -0.0137563780815 0.0460681542754 -0.0137563760326
v -0.0137563780815 0.0460681542754 -0.0137563760326
v -0.0203357194049 0.0439615473151 0.0165766696451
v -0.0166054184056 0.0460681542754 0.0181218119656
v -0.0137563780815 0.0460681542754 -0.0137563760326
v -0.0166054184056 0.0460681542754 0.0181218119656
v -0.0117811303847 0.0471523590386 -0.0117811311298
v -0.0117811303847 0.0471523590386 -0.0117811311298
v -0.0166054184056 0.0460681542754 0.0181218119656
v -0.0126851734138 0.0477505140007 0.0197456279643
v -0.0117811303847 0.0471523590386 -0.0117811311298
v -0.0126851734138 0.0477505140007 0.0197456279643
v -0.0068794203327 0.0490523204207 -0.00687941968077
v -0.0068794203327 0.0490523204207 -0.00687941968077
v -0.0126851734138 0.0477505140007 0.0197456279643
v -0.0085965082983 0.0489834211767 0.0214392088511
v -0.0068794203327 0.0490523204207 -0.00687941968077
v -0.0085965082983 0.0489834211767 0.0214392088511
v -0.00173543047564 0.0499406941235 -0.00173543098786
v -0.0301717513714 0.0353484079242 0.0125024490448
v -0.0256380241099 0.034415345639 -0.0256380267176
v -0.0329270666899 0.0317969657481 0.0113611630951
v -0.0329270666899 0.0317969657481 0.0113611630951
v -0.0256380241099 0.034415345639 -0.0256380267176
v -0.0272776753569 0.0317969657481 -0.0272776742393
v -0.0329270666899 0.0317969657481 0.0113611630951
v -0.0272776753569 0.0317969657481 -0.0272776742393
v -0.0353848331605 0.0279473513365 0.0103431224329
v -0.0353848331605 0.0279473513365 0.0103431224329
v -0.0272776753569 0.0317969657481 -0.0272776742393
v -0.0289598702819 0.0286740195006 -0.0289598673017
v -0.0353848331605 0.0279473513365 0.0103431224329
v -0.0289598702819 0.0286740195006 -0.0289598673017
v -0.0375235262559 0.0238247774541 0.00945724440948
v -0.019761762205 0.0414559096098 -0.0197617610874
v -0.0208190747832 0.0404051952064 -0.0208190718029
v -0.0271404090979 0.0385764576495 0.0137580734677
v -0.0271404090979 0.0385764576495 0.0137580734677
v -0.0208190747832 0.0404051952064 -0.0208190718029
v -0.0224838487978 0.0385764576495 -0.0224838514055
v -0.0271404090979 0.0385764576495 0.0137580734677
v -0.0224838487978 0.0385764576495 -0.0224838514055
v -0.0301717513714 0.0353484079242 0.0125024490448
v -0.0301717513714 0.0353484079242 0.0125024490448
v -0.0224838487978 0.0385764576495 -0.0224838514055
v -0.0247770272151 0.0356541574001 -0.0247770298228
v -0.0301717513714 0.0353484079242 0.0125024490448
v -0.0247770272151 0.0356541574001 -0.0247770298228
v -0.0256380241099 0.034415345639 -0.0256380267176
v -0.0133018417351 0.0481981448829 0.0500000009882
v -0.0100699910982 0.048975456506 0.0499999996711
v -0.0085965082983 0.0489834211767 0.0214392088511
v -0.0085965082983 0.0489834211767 0.0214392088511
v -0.0100699910982 0.048975456506 0.0499999996711
v -0.00436094363505 0.0497416518629 0.0231936385919
v -0.0085965082983 0.0489834211767 0.0214392088511
v -0.00436094363505 0.0497416518629 0.0231936385919
v -0.00173543047564 0.0499406941235 -0.00173543098786
v -0.00173543047564 0.0499406941235 -0.00173543098786
v -0.00436094363505 0.0497416518629 0.0231936385919
v 3.46944695195e-18 0.0500000007451 0.0249999985185
v -0.00173543047564 0.0499406941235 -0.00173543098786
v 3.46944695195e-18 0.0500000007451 0.0249999985185
v 0.00350015349 0.0497575849295 0.00350015158079
v 0.00350015349 0.0497575849295 0.00350015158079
v 3.46944695195e-18 0.0500000007451 0.0249999985185
v 0.00436094363505 0.0497416518629 0.0268063610792
v 0.00350015349 0.0497575849295 0.00350015158079
v 0.00436094363505 0.0497416518629 0.0268063610792
v 0.00712158055862 0.0489834211767 0.00712158074489
v 0.00712158055862 0.0489834211767 0.00712158074489
v 0.00436094363505 0.0497416518629 0.0268063610792
v 0.00859650895685 0.0489834211767 0.0285607901614
v 0.00712158055862 0.0489834211767 0.00712158074489
v 0.00859650895685 0.0489834211767 0.0285607901614
v 0.00870385735254 0.0484708510339 0.00870385660748
v 0.00870385735254 0.0484708510339 0.00870385660748
v 0.00859650895685 0.0489834211767 0.0285607901614
v 0.0105087421394 0.0477505140007 0.0105087413943
v 0.0487463975561 0.0111260470003 0.0500000017291
v 0.0497383252719 0.00510871224105 0.050000000093
v 0.0424571550123 0.00510916300118 0.0425863291761
v 0.0424571550123 0.00510916300118 0.0425863291761
v 0.0497383252719 0.00510871224105 0.050000000093
v 0.0499496515563 0.00224324152805 0.0499999981071
v 0.0424571550123 0.00510916300118 0.0425863291761
v 0.0499496515563 0.00224324152805 0.0499999981071
v 0.042677670234 -1.1660778248e-17 0.0426776690233
v 0.042677670234 -1.1660778248e-17 0.0426776690233
v 0.0499496515563 0.00224324152805 0.0499999981071
v 0.0500000026778 -1.46349540478e-17 0.0500000019328
v 0.042677670234 -1.1660778248e-17 0.0426776690233
v 0.0500000026778 -1.46349540478e-17 0.0500000019328
v 0.0424571550123 -0.00510916300118 0.0425863291761
v 0.0424571550123 -0.00510916300118 0.0425863291761
v 0.0500000026778 -1.46349540478e-17 0.0500000019328
v 0.0497382945673 -0.00510901212692 0.0499999991875
v 0.0424571550123 -0.00510916300118 0.0425863291761
v 0.0497382945673 -0.00510901212692 0.0499999991875
v 0.0495474923576 -0.00671166321263 0.050000002614
v -0.0495474923576 -0.00671166321263 0.050000002614
v -0.0500000026778 -1.0317658949e-17 0.0500000019328
v -0.0426776722628 1.05264737348e-17 0.00732233004248
v -0.0426776722628 1.05264737348e-17 0.00732233004248
v -0.0500000026778 -1.0317658949e-17 0.0500000019328
v -0.0499496515563 0.00224324152805 0.0499999981071
v -0.0426776722628 1.05264737348e-17 0.00732233004248
v -0.0499496515563 0.00224324152805 0.0499999981071
v -0.0424571573172 0.00510916300118 0.00741367016574
v -0.0424571573172 0.00510916300118 0.00741367016574
v -0.0499496515563 0.00224324152805 0.0499999981071
v -0.0497383252719 0.00510871224105 0.050000000093
v -0.0424571573172 0.00510916300118 0.00741367016574
v -0.0497383252719 0.00510871224105 0.050000000093
v -0.0418099661166 0.0100714359432 0.00768174519569
v -0.0418099661166 0.0100714359432 0.00768174519569
v -0.0497383252719 0.00510871224105 0.050000000093
v -0.0487463975561 0.0111260470003 0.0500000017291
v -0.0418099661166 0.0100714359432 0.00768174519569
v -0.0487463975561 0.0111260470003 0.0500000017291
v -0.0407576159441 0.0148616051301 0.00811764502515
v -0.0407576159441 0.0148616051301 0.00811764502515
v -0.0487463975561 0.0111260470003 0.0500000017291
v -0.0477412060028 0.0148585801944 0.0500000014821
v -0.0407576159441 0.0148616051301 0.00811764502515
v -0.0477412060028 0.0148585801944 0.0500000014821
v -0.0393216267172 0.0194544568658 0.00871244637602
v -0.0393216267172 0.0194544568658 0.00871244637602
v -0.0477412060028 0.0148585801944 0.0500000014821
v -0.0459763908505 0.0196512509137 0.0500000016468
v -0.0393216267172 0.0194544568658 0.00871244637602
v -0.0459763908505 0.0196512509137 0.0500000016468
v -0.0375235262559 0.0238247774541 0.00945724440948
v -0.0375235262559 0.0238247774541 0.00945724440948
v -0.0459763908505 0.0196512509137 0.0500000016468
v -0.0439594544028 0.0238236505538 0.0500000006589
v -0.0375235262559 0.0238247774541 0.00945724440948
v -0.0439594544028 0.0238236505538 0.0500000006589
v -0.0353848331605 0.0279473513365 0.0103431224329
v -0.0353848331605 0.0279473513365 0.0103431224329
v -0.0439594544028 0.0238236505538 0.0500000006589
v -0.0417286645165 0.0275448486209 0.0500000000004
v -0.0353848331605 0.0279473513365 0.0103431224329
v -0.0417286645165 0.0275448486209 0.0500000000004
v -0.0329270666899 0.0317969657481 0.0113611630951
v -0.0329270666899 0.0317969657481 0.0113611630951
v -0.0417286645165 0.0275448486209 0.0500000000004
v -0.0385827911457 0.0318020172417 0.0500000009882
v -0.0329270666899 0.0317969657481 0.0113611630951
v -0.0385827911457 0.0318020172417 0.0500000009882
v -0.0301717513714 0.0353484079242 0.0125024490448
v -0.0301717513714 0.0353484079242 0.0125024490448
v -0.0385827911457 0.0318020172417 0.0500000009882
v -0.0361397405107 0.0345531329513 0.0499999990126
v -0.0301717513714 0.0353484079242 0.0125024490448
v -0.0361397405107 0.0345531329513 0.0499999990126
v -0.0271404090979 0.0385764576495 0.0137580734677
v -0.0271404090979 0.0385764576495 0.0137580734677
v -0.0361397405107 0.0345531329513 0.0499999990126
v -0.0318022963779 0.038582559675 0.0500000003297
v -0.0271404090979 0.0385764576495 0.0137580734677
v -0.0318022963779 0.038582559675 0.0500000003297
v -0.0238545555065 0.0414559096098 0.0151191200003
v -0.0238545555065 0.0414559096098 0.0151191200003
v -0.0318022963779 0.038582559675 0.0500000003297
v -0.0293892628601 0.040450848639 0.0500000003297
v -0.0238545555065 0.0414559096098 0.0151191200003
v -0.0293892628601 0.040450848639 0.0500000003297
v -0.0203357194049 0.0439615473151 0.0165766696451
v -0.0203357194049 0.0439615473151 0.0165766696451
v -0.0293892628601 0.040450848639 0.0500000003297
v -0.0238235561702 0.043959505856 0.0499999996711
v -0.0203357194049 0.0439615473151 0.0165766696451
v -0.0238235561702 0.043959505856 0.0499999996711
v -0.0216941867479 0.0450484417379 0.0499999996711
v 0.0342756219935 -0.0123004401103 0.0342756212485
v 0.0351726592465 -0.00510916300118 0.0351726594328
v 0.0424571550123 -0.00510916300118 0.0425863291761
v 0.0424571550123 -0.00510916300118 0.0425863291761
v 0.0351726592465 -0.00510916300118 0.0351726594328
v 0.0351845468263 -0.00494100851938 0.0351845479439
v 0.0424571550123 -0.00510916300118 0.0425863291761
v 0.0351845468263 -0.00494100851938 0.0351845479439
v 0.042677670234 -1.1660778248e-17 0.0426776690233
v 0.042677670234 -1.1660778248e-17 0.0426776690233
v 0.042677670234 -1.1660778248e-17 0.0426776690233
v 0.0353553404244 -1.47618971199e-17 0.035355338748
v 0.0424571550123 0.00510916300118 0.0425863291761
v 0.0424571550123 0.00510916300118 0.0425863291761
v 0.0353553404244 -1.47618971199e-17 0.035355338748
v 0.0349765710338 0.00733786774799 0.0349765712201
v 0.0424571550123 0.00510916300118 0.0425863291761
v 0.0349765710338 0.00733786774799 0.0349765712201
v 0.0418099644496 0.0100714359432 0.0423182535082
v 0.0418099644496 0.0100714359432 0.0423182535082
v 0.0349765710338 0.00733786774799 0.0349765712201
v 0.0346365096523 0.0100714359432 0.0346365089072
v 0.0418099644496 0.0100714359432 0.0423182535082
v 0.0346365096523 0.0100714359432 0.0346365089072
v 0.0407576144624 0.0148616051301 0.0418823561277
v 0.0407576144624 0.0148616051301 0.0418823561277
v 0.0346365096523 0.0100714359432 0.0346365089072
v 0.0338739230146 0.0143560133874 0.0338739222695
v 0.0407576144624 0.0148616051301 0.0418823561277
v 0.0338739230146 0.0143560133874 0.0338739222695
v 0.0393216265526 0.0194544568658 0.0412875508256
v 0.0393216265526 0.0194544568658 0.0412875508256
v 0.0338739230146 0.0143560133874 0.0338739222695
v 0.0325751046574 0.0194544568658 0.0325751039124
v 0.0393216265526 0.0194544568658 0.0412875508256
v 0.0325751046574 0.0194544568658 0.0325751039124
v 0.0343045174839 0.0238247774541 0.0358141301758
v 0.0343045174839 0.0238247774541 0.0358141301758
v 0.0325751046574 0.0194544568658 0.0325751039124
v 0.0320616664805 0.0210875403136 0.0320616657355
v 0.0343045174839 0.0238247774541 0.0358141301758
v 0.0320616664805 0.0210875403136 0.0320616657355
v 0.0310855085905 0.0238247774541 0.0310855078454
v -0.0289598702819 0.0286740195006 -0.0289598673017
v -0.0310855069141 0.0238247774541 -0.0310855095218
v -0.0375235262559 0.0238247774541 0.00945724440948
v -0.0375235262559 0.0238247774541 0.00945724440948
v -0.0310855069141 0.0238247774541 -0.0310855095218
v -0.0316523434452 0.0222867764533 -0.0316523441903
v -0.0375235262559 0.0238247774541 0.00945724440948
v -0.0316523434452 0.0222867764533 -0.0316523441903
v -0.0393216267172 0.0194544568658 0.00871244637602
v -0.0393216267172 0.0194544568658 0.00871244637602
v -0.0316523434452 0.0222867764533 -0.0316523441903
v -0.0325751039124 0.0194544568658 -0.0325751046574
v -0.0393216267172 0.0194544568658 0.00871244637602
v -0.0325751039124 0.0194544568658 -0.0325751046574
v -0.0407576159441 0.0148616051301 0.00811764502515
v -0.0407576159441 0.0148616051301 0.00811764502515
v -0.0325751039124 0.0194544568658 -0.0325751046574
v -0.0336441553191 0.0153985098004 -0.0336441523389
v -0.0407576159441 0.0148616051301 0.00811764502515
v -0.0336441553191 0.0153985098004 -0.0336441523389
v -0.0418099661166 0.0100714359432 0.00768174519569
v -0.0418099661166 0.0100714359432 0.00768174519569
v -0.0336441553191 0.0153985098004 -0.0336441523389
v -0.0348868190405 0.00815262366086 -0.0348868197856
v -0.0418099661166 0.0100714359432 0.00768174519569
v -0.0348868190405 0.00815262366086 -0.0348868197856
v -0.0424571573172 0.00510916300118 0.00741367016574
v -0.0424571573172 0.00510916300118 0.00741367016574
v -0.0348868190405 0.00815262366086 -0.0348868197856
v -0.0351726589671 0.00510916300118 -0.0351726597122
v -0.0424571573172 0.00510916300118 0.00741367016574
v -0.0351726589671 0.00510916300118 -0.0351726597122
v -0.0426776722628 1.05264737348e-17 0.00732233004248
v -0.0426776722628 1.05264737348e-17 0.00732233004248
v -0.0351726589671 0.00510916300118 -0.0351726597122
v -0.0353521473614 0.000677901029121 -0.0353521518317
v -0.0426776722628 1.05264737348e-17 0.00732233004248
v -0.0353521473614 0.000677901029121 -0.0353521518317
v -0.0353267486168 -0.00202719005756 -0.0353267530872
v 0.00892784443078 -0.0491964779794 0.0530000004943
v 0.0089278431137 -0.0491964779794 0.0499999996711
v 0.017568739946 -0.0468117445707 0.0529999991772
v 0.017568739946 -0.0468117445707 0.0529999991772
v 0.0089278431137 -0.0491964779794 0.0499999996711
v 0.0148590005172 -0.047741074115 0.0499999996711
v 0.0148590005172 -0.047741074115 0.0499999996711
v 0.0175687412631 -0.0468117445707 0.0500000009882
v 0.017568739946 -0.0468117445707 0.0529999991772
v 0.017568739946 -0.0468117445707 0.0529999991772
v 0.0175687412631 -0.0468117445707 0.0500000009882
v 0.0194511986417 -0.0460613816977 0.0500000009882
v 0.017568739946 -0.0468117445707 0.0529999991772
v 0.0194511986417 -0.0460613816977 0.0500000009882
v 0.0256449651558 -0.0429224409163 0.0530000004943
v 0.0256449651558 -0.0429224409163 0.0530000004943
v 0.0194511986417 -0.0460613816977 0.0500000009882
v 0.023823745831 -0.0439594052732 0.0499999996711
v 0.023823745831 -0.0439594052732 0.0499999996711
v 0.0256449638387 -0.0429224409163 0.0499999996711
v 0.0256449651558 -0.0429224409163 0.0530000004943
v 0.0256449651558 -0.0429224409163 0.0530000004943
v 0.0256449638387 -0.0429224409163 0.0499999996711
v 0.0279494277333 -0.0414587669075 0.0499999990126
v 0.0256449651558 -0.0429224409163 0.0530000004943
v 0.0279494277333 -0.0414587669075 0.0499999990126
v 0.032896936303 -0.0376535728574 0.0530000004943
v 0.032896936303 -0.0376535728574 0.0530000004943
v 0.0279494277333 -0.0414587669075 0.0499999990126
v 0.0318017333223 -0.038583021611 0.0499999996711
v 0.0318017333223 -0.038583021611 0.0499999996711
v 0.0328969349859 -0.0376535728574 0.0499999996711
v 0.032896936303 -0.0376535728574 0.0530000004943
v 0.032896936303 -0.0376535728574 0.0530000004943
v 0.0328969349859 -0.0376535728574 0.0499999996711
v 0.035355493027 -0.0353551842272 0.0499999990126
v 0.032896936303 -0.0376535728574 0.0530000004943
v 0.035355493027 -0.0353551842272 0.0499999990126
v 0.0390915780228 -0.0311744902283 0.05300000247
v 0.035355493027 -0.0353551842272 0.0499999990126
v 0.039091577035 -0.0311744902283 0.0500000013175
v 0.0390915780228 -0.0311744902283 0.05300000247
v 0.0390915780228 -0.0311744902283 0.05300000247
v 0.039091577035 -0.0311744902283 0.0500000013175
v 0.0414588588316 -0.027949295938 0.0500000026346
v 0.0390915780228 -0.0311744902283 0.05300000247
v 0.0414588588316 -0.027949295938 0.0500000026346
v 0.0440297777366 -0.0236934330314 0.0530000014821
v 0.0440297777366 -0.0236934330314 0.0530000014821
v 0.0414588588316 -0.027949295938 0.0500000026346
v 0.0440297764195 -0.0236934330314 0.0500000006589
v 0.0440297777366 -0.0236934330314 0.0530000014821
v 0.0440297764195 -0.0236934330314 0.0500000006589
v 0.0475528239133 -0.0154508501291 0.0529999998358
v 0.0440297764195 -0.0236934330314 0.0500000006589
v 0.0460612532007 -0.0194515082985 0.050000001976
v 0.0475528239133 -0.0154508501291 0.0529999998358
v 0.0475528239133 -0.0154508501291 0.0529999998358
v 0.0460612532007 -0.0194515082985 0.050000001976
v 0.0475528228432 -0.0154508501291 0.0499999987656
v 0.0475528239133 -0.0154508501291 0.0529999998358
v 0.0475528228432 -0.0154508501291 0.0499999987656
v 0.0495474882211 -0.00671166321263 0.0529999983541
v 0.0495474882211 -0.00671166321263 0.0529999983541
v 0.0475528228432 -0.0154508501291 0.0499999987656
v 0.0489755289392 -0.0100696356967 0.0500000016879
v 0.0489755289392 -0.0100696356967 0.0500000016879
v 0.0495474923576 -0.00671166321263 0.050000002614
v 0.0495474882211 -0.00671166321263 0.0529999983541
v 0.0495474882211 -0.00671166321263 0.0529999983541
v 0.0495474923576 -0.00671166321263 0.050000002614
v 0.0497382945673 -0.00510901212692 0.0499999991875
v 0.0495474882211 -0.00671166321263 0.0529999983541
v 0.0497382945673 -0.00510901212692 0.0499999991875
v 0.0499496526264 0.00224324152805 0.0529999991772
v 0.0499496526264 0.00224324152805 0.0529999991772
v 0.0497382945673 -0.00510901212692 0.0499999991875
v 0.0500000026778 -1.46349540478e-17 0.0500000019328
v 0.0500000026778 -1.46349540478e-17 0.0500000019328
v 0.0499496515563 0.00224324152805 0.0499999981071
v 0.0499496526264 0.00224324152805 0.0529999991772
v 0.0499496526264 0.00224324152805 0.0529999991772
v 0.0499496515563 0.00224324152805 0.0499999981071
v 0.0497383252719 0.00510871224105 0.050000000093
v 0.0499496526264 0.00224324152805 0.0529999991772
v 0.0497383252719 0.00510871224105 0.050000000093
v 0.0487463933579 0.0111260470003 0.0529999975309
v 0.0497383252719 0.00510871224105 0.050000000093
v 0.0487463975561 0.0111260470003 0.0500000017291
v 0.0487463933579 0.0111260470003 0.0529999975309
v 0.0487463933579 0.0111260470003 0.0529999975309
v 0.0487463975561 0.0111260470003 0.0500000017291
v 0.0477412060028 0.0148585801944 0.0500000014821
v 0.0487463933579 0.0111260470003 0.0529999975309
v 0.0477412060028 0.0148585801944 0.0500000014821
v 0.0459763865699 0.0196512509137 0.0529999975309
v 0.0459763865699 0.0196512509137 0.0529999975309
v 0.0477412060028 0.0148585801944 0.0500000014821
v 0.0459763908505 0.0196512509137 0.0500000016468
v 0.0459763865699 0.0196512509137 0.0529999975309
v 0.0459763908505 0.0196512509137 0.0500000016468
v 0.0417286655043 0.0275448486209 0.0530000011529
v 0.0459763908505 0.0196512509137 0.0500000016468
v 0.0439594544028 0.0238236505538 0.0500000006589
v 0.0417286655043 0.0275448486209 0.0530000011529
v 0.0417286655043 0.0275448486209 0.0530000011529
v 0.0439594544028 0.0238236505538 0.0500000006589
v 0.0417286645165 0.0275448486209 0.0500000000004
v 0.0417286655043 0.0275448486209 0.0530000011529
v 0.0417286645165 0.0275448486209 0.0500000000004
v 0.0361397418278 0.0345531329513 0.0529999998358
v 0.0417286645165 0.0275448486209 0.0500000000004
v 0.0385827911457 0.0318020172417 0.0500000009882
v 0.0361397418278 0.0345531329513 0.0529999998358
v 0.0361397418278 0.0345531329513 0.0529999998358
v 0.0385827911457 0.0318020172417 0.0500000009882
v 0.0361397405107 0.0345531329513 0.0499999990126
v 0.0361397418278 0.0345531329513 0.0529999998358
v 0.0361397405107 0.0345531329513 0.0499999990126
v 0.0293892608844 0.040450848639 0.0529999991772
v 0.0293892608844 0.040450848639 0.0529999991772
v 0.0361397405107 0.0345531329513 0.0499999990126
v 0.0318022963779 0.038582559675 0.0500000003297
v 0.0318022963779 0.038582559675 0.0500000003297
v 0.0293892628601 0.040450848639 0.0500000003297
v 0.0293892608844 0.040450848639 0.0529999991772
v 0.0293892608844 0.040450848639 0.0529999991772
v 0.0293892628601 0.040450848639 0.0500000003297
v 0.0279491643155 0.0414589457214 0.0499999990126
v 0.0293892608844 0.040450848639 0.0529999991772
v 0.0279491643155 0.0414589457214 0.0499999990126
v 0.021694188065 0.0450484417379 0.0530000004943
v 0.021694188065 0.0450484417379 0.0530000004943
v 0.0279491643155 0.0414589457214 0.0499999990126
v 0.0238235561702 0.043959505856 0.0499999996711
v 0.0238235561702 0.043959505856 0.0499999996711
v 0.0216941867479 0.0450484417379 0.0499999996711
v 0.021694188065 0.0450484417379 0.0530000004943
v 0.021694188065 0.0450484417379 0.0530000004943
v 0.0216941867479 0.0450484417379 0.0499999996711
v 0.0194518163565 0.0460611209273 0.0499999996711
v 0.021694188065 0.0450484417379 0.0530000004943
v 0.0194518163565 0.0460611209273 0.0499999996711
v 0.013301840418 0.0481981448829 0.0529999991772
v 0.013301840418 0.0481981448829 0.0529999991772
v 0.0194518163565 0.0460611209273 0.0499999996711
v 0.0148581615315 0.0477413348854 0.0500000009882
v 0.0148581615315 0.0477413348854 0.0500000009882
v 0.0133018417351 0.0481981448829 0.0500000009882
v 0.013301840418 0.0481981448829 0.0529999991772
v 0.013301840418 0.0481981448829 0.0529999991772
v 0.0133018417351 0.0481981448829 0.0500000009882
v 0.0100699910982 0.048975456506 0.0499999996711
v 0.013301840418 0.0481981448829 0.0529999991772
v 0.0100699910982 0.048975456506 0.0499999996711
v 0.00448196435928 0.0497987158597 0.0529999991772
v 0.00448196435928 0.0497987158597 0.0529999991772
v 0.0100699910982 0.048975456506 0.0499999996711
v 0.00448196699346 0.0497987158597 0.0499999996711
v 0.00448196435928 0.0497987158597 0.0529999991772
v 0.00448196699346 0.0497987158597 0.0499999996711
v 0 0.0500000007451 0.0529999991772
v 0 0.0500000007451 0.0500000023053
v 0 0.0500000007451 0.0529999991772
v -0.00448196435928 0.0497987158597 0.0529999991772
v -0.00448196435928 0.0497987158597 0.0529999991772
v -0.00448196699346 0.0497987158597 0.0499999996711
v -0.013301840418 0.0481981448829 0.0529999991772
v -0.00448196699346 0.0497987158597 0.0499999996711
v -0.0100699910982 0.048975456506 0.0499999996711
v -0.013301840418 0.0481981448829 0.0529999991772
v -0.013301840418 0.0481981448829 0.0529999991772
v -0.0100699910982 0.048975456506 0.0499999996711
v -0.0133018417351 0.0481981448829 0.0500000009882
v -0.013301840418 0.0481981448829 0.0529999991772
v -0.0133018417351 0.0481981448829 0.0500000009882
v -0.021694188065 0.0450484417379 0.0530000004943
v -0.021694188065 0.0450484417379 0.0530000004943
v -0.0133018417351 0.0481981448829 0.0500000009882
v -0.0194518163565 0.0460611209273 0.0499999996711
v -0.0194518163565 0.0460611209273 0.0499999996711
v -0.0216941867479 0.0450484417379 0.0499999996711
v -0.021694188065 0.0450484417379 0.0530000004943
v -0.021694188065 0.0450484417379 0.0530000004943
v -0.0216941867479 0.0450484417379 0.0499999996711
v -0.0238235561702 0.043959505856 0.0499999996711
v -0.021694188065 0.0450484417379 0.0530000004943
v -0.0238235561702 0.043959505856 0.0499999996711
v -0.0293892608844 0.040450848639 0.0529999991772
v -0.0238235561702 0.043959505856 0.0499999996711
v -0.0293892628601 0.040450848639 0.0500000003297
v -0.0293892608844 0.040450848639 0.0529999991772
v -0.0293892608844 0.040450848639 0.0529999991772
v -0.0293892628601 0.040450848639 0.0500000003297
v -0.0318022963779 0.038582559675 0.0500000003297
v -0.0293892608844 0.040450848639 0.0529999991772
v -0.0318022963779 0.038582559675 0.0500000003297
v -0.0361397418278 0.0345531329513 0.0529999998358
v -0.0318022963779 0.038582559675 0.0500000003297
v -0.0361397405107 0.0345531329513 0.0499999990126
v -0.0361397418278 0.0345531329513 0.0529999998358
v -0.0361397418278 0.0345531329513 0.0529999998358
v -0.0361397405107 0.0345531329513 0.0499999990126
v -0.0385827911457 0.0318020172417 0.0500000009882
v -0.0361397418278 0.0345531329513 0.0529999998358
v -0.0385827911457 0.0318020172417 0.0500000009882
v -0.0417286655043 0.0275448486209 0.0530000011529
v -0.0385827911457 0.0318020172417 0.0500000009882
v -0.0417286645165 0.0275448486209 0.0500000000004
v -0.0417286655043 0.0275448486209 0.0530000011529
v -0.0417286655043 0.0275448486209 0.0530000011529
v -0.0417286645165 0.0275448486209 0.0500000000004
v -0.0439594544028 0.0238236505538 0.0500000006589
v -0.0417286655043 0.0275448486209 0.0530000011529
v -0.0439594544028 0.0238236505538 0.0500000006589
v -0.0459763865699 0.0196512509137 0.0529999975309
v -0.0459763865699 0.0196512509137 0.0529999975309
v -0.0439594544028 0.0238236505538 0.0500000006589
v -0.0459763908505 0.0196512509137 0.0500000016468
v -0.0459763865699 0.0196512509137 0.0529999975309
v -0.0459763908505 0.0196512509137 0.0500000016468
v -0.0487463933579 0.0111260470003 0.0529999975309
v -0.0459763908505 0.0196512509137 0.0500000016468
v -0.0477412060028 0.0148585801944 0.0500000014821
v -0.0487463933579 0.0111260470003 0.0529999975309
v -0.0487463933579 0.0111260470003 0.0529999975309
v -0.0477412060028 0.0148585801944 0.0500000014821
v -0.0487463975561 0.0111260470003 0.0500000017291
v -0.0487463933579 0.0111260470003 0.0529999975309
v -0.0487463975561 0.0111260470003 0.0500000017291
v -0.0499496526264 0.00224324152805 0.0529999991772
v -0.0499496526264 0.00224324152805 0.0529999991772
v -0.0487463975561 0.0111260470003 0.0500000017291
v -0.0497383252719 0.00510871224105 0.050000000093
v -0.0497383252719 0.00510871224105 0.050000000093
v -0.0499496515563 0.00224324152805 0.0499999981071
v -0.0499496526264 0.00224324152805 0.0529999991772
v -0.0499496526264 0.00224324152805 0.0529999991772
v -0.0499496515563 0.00224324152805 0.0499999981071
v -0.0500000026778 -1.0317658949e-17 0.0500000019328
v -0.0499496526264 0.00224324152805 0.0529999991772
v -0.0500000026778 -1.0317658949e-17 0.0500000019328
v -0.0495474882211 -0.00671166321263 0.0529999983541
v -0.0500000026778 -1.0317658949e-17 0.0500000019328
v -0.0495474923576 -0.00671166321263 0.050000002614
v -0.0495474882211 -0.00671166321263 0.0529999983541
v -0.0495474882211 -0.00671166321263 0.0529999983541
v -0.0495474923576 -0.00671166321263 0.050000002614
v -0.0489755289392 -0.0100696356967 0.0500000016879
v -0.0495474882211 -0.00671166321263 0.0529999983541
v -0.0489755289392 -0.0100696356967 0.0500000016879
v -0.0475528239133 -0.0154508501291 0.0529999998358
v -0.0489755289392 -0.0100696356967 0.0500000016879
v -0.0475528228432 -0.0154508501291 0.0499999987656
v -0.0475528239133 -0.0154508501291 0.0529999998358
v -0.0475528239133 -0.0154508501291 0.0529999998358
v -0.0475528228432 -0.0154508501291 0.0499999987656
v -0.0460612532007 -0.0194515082985 0.050000001976
v -0.0475528239133 -0.0154508501291 0.0529999998358
v -0.0460612532007 -0.0194515082985 0.050000001976
v -0.0440297777366 -0.0236934330314 0.0530000014821
v -0.0440297777366 -0.0236934330314 0.0530000014821
v -0.0460612532007 -0.0194515082985 0.050000001976
v -0.0440297764195 -0.0236934330314 0.0500000006589
v -0.0440297777366 -0.0236934330314 0.0530000014821
v -0.0440297764195 -0.0236934330314 0.0500000006589
v -0.0390915780228 -0.0311744902283 0.05300000247
v -0.0440297764195 -0.0236934330314 0.0500000006589
v -0.0414588588316 -0.027949295938 0.0500000026346
v -0.0390915780228 -0.0311744902283 0.05300000247
v -0.0390915780228 -0.0311744902283 0.05300000247
v -0.0414588588316 -0.027949295938 0.0500000026346
v -0.039091577035 -0.0311744902283 0.0500000013175
v -0.0390915780228 -0.0311744902283 0.05300000247
v -0.039091577035 -0.0311744902283 0.0500000013175
v -0.032896936303 -0.0376535728574 0.0530000004943
v -0.039091577035 -0.0311744902283 0.0500000013175
v -0.035355493027 -0.0353551842272 0.0499999990126
v -0.032896936303 -0.0376535728574 0.0530000004943
v -0.032896936303 -0.0376535728574 0.0530000004943
v -0.035355493027 -0.0353551842272 0.0499999990126
v -0.0328969349859 -0.0376535728574 0.0499999996711
v -0.032896936303 -0.0376535728574 0.0530000004943
v -0.0328969349859 -0.0376535728574 0.0499999996711
v -0.0256449651558 -0.0429224409163 0.0530000004943
v -0.0256449651558 -0.0429224409163 0.0530000004943
v -0.0328969349859 -0.0376535728574 0.0499999996711
v -0.0279494277333 -0.0414587669075 0.0499999990126
v -0.0279494277333 -0.0414587669075 0.0499999990126
v -0.0256449638387 -0.0429224409163 0.0499999996711
v -0.0256449651558 -0.0429224409163 0.0530000004943
v -0.0256449651558 -0.0429224409163 0.0530000004943
v -0.0256449638387 -0.0429224409163 0.0499999996711
v -0.023823745831 -0.0439594052732 0.0499999996711
v -0.0256449651558 -0.0429224409163 0.0530000004943
v -0.023823745831 -0.0439594052732 0.0499999996711
v -0.017568739946 -0.0468117445707 0.0529999991772
v -0.017568739946 -0.0468117445707 0.0529999991772
v -0.023823745831 -0.0439594052732 0.0499999996711
v -0.0194511986417 -0.0460613816977 0.0500000009882
v -0.0194511986417 -0.0460613816977 0.0500000009882
v -0.0175687412631 -0.0468117445707 0.0500000009882
v -0.017568739946 -0.0468117445707 0.0529999991772
v -0.017568739946 -0.0468117445707 0.0529999991772
v -0.0175687412631 -0.0468117445707 0.0500000009882
v -0.0148590005172 -0.047741074115 0.0499999996711
v -0.017568739946 -0.0468117445707 0.0529999991772
v -0.0148590005172 -0.047741074115 0.0499999996711
v -0.00892784443078 -0.0491964779794 0.0530000004943
v -0.0148590005172 -0.047741074115 0.0499999996711
v -0.0089278431137 -0.0491964779794 0.0499999996711
v -0.00892784443078 -0.0491964779794 0.0530000004943
v -0.00892784443078 -0.0491964779794 0.0530000004943
v -0.0089278431137 -0.0491964779794 0.0499999996711
v -0.00510886448656 -0.0497383102775 0.0499999996711
v -0.00892784443078 -0.0491964779794 0.0530000004943
v -0.00510886448656 -0.0497383102775 0.0499999996711
v -6.93889390391e-18 -0.0500000007451 0.0529999991772
v -6.93889390391e-18 -0.0500000007451 0.0529999991772
v -0.00510886448656 -0.0497383102775 0.0499999996711
v -6.93889390391e-18 -0.0500000007451 0.0500000023053
v -6.93889390391e-18 -0.0500000007451 0.0529999991772
v -6.93889390391e-18 -0.0500000007451 0.0500000023053
v 0.00892784443078 -0.0491964779794 0.0530000004943
v 0.00892784443078 -0.0491964779794 0.0530000004943
v -6.93889390391e-18 -0.0500000007451 0.0500000023053
v 0.00510886448656 -0.0497383102775 0.0499999996711
v 0.00892784443078 -0.0491964779794 0.0530000004943
v 0.00510886448656 -0.0497383102775 0.0499999996711
v 0.0089278431137 -0.0491964779794 0.0499999996711
v 0.013301840418 0.0481981448829 0.0529999991772
v 0.00448196435928 0.0497987158597 0.0529999991772
v -3.46944695195e-18 -1.00283472511e-17 0.0529999991772
v 0 0.0500000007451 0.0529999991772
v -0.00448196435928 0.0497987158597 0.0529999991772
v 0.0361397418278 0.0345531329513 0.0529999998358
v 0.0293892608844 0.040450848639 0.0529999991772
v 0.021694188065 0.0450484417379 0.0530000004943
v 0.0487463933579 0.0111260470003 0.0529999975309
v 0.0459763865699 0.0196512509137 0.0529999975309
v 0.0417286655043 0.0275448486209 0.0530000011529
v 0.0475528239133 -0.0154508501291 0.0529999998358
v 0.0495474882211 -0.00671166321263 0.0529999983541
v 0.0499496526264 0.00224324152805 0.0529999991772
v 0.032896936303 -0.0376535728574 0.0530000004943
v 0.0390915780228 -0.0311744902283 0.05300000247
v 0.0440297777366 -0.0236934330314 0.0530000014821
v 0.00892784443078 -0.0491964779794 0.0530000004943
v 0.017568739946 -0.0468117445707 0.0529999991772
v 0.0256449651558 -0.0429224409163 0.0530000004943
v -0.017568739946 -0.0468117445707 0.0529999991772
v -0.00892784443078 -0.0491964779794 0.0530000004943
v -6.93889390391e-18 -0.0500000007451 0.0529999991772
v -0.0390915780228 -0.0311744902283 0.05300000247
v -0.032896936303 -0.0376535728574 0.0530000004943
v -0.0256449651558 -0.0429224409163 0.0530000004943
v -0.0495474882211 -0.00671166321263 0.0529999983541
v -0.0475528239133 -0.0154508501291 0.0529999998358
v -0.0440297777366 -0.0236934330314 0.0530000014821
v -0.0459763865699 0.0196512509137 0.0529999975309
v -0.0487463933579 0.0111260470003 0.0529999975309
v -0.0499496526264 0.00224324152805 0.0529999991772
v -0.0293892608844 0.040450848639 0.0529999991772
v -0.0361397418278 0.0345531329513 0.0529999998358
v -0.0417286655043 0.0275448486209 0.0530000011529
v -0.013301840418 0.0481981448829 0.0529999991772
v -0.021694188065 0.0450484417379 0.0530000004943
f 1 2 3
f 4 5 6
f 4 6 7
f 8 9 10
f 10 9 11
f 10 11 6
f 12 13 14
f 2 15 16
f 1 3 6
f 6 3 17
f 6 17 7
f 14 18 19
f 19 20 14
f 14 20 21
f 14 21 22
f 12 14 23
f 24 25 13
f 18 14 10
f 10 14 26
f 10 26 8
f 27 28 2
f 2 28 29
f 16 30 2
f 2 30 31
f 2 31 3
f 5 32 6
f 6 32 33
f 6 33 34
f 34 35 6
f 6 35 36
f 6 36 37
f 38 39 6
f 6 39 40
f 6 40 10
f 29 41 2
f 2 41 42
f 2 42 15
f 22 43 14
f 14 43 44
f 14 44 45
f 46 47 14
f 14 47 48
f 24 13 49
f 37 50 6
f 6 50 51
f 6 51 52
f 45 53 14
f 14 53 54
f 14 54 46
f 48 55 14
f 14 55 56
f 14 56 23
f 57 58 59
f 59 58 60
f 59 60 61
f 27 62 28
f 28 62 63
f 28 63 64
f 64 63 65
f 64 65 66
f 66 65 67
f 66 67 68
f 52 69 6
f 6 69 70
f 6 70 38
f 57 59 13
f 13 59 71
f 13 71 49
f 25 72 13
f 13 72 73
f 13 73 74
f 74 75 13
f 13 75 76
f 13 76 14
f 77 78 79
f 80 81 82
f 83 84 85
f 86 87 88
f 89 90 91
f 92 93 94
f 95 96 97
f 98 99 100
f 101 102 103
f 104 105 106
f 107 108 109
f 110 111 112
f 113 114 115
f 116 117 118
f 119 120 121
f 122 123 124
f 125 126 127
f 128 129 130
f 131 132 133
f 134 135 136
f 137 138 139
f 140 141 142
f 143 144 145
f 146 147 148
f 149 150 151
f 152 153 154
f 155 156 157
f 158 159 160
f 161 162 163
f 164 165 166
f 167 168 169
f 170 171 172
f 173 174 175
f 176 177 178
f 179 180 181
f 182 183 184
f 185 186 187
f 188 189 190
f 191 192 193
f 194 195 196
f 197 198 199
f 200 201 202
f 203 204 205
f 206 207 208
f 209 210 211
f 212 213 214
f 215 216 217
f 218 219 220
f 221 222 223
f 224 225 226
f 227 228 229
f 230 231 232
f 233 234 235
f 236 237 238
f 239 240 241
f 242 243 244
f 245 246 247
f 248 249 250
f 251 252 253
f 254 255 256
f 257 258 259
f 260 261 262
f 263 264 265
f 266 267 268
f 269 270 271
f 272 273 274
f 275 276 277
f 278 279 280
f 281 282 283
f 284 285 286
f 287 288 289
f 290 291 292
f 293 294 295
f 296 297 298
f 299 300 301
f 302 303 304
f 305 306 307
f 308 309 310
f 311 312 313
f 314 315 316
f 317 318 319
f 320 321 322
f 323 324 325
f 326 327 328
f 329 330 331
f 332 333 334
f 335 336 337
f 338 339 340
f 341 342 343
f 344 345 346
f 347 348 349
f 350 351 352
f 353 354 355
f 356 357 358
f 359 360 361
f 362 363 364
f 365 366 367
f 368 369 370
f 371 372 373
f 374 375 376
f 377 378 379
f 380 381 382
f 383 384 385
f 386 387 388
f 389 390 391
f 392 393 394
f 395 396 397
f 398 399 400
f 401 402 403
f 404 405 406
f 407 408 409
f 410 411 412
f 413 414 415
f 416 417 418
f 419 420 421
f 422 423 424
f 425 426 427
f 428 429 430
f 431 432 433
f 434 435 436
f 437 438 439
f 440 441 442
f 443 444 445
f 446 447 448
f 449 450 451
f 452 453 454
f 455 456 457
f 458 459 460
f 461 462 463
f 464 465 466
f 467 468 469
f 470 471 472
f 473 474 475
f 476 477 478
f 479 480 481
f 482 483 484
f 485 486 487
f 488 489 490
f 491 492 493
f 494 495 496
f 497 498 499
f 500 501 502
f 503 504 505
f 506 507 508
f 509 510 511
f 512 513 514
f 515 516 517
f 518 519 520
f 521 522 523
f 524 525 526
f 527 528 529
f 530 531 532
f 533 534 535
f 536 537 538
f 539 540 541
f 542 543 544
f 545 546 547
f 548 549 550
f 551 552 553
f 554 555 556
f 557 558 559
f 560 561 562
f 563 564 565
f 566 567 568
f 569 570 571
f 572 573 574
f 575 576 577
f 578 579 580
f 581 582 583
f 584 585 586
f 587 588 589
f 590 591 592
f 593 594 595
f 596 597 598
f 599 600 601
f 602 603 604
f 605 606 607
f 608 609 610
f 611 612 613
f 614 615 616
f 617 618 619
f 620 621 622
f 623 624 625
f 626 627 628
f 629 630 631
f 632 633 634
f 635 636 637
f 638 639 640
f 641 642 643
f 644 645 646
f 647 648 649
f 650 651 652
f 653 654 655
f 656 657 658
f 659 660 661
f 659 661 662
f 663 664 665
f 666 667 668
f 669 670 671
f 672 673 674
f 675 676 677
f 678 679 680
f 681 682 683
f 684 685 686
f 687 688 689
f 690 691 692
f 693 694 695
f 696 697 698
f 699 700 701
f 702 703 704
f 705 706 707
f 708 709 710
f 711 712 713
f 714 715 716
f 717 718 719
f 720 721 722
f 723 724 725
f 726 727 728
f 729 730 731
f 732 733 734
f 735 736 737
f 738 739 740
f 741 742 743
f 744 745 746
f 747 748 749
f 750 751 752
f 753 754 755
f 756 757 758
f 759 760 761
f 762 763 764
f 765 766 767
f 768 769 770
f 771 772 773
f 774 775 776
f 98 777 99
f 778 779 780
f 781 782 783
f 784 785 786
f 787 788 789
f 790 722 721
f 791 792 793
f 794 795 796
f 797 798 799
f 800 801 802
f 803 804 805
f 806 743 742
f 807 808 809
f 810 811 812
f 813 814 815
f 816 817 818
f 819 820 821
f 822 823 824
f 825 826 827
f 828 829 830
f 831 832 833
f 834 835 836
f 837 838 839
f 840 841 842
f 843 844 845
f 846 847 848
f 849 850 851
f 852 853 854
f 855 856 857
f 858 859 860
f 861 862 863
f 864 865 866
f 867 868 869
f 870 871 872
f 873 874 875
f 876 877 878
f 879 880 881
f 882 883 884
f 885 886 887
f 888 889 890
f 891 892 893
f 894 895 896
f 897 898 899
f 900 901 902
f 903 904 905
f 906 907 908
f 909 910 911
f 912 913 914
f 915 916 917
f 918 919 920
f 921 922 923
f 924 925 926
f 927 928 929
f 930 931 932
f 933 934 935
f 936 937 938
f 939 940 941
f 942 943 944
f 945 946 947
f 948 949 950
f 951 952 953
f 954 955 956
f 957 958 959
f 960 961 962
f 963 964 965
f 966 967 968
f 969 970 971
f 972 973 974
f 975 976 977
f 978 979 980
f 981 982 983
f 984 985 986
f 987 988 989
f 990 991 992
f 993 994 995
f 996 997 998
f 999 1000 1001
f 1002 1003 1004
f 1005 1006 1007
f 1008 1009 1010
f 1011 1012 1013
f 1014 37 36
f 1015 1016 1017
f 1018 1019 1020
f 1021 1022 1023
f 1024 1025 1026
f 1027 1028 1029
f 1030 1031 1032
f 1033 1034 1035
f 1036 1037 1038
f 1039 1040 1041
f 1042 1043 1044
f 1045 1046 1047
f 1048 1049 1050
f 1051 1052 1053
f 1054 1055 1056
f 1057 1058 1059
f 1060 1061 1062
f 1063 1064 1065
f 1066 1067 1068
f 1069 1070 1071
f 1072 1073 1074
f 1075 1076 1077
f 1078 1079 1080
f 1081 1082 1083
f 1084 1085 1086
f 1087 1088 1089
f 1090 1091 1092
f 1093 1094 1095
f 1096 1097 1098
f 1099 1100 1101
f 1102 1103 1104
f 1105 1106 1107
f 1108 1109 1110
f 1111 1112 1113
f 1114 1115 1116
f 1117 1118 1119
f 1120 1121 1122
f 1123 1124 1125
f 1126 1127 1128
f 1129 1130 1131
f 1132 1133 1134
f 1135 1136 1137
f 1138 1139 1140
f 1141 1142 1143
f 1144 1145 1146
f 1147 1148 1149
f 1150 1151 1152
f 1153 1154 1155
f 1156 1157 1158
f 1159 1160 1161
f 1162 1163 1164
f 1165 1166 1167
f 1168 1169 1170
f 1171 1172 1173
f 1174 1175 1176
f 1177 1178 1179
f 1180 1181 1182
f 1183 1184 1185
f 1186 1187 1188
f 1189 1190 1191
f 1192 1193 1194
f 1195 1196 1197
f 1198 1199 1200
f 1201 1202 1203
f 1204 1205 1206
f 1207 1208 1209
f 1210 1211 1212
f 1213 1214 1215
f 1216 1217 1218
f 1219 1220 1221
f 1222 1223 1224
f 1225 1226 1227
f 1228 1229 1230
f 1231 1232 1233
f 1234 1235 1236
f 1237 1238 1239
f 1240 1241 1242
f 1243 1244 1245
f 1246 1247 1248
f 1248 1247 1249
f 1250 209 1251
f 1251 209 211
f 1252 1253 1254
f 1255 1256 1257
f 1258 1259 1260
f 1261 1262 1263
f 1264 1265 1266
f 1267 1268 1269
f 1270 1271 1272
f 1273 1274 1275
f 1276 1277 1278
f 1279 1280 1281
f 1282 1283 1284
f 1285 1286 1287
f 1288 1289 1290
f 1291 1292 1293
f 1294 1295 1296
f 1297 1298 1299
f 1300 1301 1302
f 1303 1304 1305
f 1306 1307 1308
f 1309 1310 1311
f 1312 1313 1314
f 1315 1316 1317
f 1318 1319 1320
f 1321 1322 1323
f 1324 1325 1326
f 1327 1328 1329
f 1330 1331 1332
f 1333 1334 1335
f 1336 1337 1338
f 1339 1340 1341
f 1342 1343 1344
f 1345 1346 1347
f 1348 1349 1350
f 1351 1352 1353
f 1354 1355 1356
f 1357 1358 1359
f 1360 1361 1362
f 1363 1364 1365
f 1366 1367 1368
f 1369 1370 1371
f 1372 1373 1374
f 1375 1376 1377
f 1378 1379 1380
f 1381 1382 1383
f 1384 1385 1386
f 1387 1388 1389
f 1390 1391 1392
f 1393 1394 1395
f 1396 1397 1398
f 1399 1400 1401
f 1402 1403 1404
f 1405 1406 1407
f 1408 1409 1410
f 1411 1412 1413
f 1414 1415 1416
f 1417 1418 1419
f 1419 1418 1420
f 1419 1420 1421
f 1422 1423 1419
f 1419 1423 1424
f 1419 1424 1417
f 1425 1426 1419
f 1419 1426 1427
f 1419 1427 1422
f 1428 1429 1419
f 1419 1429 1430
f 1419 1430 1425
f 1431 1432 1419
f 1419 1432 1433
f 1419 1433 1428
f 1434 1435 1419
f 1419 1435 1436
f 1419 1436 1431
f 1437 1438 1419
f 1419 1438 1439
f 1419 1439 1434
f 1440 1441 1419
f 1419 1441 1442
f 1419 1442 1437
f 1443 1444 1419
f 1419 1444 1445
f 1419 1445 1440
f 1446 1447 1419
f 1419 1447 1448
f 1419 1448 1443
f 1449 1450 1419
f 1419 1450 1451
f 1419 1451 1446
f 1421 1452 1419
f 1419 1452 1453
f 1419 1453 1449
